<svg xmlns="http://www.w3.org/2000/svg" viewBox="0 0 702.86 318.14"><defs><style>.cls-1{fill:#a2236e;}.cls-2{fill:#5d2f6a;}</style></defs><title>MXD</title><g id="Layer_2" data-name="Layer 2"><g id="Layer_2-2" data-name="Layer 2"><path class="cls-1" d="M48.45,281.18A20.68,20.68,0,1,0,10.5,269.81a20.52,20.52,0,0,0,3.42,11.37A22.58,22.58,0,0,0,0,301.89v12.68a3.16,3.16,0,0,0,3.17,3.16h56a3.16,3.16,0,0,0,3.17-3.16V301.89a22.58,22.58,0,0,0-13.92-20.71M31.19,255.46a14.35,14.35,0,1,1-14.36,14.35,14.37,14.37,0,0,1,14.36-14.35M56,311.4H6.34v-9.51a16.19,16.19,0,0,1,12.34-15.62,20.6,20.6,0,0,0,25,0A16.19,16.19,0,0,1,56,301.89Z"/><path class="cls-1" d="M148.28,281.18a20.69,20.69,0,1,0-34.53,0,22.59,22.59,0,0,0-13.93,20.71v12.68a3.16,3.16,0,0,0,3.17,3.16H159a3.16,3.16,0,0,0,3.16-3.16V301.89a22.58,22.58,0,0,0-13.92-20.71M131,255.46a14.35,14.35,0,1,1-14.35,14.35A14.37,14.37,0,0,1,131,255.46m24.86,55.94H106.16v-9.51a16.18,16.18,0,0,1,12.35-15.62,20.58,20.58,0,0,0,25,0,16.19,16.19,0,0,1,12.36,15.62Z"/><path class="cls-1" d="M131.1,239.24a3.16,3.16,0,0,0,4.87-2.61l.18-9.56a19.13,19.13,0,0,0-.77-37.35A28.05,28.05,0,0,0,108,155.53H86.39a3.17,3.17,0,1,0,0,6.33H108a21.69,21.69,0,0,1,20.94,27.49H85.67a19.16,19.16,0,0,0-18.87,16H58.29a3.19,3.19,0,0,0-2,.69L37.55,220.93l-.24-12.61a3.16,3.16,0,0,0-2.89-3.09,21.73,21.73,0,0,1,1.9-43.37H57.94a3.17,3.17,0,1,0,0-6.33H36.32A28.06,28.06,0,0,0,31,211.14l.32,16.31a3.16,3.16,0,0,0,1.82,2.81,3.2,3.2,0,0,0,1.35.3,3.13,3.13,0,0,0,2-.69l22.91-18.22H66.8a19.16,19.16,0,0,0,18.87,16h27.27ZM72.87,208.48a12.81,12.81,0,0,1,12.8-12.8h46a12.8,12.8,0,0,1,1.12,25.55,3.17,3.17,0,0,0-2.89,3.1l-.12,6.52-14.18-9.07a3.12,3.12,0,0,0-1.7-.5H85.67a12.81,12.81,0,0,1-12.8-12.8"/><path class="cls-2" d="M90.68,205.31a3.17,3.17,0,1,0,3.17,3.17h0a3.16,3.16,0,0,0-3.17-3.16"/><path class="cls-2" d="M108.66,205.31a3.17,3.17,0,1,0,3.16,3.17h0a3.15,3.15,0,0,0-3.16-3.16"/><path class="cls-2" d="M126.63,211.65a3.16,3.16,0,0,0,3.16-3.17h0a3.17,3.17,0,1,0-3.16,3.18"/><rect class="cls-1" x="54.86" y="155.53" width="38.39" height="6.34"/><polygon class="cls-1" points="73.13 132.54 73.13 63.66 46.22 100.42 19.45 63.66 19.45 132.54 0.2 132.54 0.2 29.52 18.29 29.52 46.22 67.86 74.14 29.52 92.37 29.52 92.37 132.54 73.13 132.54"/><path class="cls-1" d="M113.5,132.54v-103h67.86V48.33H132.89V63.52h42.25V82.76H132.89v30.68h47.17v19.1ZM169.21,0,153.58,20.26h-9.69L153.58,0Z"/><polygon class="cls-1" points="266.15 132.68 239.38 95.21 212.47 132.68 188.88 132.68 227.52 78.71 192.36 29.66 216.09 29.66 239.38 62.07 262.68 29.66 286.26 29.66 251.1 78.71 289.74 132.68 266.15 132.68"/><rect class="cls-1" x="308.55" y="29.52" width="19.39" height="103.02"/><path class="cls-1" d="M380.46,129.93a54.85,54.85,0,0,1-17.08-11.57,49.54,49.54,0,0,1-11.57-17.22,52,52,0,0,1-4.34-21,53.84,53.84,0,0,1,78.13-48,53,53,0,0,1,19,15.92l2.31,2.89L431.39,62.36l-2.17-2.89a34.13,34.13,0,0,0-27.78-13.89,34.73,34.73,0,1,0,27.78,55.56l2.17-2.75,15.34,11.29-2.32,2.89a53.28,53.28,0,0,1-43,21.56,54.79,54.79,0,0,1-21-4.2"/><path class="cls-1" d="M457.15,80.3A53.9,53.9,0,1,1,511,134,53.94,53.94,0,0,1,457.15,80.3m19.39,0A34.44,34.44,0,1,0,511,45.58,34.55,34.55,0,0,0,476.54,80.3"/><path class="cls-2" d="M181.09,263.53v-103h34.58c29.09,0,52.82,23.15,52.82,51.51s-23.73,51.51-52.82,51.51Zm34.58-19c18.52,0,33.57-14.61,33.57-32.55s-15.05-32.56-33.57-32.56H200.34v65.11Z"/><polygon class="cls-2" points="283.83 263.53 283.83 160.51 351.69 160.51 351.69 179.32 303.22 179.32 303.22 194.51 345.46 194.51 345.46 213.76 303.22 213.76 303.22 244.43 350.38 244.43 350.38 263.53 283.83 263.53"/><path class="cls-2" d="M370.64,263.53v-103h38.2a26.67,26.67,0,0,1,26.33,26.33,27.74,27.74,0,0,1-2.6,11.58,32.38,32.38,0,0,1,7.52,5.79,33.9,33.9,0,0,1,10.28,24.45A35.16,35.16,0,0,1,429,260.78a32.07,32.07,0,0,1-13.16,2.75Zm38.06-69.45a7.26,7.26,0,0,0,7.23-7.24,7.58,7.58,0,0,0-7.23-7.38H389.89v14.62Zm6.94,50.49a16.05,16.05,0,0,0,15.48-15.91A15.79,15.79,0,0,0,415.79,213h-25.9v31.54Z"/><path class="cls-2" d="M532,263.53l-10.57-27.78H487.27l-10.71,27.78H455.87l39.64-103H513l39.79,103Zm-18.09-46.88-9.55-25-9.55,25Z"/><polygon class="cls-2" points="575.67 263.53 575.67 179.61 550.35 179.61 550.35 160.51 620.39 160.51 620.39 179.61 595.06 179.61 595.06 263.53 575.67 263.53"/><polygon class="cls-2" points="635 263.53 635 160.51 702.86 160.51 702.86 179.32 654.39 179.32 654.39 194.51 696.64 194.51 696.64 213.76 654.39 213.76 654.39 244.43 701.56 244.43 701.56 263.53 635 263.53"/><path class="cls-1" d="M619.56,317.74v-4.63l11.54-13.49A3.47,3.47,0,1,0,625,296.5l-.28.84-5.11-1.08.28-1a8.61,8.61,0,0,1,8.38-6.31,8.57,8.57,0,0,1,8.74,8.66,8.89,8.89,0,0,1-1.67,5.15l0,0-8.23,9.7H637v5.27Z"/><path class="cls-1" d="M642.27,315.3a9.54,9.54,0,0,1-2.83-6.82V298.14a9.63,9.63,0,0,1,2.83-6.83,9.88,9.88,0,0,1,6.91-2.79,9.77,9.77,0,0,1,6.86,2.79,9.48,9.48,0,0,1,2.88,6.83v10.34a9.77,9.77,0,0,1-16.65,6.82m2.48-17.16v10.34a4.43,4.43,0,0,0,8.86,0V298.14a4.43,4.43,0,0,0-8.86,0"/><path class="cls-1" d="M661.67,317.74v-4.63l11.54-13.49a3.47,3.47,0,1,0-6.07-3.12l-.28.84-5.11-1.08.28-1a8.61,8.61,0,0,1,8.38-6.31,8.59,8.59,0,0,1,8.75,8.66,8.9,8.9,0,0,1-1.68,5.15l0,0-8.22,9.7h9.94v5.27Z"/><polygon class="cls-1" points="686.5 317.74 686.5 296.86 684.42 298.42 681.27 294.15 687.74 289.32 691.89 289.32 691.89 317.74 686.5 317.74"/><polygon class="cls-1" points="197.99 289.49 197.99 291.18 183.12 291.18 183.12 302.6 195.49 302.6 195.49 304.25 183.12 304.25 183.12 316.03 197.99 316.03 197.99 317.73 181.06 317.73 181.06 289.49 197.99 289.49"/><path class="cls-1" d="M206.09,289.55a.94.94,0,0,1,.34.31l18.28,24.47c0-.4-.06-.78-.06-1.15V289.49h1.8v28.24h-1a.88.88,0,0,1-.74-.4l-18.36-24.51q.06.6.06,1.14v23.77h-1.78V289.49h1a1.29,1.29,0,0,1,.44.06"/><path class="cls-1" d="M255.35,313a.45.45,0,0,1,.34.14l.79.85a12.77,12.77,0,0,1-1.91,1.69,12.22,12.22,0,0,1-2.27,1.28,13.89,13.89,0,0,1-2.69.82,16.94,16.94,0,0,1-3.22.28,13.83,13.83,0,0,1-5.38-1,11.94,11.94,0,0,1-4.19-2.92,13.14,13.14,0,0,1-2.73-4.56,17.21,17.21,0,0,1-1-5.94,16.44,16.44,0,0,1,1-5.87,13.29,13.29,0,0,1,2.84-4.56,12.57,12.57,0,0,1,4.37-3,14.75,14.75,0,0,1,5.61-1,15.33,15.33,0,0,1,2.82.23,13.16,13.16,0,0,1,2.38.65,11.75,11.75,0,0,1,2.09,1.07,17,17,0,0,1,1.92,1.48l-.62.9a.57.57,0,0,1-.5.24.86.86,0,0,1-.46-.21c-.19-.14-.42-.32-.71-.52s-.63-.43-1-.68a8.43,8.43,0,0,0-1.44-.68,12,12,0,0,0-1.94-.52,13.34,13.34,0,0,0-2.5-.21,12.37,12.37,0,0,0-4.73.89,10.63,10.63,0,0,0-3.71,2.54,11.41,11.41,0,0,0-2.42,4,15,15,0,0,0-.87,5.26,15.58,15.58,0,0,0,.86,5.34,11.62,11.62,0,0,0,2.37,4,10.41,10.41,0,0,0,3.58,2.49,11.48,11.48,0,0,0,4.49.87,16.72,16.72,0,0,0,2.7-.2,10.08,10.08,0,0,0,2.18-.6,9.67,9.67,0,0,0,1.86-1,14.55,14.55,0,0,0,1.7-1.35.72.72,0,0,1,.19-.13.36.36,0,0,1,.21,0"/><path class="cls-1" d="M273.35,316.27a9,9,0,0,0,3.64-.71,7.84,7.84,0,0,0,2.73-2,8.56,8.56,0,0,0,1.7-3A11,11,0,0,0,282,307V289.49h2V307a12.67,12.67,0,0,1-.74,4.36,10.26,10.26,0,0,1-2.13,3.53,9.7,9.7,0,0,1-3.37,2.37,12,12,0,0,1-8.92,0,9.61,9.61,0,0,1-3.37-2.37,10.26,10.26,0,0,1-2.13-3.53,12.67,12.67,0,0,1-.74-4.36V289.49h2.06v17.44a11,11,0,0,0,.59,3.68,8.54,8.54,0,0,0,1.69,3,7.86,7.86,0,0,0,2.72,2,8.79,8.79,0,0,0,3.64.72"/><polygon class="cls-1" points="309.11 289.49 309.11 291.18 294.25 291.18 294.25 302.6 306.62 302.6 306.62 304.25 294.25 304.25 294.25 316.03 309.11 316.03 309.11 317.73 292.19 317.73 292.19 289.49 309.11 289.49"/><path class="cls-1" d="M317.22,289.55a1,1,0,0,1,.34.31l18.28,24.47c0-.4-.06-.78-.06-1.15V289.49h1.79v28.24h-1a.87.87,0,0,1-.74-.4L317.5,292.82q.06.6.06,1.14v23.77h-1.78V289.49h1a1.33,1.33,0,0,1,.44.06"/><polygon class="cls-1" points="364.4 289.49 364.4 291.22 354.48 291.22 354.48 317.73 352.44 317.73 352.44 291.22 342.46 291.22 342.46 289.49 364.4 289.49"/><path class="cls-1" d="M371.92,305v12.78h-2V289.48h7.2q4.89,0,7.31,1.89a6.6,6.6,0,0,1,2.41,5.54,7.6,7.6,0,0,1-.56,2.95,6.91,6.91,0,0,1-1.6,2.35,8.52,8.52,0,0,1-2.53,1.65,10.85,10.85,0,0,1-3.33.85,3.4,3.4,0,0,1,.86.8l9.72,12.22h-1.78a1.18,1.18,0,0,1-.55-.12,1.62,1.62,0,0,1-.45-.4l-9-11.46a2.07,2.07,0,0,0-.73-.62,3,3,0,0,0-1.21-.18Zm0-1.51h4.91a11.58,11.58,0,0,0,3.36-.45,7.31,7.31,0,0,0,2.52-1.29,5.61,5.61,0,0,0,1.57-2,6.43,6.43,0,0,0,.53-2.65,5.18,5.18,0,0,0-2-4.47,9.6,9.6,0,0,0-5.75-1.46h-5.17Z"/><path class="cls-1" d="M418.8,303.6a16.88,16.88,0,0,1-1,5.93,12.93,12.93,0,0,1-2.75,4.55,12.18,12.18,0,0,1-4.25,2.92,15,15,0,0,1-10.94,0,12.27,12.27,0,0,1-4.25-2.92,13.25,13.25,0,0,1-2.76-4.55,18.23,18.23,0,0,1,0-11.85,13.25,13.25,0,0,1,2.76-4.55,12.43,12.43,0,0,1,4.25-2.93,14,14,0,0,1,5.45-1,14.28,14.28,0,0,1,5.49,1,12.07,12.07,0,0,1,4.25,2.93,13.06,13.06,0,0,1,2.75,4.56,16.87,16.87,0,0,1,1,5.92m-2.11,0a16.26,16.26,0,0,0-.82-5.31,11.36,11.36,0,0,0-2.31-4,9.76,9.76,0,0,0-3.58-2.51,12,12,0,0,0-4.65-.87,11.86,11.86,0,0,0-4.6.87,10,10,0,0,0-3.59,2.51,11.41,11.41,0,0,0-2.34,4,17.6,17.6,0,0,0,0,10.62,11.41,11.41,0,0,0,2.34,4,9.92,9.92,0,0,0,3.59,2.49,12,12,0,0,0,4.6.86,12.22,12.22,0,0,0,4.65-.86,9.71,9.71,0,0,0,3.58-2.49,11.36,11.36,0,0,0,2.31-4,16.18,16.18,0,0,0,.82-5.31"/><path class="cls-1" d="M456.92,303.6a16.48,16.48,0,0,1-1,5.88,12.63,12.63,0,0,1-2.75,4.45,11.81,11.81,0,0,1-4.25,2.82,14.86,14.86,0,0,1-5.49,1h-10.3V289.49h10.3a14.86,14.86,0,0,1,5.49,1,11.81,11.81,0,0,1,4.25,2.82,12.63,12.63,0,0,1,2.75,4.45,16.47,16.47,0,0,1,1,5.87m-2.11,0a15.89,15.89,0,0,0-.82-5.27,11.19,11.19,0,0,0-2.31-3.92A9.81,9.81,0,0,0,448.1,292a12.42,12.42,0,0,0-4.65-.84h-8.24v24.93h8.24a12.42,12.42,0,0,0,4.65-.84,9.81,9.81,0,0,0,3.58-2.43,11.19,11.19,0,0,0,2.31-3.92,15.91,15.91,0,0,0,.82-5.28"/><polygon class="cls-1" points="480.41 289.49 480.41 291.18 465.54 291.18 465.54 302.6 477.92 302.6 477.92 304.25 465.54 304.25 465.54 316.03 480.41 316.03 480.41 317.73 463.49 317.73 463.49 289.49 480.41 289.49"/><rect class="cls-1" x="495.52" y="289.49" width="2.06" height="28.24"/><path class="cls-1" d="M530.49,303.6a16.71,16.71,0,0,1-1,5.88,12.63,12.63,0,0,1-2.75,4.45,11.93,11.93,0,0,1-4.26,2.82,14.77,14.77,0,0,1-5.48,1h-10.3V289.49H517a14.77,14.77,0,0,1,5.48,1,11.93,11.93,0,0,1,4.26,2.82,12.63,12.63,0,0,1,2.75,4.45,16.69,16.69,0,0,1,1,5.87m-2.12,0a15.63,15.63,0,0,0-.82-5.27,11,11,0,0,0-2.3-3.92,9.89,9.89,0,0,0-3.58-2.43,12.42,12.42,0,0,0-4.65-.84h-8.25v24.93H517a12.42,12.42,0,0,0,4.65-.84,9.89,9.89,0,0,0,3.58-2.43,11,11,0,0,0,2.3-3.92,15.65,15.65,0,0,0,.82-5.28"/><polygon class="cls-1" points="553.98 289.49 553.98 291.18 539.11 291.18 539.11 302.6 551.48 302.6 551.48 304.25 539.11 304.25 539.11 316.03 553.98 316.03 553.98 317.73 537.05 317.73 537.05 289.49 553.98 289.49"/><path class="cls-1" d="M581.9,317.73h-1.58a.71.71,0,0,1-.46-.15,1,1,0,0,1-.28-.39L576.25,309H562.38l-3.31,8.21a1,1,0,0,1-.28.38.79.79,0,0,1-.48.16h-1.56l11.56-28.25h2ZM563,307.47h12.65l-5.77-14.27c-.09-.23-.18-.49-.27-.77s-.19-.59-.28-.91l-.28.91c-.1.28-.19.55-.28.79Z"/><path class="cls-1" d="M600,292.92a.57.57,0,0,1-.52.34,1.22,1.22,0,0,1-.67-.37,8,8,0,0,0-1.11-.82,8.68,8.68,0,0,0-1.75-.83,8.81,8.81,0,0,0-5.31.06,5.59,5.59,0,0,0-2,1.2,4.93,4.93,0,0,0-1.2,1.76,5.3,5.3,0,0,0-.41,2.09,4.27,4.27,0,0,0,.61,2.38,5.43,5.43,0,0,0,1.61,1.59,10.34,10.34,0,0,0,2.26,1.11c.85.3,1.72.6,2.61.89s1.77.61,2.61,1a9.38,9.38,0,0,1,2.27,1.32,5.82,5.82,0,0,1,2.22,4.87,9.1,9.1,0,0,1-.61,3.35,7.76,7.76,0,0,1-1.77,2.72,8.33,8.33,0,0,1-2.83,1.83,10.42,10.42,0,0,1-3.83.67,10.78,10.78,0,0,1-4.81-1,11.35,11.35,0,0,1-3.54-2.71l.56-.88a.73.73,0,0,1,.56-.29.78.78,0,0,1,.46.24c.19.15.42.35.68.58s.59.49,1,.76a7.3,7.3,0,0,0,1.3.76,9.36,9.36,0,0,0,1.7.59,9,9,0,0,0,2.18.24,8.28,8.28,0,0,0,3-.51,6.5,6.5,0,0,0,2.22-1.39,5.81,5.81,0,0,0,1.39-2.08,7,7,0,0,0,.48-2.59,4.49,4.49,0,0,0-.61-2.46,5.08,5.08,0,0,0-1.61-1.62,10.77,10.77,0,0,0-2.26-1.09c-.85-.29-1.72-.58-2.61-.86s-1.76-.59-2.61-.93a9.1,9.1,0,0,1-2.27-1.33,6.05,6.05,0,0,1-1.61-2,6.6,6.6,0,0,1-.61-3,7.11,7.11,0,0,1,.54-2.73,6.83,6.83,0,0,1,1.58-2.33,7.84,7.84,0,0,1,2.57-1.62,9.49,9.49,0,0,1,3.49-.6,10.64,10.64,0,0,1,3.94.69,9.48,9.48,0,0,1,3.19,2.14Z"/></g></g></svg>