<svg xmlns="http://www.w3.org/2000/svg" xmlns:xlink="http://www.w3.org/1999/xlink" viewBox="0 0 3349 1996"><defs><style>.cls-1{fill:none;}.cls-2{clip-path:url(#clip-path);}.cls-3{fill:#c8425a;}.cls-4{fill:#d67a52;}.cls-5{fill:#e7bece;}.cls-6{fill:#b63f88;}</style><clipPath id="clip-path"><rect class="cls-1" y="8" width="3349" height="1990"/></clipPath></defs><title>Patrongrande</title><g id="Capa_1" data-name="Capa 1"><g class="cls-2"><rect class="cls-3" x="0.26" y="-1918.16" width="3348.74" height="4335.37"/><polygon class="cls-4" points="3186.28 65.03 3186.28 344.5 3348.96 236.05 3348.96 -53.84 3186.28 65.03"/><polygon class="cls-5" points="3186.28 65.03 3348.96 145.33 3348.96 236.05 3186.28 344.5 3186.28 65.03"/><polygon class="cls-6" points="3216.39 79.89 3348.96 79.89 3348.96 145.33 3216.39 79.89"/><polygon class="cls-4" points="3186.28 478.6 3186.28 758.06 3348.96 649.62 3348.96 359.72 3186.28 478.6"/><polygon class="cls-5" points="3186.28 478.6 3348.96 558.89 3348.96 649.62 3186.28 758.06 3186.28 478.6"/><polygon class="cls-6" points="3216.39 493.45 3348.96 493.45 3348.96 558.89 3216.39 493.45"/><polygon class="cls-4" points="3186.28 918.64 3186.28 1198.11 3348.96 1089.66 3348.96 799.77 3186.28 918.64"/><polygon class="cls-5" points="3186.28 918.64 3348.96 998.94 3348.96 1089.66 3186.28 1198.11 3186.28 918.64"/><polygon class="cls-6" points="3216.39 933.5 3348.96 933.5 3348.96 998.94 3216.39 933.5"/><polygon class="cls-4" points="3186.28 1326.84 3186.28 1606.31 3348.96 1497.86 3348.96 1207.97 3186.28 1326.84"/><polygon class="cls-5" points="3186.28 1326.84 3348.96 1407.14 3348.96 1497.86 3186.28 1606.31 3186.28 1326.84"/><polygon class="cls-6" points="3216.39 1341.7 3348.96 1341.7 3348.96 1407.14 3216.39 1341.7"/><polygon class="cls-4" points="3186.28 1747.26 3186.28 2026.72 3348.96 1918.27 3348.96 1628.38 3186.28 1747.26"/><polygon class="cls-5" points="3186.28 1747.26 3348.96 1827.55 3348.96 1918.27 3186.28 2026.72 3186.28 1747.26"/><polygon class="cls-6" points="3216.39 1762.12 3348.96 1762.12 3348.96 1827.55 3216.39 1762.12"/><polygon class="cls-4" points="1602.36 -210 1602.36 69.47 1765.03 -38.98 1765.03 -328.88 1602.36 -210"/><polygon class="cls-5" points="1602.36 -210 1765.03 -129.71 1765.03 -38.98 1602.36 69.47 1602.36 -210"/><polygon class="cls-4" points="1602.36 230.55 1602.36 510.02 1765.03 401.57 1765.03 111.67 1602.36 230.55"/><polygon class="cls-5" points="1602.36 230.55 1765.03 310.85 1765.03 401.57 1602.36 510.02 1602.36 230.55"/><polygon class="cls-6" points="1632.45 245.41 1765.03 245.41 1765.03 310.85 1632.45 245.41"/><polygon class="cls-4" points="1800.35 101.24 1800.35 380.71 1963.02 272.26 1963.02 -17.63 1800.35 101.24"/><polygon class="cls-5" points="1800.35 101.24 1963.02 181.54 1963.02 272.26 1800.35 380.71 1800.35 101.24"/><polygon class="cls-6" points="1830.45 116.1 1963.02 116.1 1963.02 181.54 1830.45 116.1"/><polygon class="cls-4" points="1998.34 -28.06 1998.34 251.41 2161.01 142.96 2161.01 -146.94 1998.34 -28.06"/><polygon class="cls-5" points="1998.34 -28.06 2161.01 52.23 2161.01 142.96 1998.34 251.41 1998.34 -28.06"/><polygon class="cls-6" points="2028.44 -13.2 2161.01 -13.2 2161.01 52.23 2028.44 -13.2"/><polygon class="cls-4" points="2196.33 -157.36 2196.33 122.11 2359 13.65 2359 -276.24 2196.33 -157.36"/><polygon class="cls-5" points="2196.33 -157.36 2359 -77.07 2359 13.65 2196.33 122.11 2196.33 -157.36"/><polygon class="cls-4" points="1602.36 650.74 1602.36 930.21 1765.03 821.76 1765.03 531.87 1602.36 650.74"/><polygon class="cls-5" points="1602.36 650.74 1765.03 731.04 1765.03 821.76 1602.36 930.21 1602.36 650.74"/><polygon class="cls-6" points="1632.45 665.6 1765.03 665.6 1765.03 731.04 1632.45 665.6"/><polygon class="cls-4" points="1800.35 521.44 1800.35 800.9 1963.02 692.46 1963.02 402.56 1800.35 521.44"/><polygon class="cls-5" points="1800.35 521.44 1963.02 601.73 1963.02 692.46 1800.35 800.9 1800.35 521.44"/><polygon class="cls-6" points="1830.45 536.3 1963.02 536.3 1963.02 601.73 1830.45 536.3"/><polygon class="cls-4" points="1998.34 392.14 1998.34 671.6 2161.01 563.15 2161.01 273.26 1998.34 392.14"/><polygon class="cls-5" points="1998.34 392.14 2161.01 472.43 2161.01 563.15 1998.34 671.6 1998.34 392.14"/><polygon class="cls-6" points="2028.44 406.99 2161.01 406.99 2161.01 472.43 2028.44 406.99"/><polygon class="cls-4" points="2196.33 262.83 2196.33 542.3 2359 433.85 2359 143.95 2196.33 262.83"/><polygon class="cls-5" points="2196.33 262.83 2359 343.12 2359 433.85 2196.33 542.3 2196.33 262.83"/><polygon class="cls-6" points="2226.43 277.69 2359 277.69 2359 343.12 2226.43 277.69"/><polygon class="cls-4" points="2394.32 130.1 2394.32 409.57 2556.99 301.12 2556.99 11.22 2394.32 130.1"/><polygon class="cls-5" points="2394.32 130.1 2556.99 210.39 2556.99 301.12 2394.32 409.57 2394.32 130.1"/><polygon class="cls-6" points="2424.42 144.96 2556.99 144.96 2556.99 210.39 2424.42 144.96"/><polygon class="cls-4" points="2592.31 0.8 2592.31 280.26 2754.98 171.81 2754.98 -118.08 2592.31 0.8"/><polygon class="cls-5" points="2592.31 0.8 2754.98 81.09 2754.98 171.81 2592.31 280.26 2592.31 0.8"/><polygon class="cls-6" points="2622.41 15.65 2754.98 15.65 2754.98 81.09 2622.41 15.65"/><polygon class="cls-4" points="2790.3 -128.51 2790.3 150.96 2952.97 42.51 2952.97 -247.39 2790.3 -128.51"/><polygon class="cls-5" points="2790.3 -128.51 2952.97 -48.22 2952.97 42.51 2790.3 150.96 2790.3 -128.51"/><polygon class="cls-4" points="2988.29 -257.81 2988.29 21.65 3150.97 -86.8 3150.97 -376.69 2988.29 -257.81"/><polygon class="cls-5" points="2988.29 -257.81 3150.97 -177.52 3150.97 -86.8 2988.29 21.65 2988.29 -257.81"/><polygon class="cls-4" points="1602.36 1100.95 1602.36 1380.42 1765.03 1271.97 1765.03 982.08 1602.36 1100.95"/><polygon class="cls-5" points="1602.36 1100.95 1765.03 1181.24 1765.03 1271.97 1602.36 1380.42 1602.36 1100.95"/><polygon class="cls-6" points="1632.45 1115.81 1765.03 1115.81 1765.03 1181.24 1632.45 1115.81"/><polygon class="cls-4" points="1800.35 971.65 1800.35 1251.11 1963.02 1142.66 1963.02 852.77 1800.35 971.65"/><polygon class="cls-5" points="1800.35 971.65 1963.02 1051.94 1963.02 1142.66 1800.35 1251.11 1800.35 971.65"/><polygon class="cls-6" points="1830.45 986.5 1963.02 986.5 1963.02 1051.94 1830.45 986.5"/><polygon class="cls-4" points="1998.34 842.34 1998.34 1121.81 2161.01 1013.36 2161.01 723.47 1998.34 842.34"/><polygon class="cls-5" points="1998.34 842.34 2161.01 922.63 2161.01 1013.36 1998.34 1121.81 1998.34 842.34"/><polygon class="cls-6" points="2028.44 857.2 2161.01 857.2 2161.01 922.63 2028.44 857.2"/><polygon class="cls-4" points="2196.33 713.04 2196.33 992.5 2359 884.05 2359 594.16 2196.33 713.04"/><polygon class="cls-5" points="2196.33 713.04 2359 793.33 2359 884.05 2196.33 992.5 2196.33 713.04"/><polygon class="cls-6" points="2226.43 727.9 2359 727.9 2359 793.33 2226.43 727.9"/><polygon class="cls-4" points="2394.32 580.31 2394.32 859.77 2556.99 751.32 2556.99 461.43 2394.32 580.31"/><polygon class="cls-5" points="2394.32 580.31 2556.99 660.6 2556.99 751.32 2394.32 859.77 2394.32 580.31"/><polygon class="cls-6" points="2424.42 595.16 2556.99 595.16 2556.99 660.6 2424.42 595.16"/><polygon class="cls-4" points="2592.31 451 2592.31 730.47 2754.98 622.02 2754.98 332.13 2592.31 451"/><polygon class="cls-5" points="2592.31 451 2754.98 531.3 2754.98 622.02 2592.31 730.47 2592.31 451"/><polygon class="cls-6" points="2622.41 465.86 2754.98 465.86 2754.98 531.3 2622.41 465.86"/><polygon class="cls-4" points="2790.3 321.7 2790.3 601.16 2952.97 492.71 2952.97 202.82 2790.3 321.7"/><polygon class="cls-5" points="2790.3 321.7 2952.97 401.99 2952.97 492.71 2790.3 601.16 2790.3 321.7"/><polygon class="cls-6" points="2820.4 336.56 2952.98 336.56 2952.98 401.99 2820.4 336.56"/><polygon class="cls-4" points="2988.29 192.39 2988.29 471.86 3150.97 363.41 3150.97 73.52 2988.29 192.39"/><polygon class="cls-5" points="2988.29 192.39 3150.97 272.69 3150.97 363.41 2988.29 471.86 2988.29 192.39"/><polygon class="cls-6" points="3018.39 207.25 3150.97 207.25 3150.97 272.69 3018.39 207.25"/><polygon class="cls-4" points="1602.36 1522.52 1602.36 1801.98 1765.03 1693.53 1765.03 1403.63 1602.36 1522.52"/><polygon class="cls-5" points="1602.36 1522.52 1765.03 1602.81 1765.03 1693.53 1602.36 1801.98 1602.36 1522.52"/><polygon class="cls-6" points="1632.45 1537.37 1765.03 1537.37 1765.03 1602.81 1632.45 1537.37"/><polygon class="cls-4" points="1800.35 1393.21 1800.35 1672.68 1963.02 1564.23 1963.02 1274.33 1800.35 1393.21"/><polygon class="cls-5" points="1800.35 1393.21 1963.02 1473.5 1963.02 1564.23 1800.35 1672.68 1800.35 1393.21"/><polygon class="cls-6" points="1830.45 1408.07 1963.02 1408.07 1963.02 1473.5 1830.45 1408.07"/><polygon class="cls-4" points="1998.34 1263.9 1998.34 1543.37 2161.01 1434.92 2161.01 1145.03 1998.34 1263.9"/><polygon class="cls-5" points="1998.34 1263.9 2161.01 1344.2 2161.01 1434.92 1998.34 1543.37 1998.34 1263.9"/><polygon class="cls-6" points="2028.44 1278.76 2161.01 1278.76 2161.01 1344.2 2028.44 1278.76"/><polygon class="cls-4" points="2196.33 1134.6 2196.33 1414.07 2359 1305.62 2359 1015.72 2196.33 1134.6"/><polygon class="cls-5" points="2196.33 1134.6 2359 1214.89 2359 1305.62 2196.33 1414.07 2196.33 1134.6"/><polygon class="cls-6" points="2226.43 1149.45 2359 1149.45 2359 1214.89 2226.43 1149.45"/><polygon class="cls-4" points="2394.32 1001.87 2394.32 1281.34 2556.99 1172.89 2556.99 882.99 2394.32 1001.87"/><polygon class="cls-5" points="2394.32 1001.87 2556.99 1082.16 2556.99 1172.89 2394.32 1281.34 2394.32 1001.87"/><polygon class="cls-6" points="2424.42 1016.72 2556.99 1016.72 2556.99 1082.16 2424.42 1016.72"/><polygon class="cls-4" points="2592.31 872.56 2592.31 1152.03 2754.98 1043.58 2754.98 753.69 2592.31 872.56"/><polygon class="cls-5" points="2592.31 872.56 2754.98 952.86 2754.98 1043.58 2592.31 1152.03 2592.31 872.56"/><polygon class="cls-6" points="2622.41 887.42 2754.98 887.42 2754.98 952.86 2622.41 887.42"/><polygon class="cls-4" points="2790.3 743.26 2790.3 1022.73 2952.97 914.28 2952.97 624.38 2790.3 743.26"/><polygon class="cls-5" points="2790.3 743.26 2952.97 823.55 2952.97 914.28 2790.3 1022.73 2790.3 743.26"/><polygon class="cls-6" points="2820.4 758.11 2952.98 758.11 2952.98 823.55 2820.4 758.11"/><polygon class="cls-4" points="2988.29 613.95 2988.29 893.42 3150.97 784.97 3150.97 495.08 2988.29 613.95"/><polygon class="cls-5" points="2988.29 613.95 3150.97 694.24 3150.97 784.97 2988.29 893.42 2988.29 613.95"/><polygon class="cls-6" points="3018.39 628.81 3150.97 628.81 3150.97 694.25 3018.39 628.81"/><polygon class="cls-4" points="1602.36 1952.22 1602.36 2231.69 1765.03 2123.24 1765.03 1833.34 1602.36 1952.22"/><polygon class="cls-5" points="1602.36 1952.22 1765.03 2032.51 1765.03 2123.24 1602.36 2231.69 1602.36 1952.22"/><polygon class="cls-6" points="1632.45 1967.08 1765.03 1967.08 1765.03 2032.51 1632.45 1967.08"/><polygon class="cls-4" points="1800.35 1822.91 1800.35 2102.38 1963.02 1993.93 1963.02 1704.04 1800.35 1822.91"/><polygon class="cls-5" points="1800.35 1822.91 1963.02 1903.21 1963.02 1993.93 1800.35 2102.38 1800.35 1822.91"/><polygon class="cls-6" points="1830.45 1837.77 1963.02 1837.77 1963.02 1903.21 1830.45 1837.77"/><polygon class="cls-4" points="1998.34 1693.61 1998.34 1973.08 2161.01 1864.63 2161.01 1574.73 1998.34 1693.61"/><polygon class="cls-5" points="1998.34 1693.61 2161.01 1773.9 2161.01 1864.63 1998.34 1973.08 1998.34 1693.61"/><polygon class="cls-6" points="2028.44 1708.46 2161.01 1708.46 2161.01 1773.9 2028.44 1708.46"/><polygon class="cls-4" points="2196.33 1564.3 2196.33 1843.77 2359 1735.32 2359 1445.43 2196.33 1564.3"/><polygon class="cls-5" points="2196.33 1564.3 2359 1644.6 2359 1735.32 2196.33 1843.77 2196.33 1564.3"/><polygon class="cls-6" points="2226.43 1579.16 2359 1579.16 2359 1644.6 2226.43 1579.16"/><polygon class="cls-4" points="2394.32 1431.57 2394.32 1711.04 2556.99 1602.59 2556.99 1312.7 2394.32 1431.57"/><polygon class="cls-5" points="2394.32 1431.57 2556.99 1511.86 2556.99 1602.59 2394.32 1711.04 2394.32 1431.57"/><polygon class="cls-6" points="2424.42 1446.43 2556.99 1446.43 2556.99 1511.87 2424.42 1446.43"/><polygon class="cls-4" points="2592.31 1302.27 2592.31 1581.73 2754.98 1473.29 2754.98 1183.39 2592.31 1302.27"/><polygon class="cls-5" points="2592.31 1302.27 2754.98 1382.56 2754.98 1473.29 2592.31 1581.73 2592.31 1302.27"/><polygon class="cls-6" points="2622.41 1317.13 2754.98 1317.13 2754.98 1382.56 2622.41 1317.13"/><polygon class="cls-4" points="2790.3 1172.96 2790.3 1452.43 2952.97 1343.98 2952.97 1054.09 2790.3 1172.96"/><polygon class="cls-5" points="2790.3 1172.96 2952.97 1253.26 2952.97 1343.98 2790.3 1452.43 2790.3 1172.96"/><polygon class="cls-6" points="2820.4 1187.82 2952.98 1187.82 2952.98 1253.26 2820.4 1187.82"/><polygon class="cls-4" points="2988.29 1043.66 2988.29 1323.12 3150.97 1214.67 3150.97 924.78 2988.29 1043.66"/><polygon class="cls-5" points="2988.29 1043.66 3150.97 1123.95 3150.97 1214.67 2988.29 1323.12 2988.29 1043.66"/><polygon class="cls-6" points="3018.39 1058.52 3150.97 1058.52 3150.97 1123.95 3018.39 1058.52"/><polygon class="cls-4" points="0.26 18.59 0.26 298.06 162.93 189.61 162.93 -100.29 0.26 18.59"/><polygon class="cls-5" points="0.26 298.05 162.93 189.6 162.93 98.88 0.26 18.59 0.26 298.05"/><polygon class="cls-6" points="30.36 33.45 162.93 33.45 162.93 98.88 30.36 33.45"/><polygon class="cls-4" points="198.25 -121.14 198.25 158.32 360.92 49.87 360.92 -240.02 198.25 -121.14"/><polygon class="cls-5" points="198.25 -121.14 360.92 -40.85 360.92 49.87 198.25 158.32 198.25 -121.14"/><polygon class="cls-4" points="396.24 -250.45 396.24 29.02 558.91 -79.43 558.91 -369.33 396.24 -250.45"/><polygon class="cls-5" points="396.24 -250.45 558.91 -170.16 558.91 -79.43 396.24 29.02 396.24 -250.45"/><polygon class="cls-4" points="0.26 464.51 0.26 743.97 162.93 635.52 162.93 345.63 0.26 464.51"/><polygon class="cls-5" points="0.26 743.97 162.93 635.52 162.93 544.8 0.26 464.51 0.26 743.97"/><polygon class="cls-6" points="30.36 479.36 162.93 479.36 162.93 544.8 30.36 479.36"/><polygon class="cls-4" points="198.25 324.77 198.25 604.24 360.92 495.79 360.92 205.9 198.25 324.77"/><polygon class="cls-5" points="198.25 324.77 360.92 405.07 360.92 495.79 198.25 604.24 198.25 324.77"/><polygon class="cls-6" points="228.35 339.63 360.92 339.63 360.92 405.07 228.35 339.63"/><polygon class="cls-4" points="396.24 195.47 396.24 474.93 558.91 366.49 558.91 76.59 396.24 195.47"/><polygon class="cls-5" points="396.24 195.47 558.91 275.76 558.91 366.49 396.24 474.93 396.24 195.47"/><polygon class="cls-6" points="426.34 210.33 558.91 210.33 558.91 275.76 426.34 210.33"/><polygon class="cls-4" points="594.23 55.74 594.23 335.2 756.91 226.75 756.91 -63.14 594.23 55.74"/><polygon class="cls-5" points="594.23 55.74 756.91 136.03 756.91 226.75 594.23 335.2 594.23 55.74"/><polygon class="cls-6" points="624.33 70.59 756.91 70.59 756.91 136.03 624.33 70.59"/><polygon class="cls-4" points="802.25 -84 802.25 195.47 964.92 87.02 964.92 -202.88 802.25 -84"/><polygon class="cls-5" points="802.25 -84 964.92 -3.7 964.92 87.02 802.25 195.47 802.25 -84"/><polygon class="cls-4" points="1004.31 -223.73 1004.31 55.74 1166.98 -52.71 1166.98 -342.61 1004.31 -223.73"/><polygon class="cls-5" points="1004.31 -223.73 1166.98 -143.44 1166.98 -52.71 1004.31 55.74 1004.31 -223.73"/><polygon class="cls-4" points="0.26 880.35 0.26 1159.81 162.93 1051.37 162.93 761.47 0.26 880.35"/><polygon class="cls-5" points="0.26 1159.81 162.93 1051.37 162.93 960.64 0.26 880.35 0.26 1159.81"/><polygon class="cls-6" points="30.36 895.21 162.93 895.21 162.93 960.64 30.36 895.21"/><polygon class="cls-4" points="198.25 740.62 198.25 1020.08 360.92 911.63 360.92 621.74 198.25 740.62"/><polygon class="cls-5" points="198.25 740.62 360.92 820.91 360.92 911.63 198.25 1020.08 198.25 740.62"/><polygon class="cls-6" points="228.35 755.47 360.92 755.47 360.92 820.91 228.35 755.47"/><polygon class="cls-4" points="396.24 611.31 396.24 890.78 558.91 782.33 558.91 492.44 396.24 611.31"/><polygon class="cls-5" points="396.24 611.31 558.91 691.6 558.91 782.33 396.24 890.78 396.24 611.31"/><polygon class="cls-6" points="426.34 626.17 558.91 626.17 558.91 691.61 426.34 626.17"/><polygon class="cls-4" points="594.23 471.58 594.23 751.04 756.91 642.6 756.91 352.7 594.23 471.58"/><polygon class="cls-5" points="594.23 471.58 756.91 551.87 756.91 642.6 594.23 751.04 594.23 471.58"/><polygon class="cls-6" points="624.33 486.44 756.91 486.44 756.91 551.87 624.33 486.44"/><polygon class="cls-4" points="802.25 331.85 802.25 611.31 964.92 502.86 964.92 212.97 802.25 331.85"/><polygon class="cls-5" points="802.25 331.85 964.92 412.14 964.92 502.86 802.25 611.31 802.25 331.85"/><polygon class="cls-6" points="832.35 346.7 964.92 346.7 964.92 412.14 832.35 346.7"/><polygon class="cls-4" points="1004.31 192.12 1004.31 471.58 1166.98 363.13 1166.98 73.24 1004.31 192.12"/><polygon class="cls-5" points="1004.31 192.12 1166.98 272.41 1166.98 363.13 1004.31 471.58 1004.31 192.12"/><polygon class="cls-6" points="1034.41 206.97 1166.98 206.97 1166.98 272.41 1034.41 206.97"/><polygon class="cls-4" points="1206.37 62.81 1206.37 342.28 1369.05 233.83 1369.05 -56.07 1206.37 62.81"/><polygon class="cls-5" points="1206.37 62.81 1369.05 143.1 1369.05 233.83 1206.37 342.28 1206.37 62.81"/><polygon class="cls-6" points="1236.47 77.67 1369.05 77.67 1369.05 143.1 1236.47 77.67"/><polygon class="cls-4" points="1404.36 -76.92 1404.36 202.54 1567.04 94.09 1567.04 -195.8 1404.36 -76.92"/><polygon class="cls-5" points="1404.36 -76.92 1567.04 3.37 1567.04 94.09 1404.36 202.54 1404.36 -76.92"/><polygon class="cls-6" points="1434.46 -62.06 1567.04 -62.06 1567.04 3.37 1434.46 -62.06"/><polygon class="cls-4" points="0.26 1326.27 0.26 1605.73 162.93 1497.29 162.93 1207.39 0.26 1326.27"/><polygon class="cls-5" points="0.26 1605.73 162.93 1497.29 162.93 1406.56 0.26 1326.26 0.26 1605.73"/><polygon class="cls-6" points="30.36 1341.13 162.93 1341.13 162.93 1406.56 30.36 1341.13"/><polygon class="cls-4" points="198.25 1186.54 198.25 1466 360.92 1357.55 360.92 1067.66 198.25 1186.54"/><polygon class="cls-5" points="198.25 1186.54 360.92 1266.83 360.92 1357.55 198.25 1466 198.25 1186.54"/><polygon class="cls-6" points="228.35 1201.39 360.92 1201.39 360.92 1266.83 228.35 1201.39"/><polygon class="cls-4" points="396.24 1057.23 396.24 1336.7 558.91 1228.25 558.91 938.35 396.24 1057.23"/><polygon class="cls-5" points="396.24 1057.23 558.91 1137.52 558.91 1228.25 396.24 1336.7 396.24 1057.23"/><polygon class="cls-6" points="426.34 1072.09 558.91 1072.09 558.91 1137.52 426.34 1072.09"/><polygon class="cls-4" points="594.23 917.5 594.23 1196.97 756.91 1088.52 756.91 798.62 594.23 917.5"/><polygon class="cls-5" points="594.23 917.5 756.91 997.79 756.91 1088.52 594.23 1196.97 594.23 917.5"/><polygon class="cls-6" points="624.33 932.35 756.91 932.35 756.91 997.79 624.33 932.35"/><polygon class="cls-4" points="802.25 777.76 802.25 1057.23 964.92 948.78 964.92 658.89 802.25 777.76"/><polygon class="cls-5" points="802.25 777.76 964.92 858.06 964.92 948.78 802.25 1057.23 802.25 777.76"/><polygon class="cls-6" points="832.35 792.62 964.92 792.62 964.92 858.06 832.35 792.62"/><polygon class="cls-4" points="1004.31 638.03 1004.31 917.5 1166.98 809.05 1166.98 519.15 1004.31 638.03"/><polygon class="cls-5" points="1004.31 638.03 1166.98 718.33 1166.98 809.05 1004.31 917.5 1004.31 638.03"/><polygon class="cls-6" points="1034.41 652.89 1166.98 652.89 1166.98 718.33 1034.41 652.89"/><polygon class="cls-4" points="1206.37 508.73 1206.37 788.2 1369.05 679.75 1369.05 389.85 1206.37 508.73"/><polygon class="cls-5" points="1206.37 508.73 1369.05 589.02 1369.05 679.75 1206.37 788.2 1206.37 508.73"/><polygon class="cls-6" points="1236.47 523.58 1369.05 523.58 1369.05 589.02 1236.47 523.58"/><polygon class="cls-4" points="1404.36 368.99 1404.36 648.46 1567.04 540.01 1567.04 250.12 1404.36 368.99"/><polygon class="cls-5" points="1404.36 368.99 1567.04 449.29 1567.04 540.01 1404.36 648.46 1404.36 368.99"/><polygon class="cls-6" points="1434.46 383.85 1567.04 383.85 1567.04 449.29 1434.46 383.85"/><polygon class="cls-4" points="0.26 1742.11 0.26 2021.58 162.93 1913.13 162.93 1623.24 0.26 1742.11"/><polygon class="cls-5" points="0.26 2021.58 162.93 1913.12 162.93 1822.41 0.26 1742.11 0.26 2021.58"/><polygon class="cls-6" points="30.36 1756.97 162.93 1756.97 162.93 1822.4 30.36 1756.97"/><polygon class="cls-4" points="198.25 1602.38 198.25 1881.84 360.92 1773.39 360.92 1483.5 198.25 1602.38"/><polygon class="cls-5" points="198.25 1602.38 360.92 1682.67 360.92 1773.39 198.25 1881.84 198.25 1602.38"/><polygon class="cls-6" points="228.35 1617.24 360.92 1617.24 360.92 1682.67 228.35 1617.24"/><polygon class="cls-4" points="396.24 1473.08 396.24 1752.54 558.91 1644.09 558.91 1354.19 396.24 1473.08"/><polygon class="cls-5" points="396.24 1473.08 558.91 1553.37 558.91 1644.09 396.24 1752.54 396.24 1473.08"/><polygon class="cls-6" points="426.34 1487.93 558.91 1487.93 558.91 1553.37 426.34 1487.93"/><polygon class="cls-4" points="594.23 1333.34 594.23 1612.81 756.91 1504.36 756.91 1214.46 594.23 1333.34"/><polygon class="cls-5" points="594.23 1333.34 756.91 1413.63 756.91 1504.36 594.23 1612.81 594.23 1333.34"/><polygon class="cls-6" points="624.33 1348.2 756.91 1348.2 756.91 1413.63 624.33 1348.2"/><polygon class="cls-4" points="802.25 1193.61 802.25 1473.08 964.92 1364.63 964.92 1074.73 802.25 1193.61"/><polygon class="cls-5" points="802.25 1193.61 964.92 1273.9 964.92 1364.63 802.25 1473.08 802.25 1193.61"/><polygon class="cls-6" points="832.35 1208.46 964.92 1208.46 964.92 1273.9 832.35 1208.46"/><polygon class="cls-4" points="1004.31 1053.88 1004.31 1333.34 1166.98 1224.89 1166.98 935 1004.31 1053.88"/><polygon class="cls-5" points="1004.31 1053.88 1166.98 1134.17 1166.98 1224.89 1004.31 1333.34 1004.31 1053.88"/><polygon class="cls-6" points="1034.41 1068.73 1166.98 1068.73 1166.98 1134.17 1034.41 1068.73"/><polygon class="cls-4" points="1206.37 924.57 1206.37 1204.04 1369.05 1095.59 1369.05 805.69 1206.37 924.57"/><polygon class="cls-5" points="1206.37 924.57 1369.05 1004.87 1369.05 1095.59 1206.37 1204.04 1206.37 924.57"/><polygon class="cls-6" points="1236.47 939.43 1369.05 939.43 1369.05 1004.87 1236.47 939.43"/><polygon class="cls-4" points="1404.36 784.84 1404.36 1064.31 1567.04 955.86 1567.04 665.96 1404.36 784.84"/><polygon class="cls-5" points="1404.36 784.84 1567.04 865.13 1567.04 955.86 1404.36 1064.31 1404.36 784.84"/><polygon class="cls-6" points="1434.46 799.69 1567.04 799.69 1567.04 865.13 1434.46 799.69"/><polygon class="cls-4" points="198.25 2048.3 198.25 2327.76 360.92 2219.32 360.92 1929.42 198.25 2048.3"/><polygon class="cls-4" points="396.24 1918.99 396.24 2198.46 558.91 2090.01 558.91 1800.11 396.24 1918.99"/><polygon class="cls-5" points="396.24 1918.99 558.91 1999.28 558.91 2090.01 396.24 2198.46 396.24 1918.99"/><polygon class="cls-6" points="426.34 1933.85 558.91 1933.85 558.91 1999.29 426.34 1933.85"/><polygon class="cls-4" points="594.23 1779.26 594.23 2058.72 756.91 1950.28 756.91 1660.38 594.23 1779.26"/><polygon class="cls-5" points="594.23 1779.26 756.91 1859.55 756.91 1950.28 594.23 2058.72 594.23 1779.26"/><polygon class="cls-6" points="624.33 1794.12 756.91 1794.12 756.91 1859.55 624.33 1794.12"/><polygon class="cls-4" points="802.25 1639.53 802.25 1918.99 964.92 1810.54 964.92 1520.65 802.25 1639.53"/><polygon class="cls-5" points="802.25 1639.53 964.92 1719.82 964.92 1810.54 802.25 1918.99 802.25 1639.53"/><polygon class="cls-6" points="832.35 1654.38 964.92 1654.38 964.92 1719.82 832.35 1654.38"/><polygon class="cls-4" points="1004.31 1499.79 1004.31 1779.26 1166.98 1670.81 1166.98 1380.92 1004.31 1499.79"/><polygon class="cls-5" points="1004.31 1499.79 1166.98 1580.09 1166.98 1670.81 1004.31 1779.26 1004.31 1499.79"/><polygon class="cls-6" points="1034.41 1514.65 1166.98 1514.65 1166.98 1580.09 1034.41 1514.65"/><polygon class="cls-4" points="1206.37 1370.49 1206.37 1649.95 1369.05 1541.5 1369.05 1251.61 1206.37 1370.49"/><polygon class="cls-5" points="1206.37 1370.49 1369.05 1450.78 1369.05 1541.5 1206.37 1649.95 1206.37 1370.49"/><polygon class="cls-6" points="1236.47 1385.35 1369.05 1385.35 1369.05 1450.78 1236.47 1385.35"/><polygon class="cls-4" points="1404.36 1230.76 1404.36 1510.22 1567.04 1401.77 1567.04 1111.88 1404.36 1230.76"/><polygon class="cls-5" points="1404.36 1230.76 1567.04 1311.05 1567.04 1401.77 1404.36 1510.22 1404.36 1230.76"/><polygon class="cls-6" points="1434.46 1245.61 1567.04 1245.61 1567.04 1311.05 1434.46 1245.61"/><polygon class="cls-4" points="802.25 2055.37 802.25 2334.84 964.92 2226.39 964.92 1936.49 802.25 2055.37"/><polygon class="cls-4" points="1004.31 1915.64 1004.31 2195.1 1166.98 2086.66 1166.98 1796.76 1004.31 1915.64"/><polygon class="cls-5" points="1004.31 1915.64 1166.98 1995.93 1166.98 2086.66 1004.31 2195.1 1004.31 1915.64"/><polygon class="cls-6" points="1034.41 1930.49 1166.98 1930.49 1166.98 1995.93 1034.41 1930.49"/><polygon class="cls-4" points="1206.37 1786.33 1206.37 2065.8 1369.05 1957.35 1369.05 1667.45 1206.37 1786.33"/><polygon class="cls-5" points="1206.37 1786.33 1369.05 1866.62 1369.05 1957.35 1206.37 2065.8 1206.37 1786.33"/><polygon class="cls-6" points="1236.47 1801.19 1369.05 1801.19 1369.05 1866.63 1236.47 1801.19"/><polygon class="cls-4" points="1404.36 1646.6 1404.36 1926.06 1567.04 1817.62 1567.04 1527.72 1404.36 1646.6"/><polygon class="cls-5" points="1404.36 1646.6 1567.04 1726.89 1567.04 1817.62 1404.36 1926.06 1404.36 1646.6"/><polygon class="cls-6" points="1434.46 1661.46 1567.04 1661.46 1567.04 1726.89 1434.46 1661.46"/><polygon class="cls-4" points="1404.36 2092.51 1404.36 2371.98 1567.04 2263.53 1567.04 1973.64 1404.36 2092.51"/><polygon class="cls-4" points="1998.34 2111.02 1998.34 2390.49 2161.01 2282.04 2161.01 1992.15 1998.34 2111.02"/><polygon class="cls-4" points="2196.33 1981.72 2196.33 2261.18 2359 2152.74 2359 1862.84 2196.33 1981.72"/><polygon class="cls-5" points="2196.33 1981.72 2359 2062.01 2359 2152.74 2196.33 2261.18 2196.33 1981.72"/><polygon class="cls-4" points="2394.32 1848.99 2394.32 2128.45 2556.99 2020.01 2556.99 1730.11 2394.32 1848.99"/><polygon class="cls-5" points="2394.32 1848.99 2556.99 1929.28 2556.99 2020.01 2394.32 2128.45 2394.32 1848.99"/><polygon class="cls-6" points="2424.42 1863.84 2556.99 1863.84 2556.99 1929.28 2424.42 1863.84"/><polygon class="cls-4" points="2592.31 1719.68 2592.31 1999.15 2754.98 1890.7 2754.98 1600.81 2592.31 1719.68"/><polygon class="cls-5" points="2592.31 1719.68 2754.98 1799.97 2754.98 1890.7 2592.31 1999.15 2592.31 1719.68"/><polygon class="cls-6" points="2622.41 1734.54 2754.98 1734.54 2754.98 1799.97 2622.41 1734.54"/><polygon class="cls-4" points="2790.3 1590.38 2790.3 1869.84 2952.97 1761.39 2952.97 1471.5 2790.3 1590.38"/><polygon class="cls-5" points="2790.3 1590.38 2952.97 1670.67 2952.97 1761.39 2790.3 1869.84 2790.3 1590.38"/><polygon class="cls-6" points="2820.4 1605.24 2952.98 1605.24 2952.98 1670.67 2820.4 1605.24"/><polygon class="cls-4" points="2988.29 1461.07 2988.29 1740.54 3150.97 1632.09 3150.97 1342.2 2988.29 1461.07"/><polygon class="cls-5" points="2988.29 1461.07 3150.97 1541.37 3150.97 1632.09 2988.29 1740.54 2988.29 1461.07"/><polygon class="cls-6" points="3018.39 1475.93 3150.97 1475.93 3150.97 1541.37 3018.39 1475.93"/><polygon class="cls-4" points="2790.3 2007.79 2790.3 2287.26 2952.97 2178.81 2952.97 1888.92 2790.3 2007.79"/><polygon class="cls-4" points="2988.29 1878.49 2988.29 2157.95 3150.97 2049.5 3150.97 1759.61 2988.29 1878.49"/><polygon class="cls-5" points="2988.29 1878.49 3150.97 1958.78 3150.97 2049.5 2988.29 2157.95 2988.29 1878.49"/><polygon class="cls-6" points="3018.39 1893.35 3150.97 1893.35 3150.97 1958.78 3018.39 1893.35"/></g></g></svg>