<svg xmlns="http://www.w3.org/2000/svg" xmlns:xlink="http://www.w3.org/1999/xlink" viewBox="0 0 2888.48 3743"><defs><style>.cls-1{fill:none;}.cls-2{clip-path:url(#clip-path);}.cls-3{fill:#c8425a;}.cls-4{fill:#d67a52;}.cls-5{fill:#e7bece;}.cls-6{fill:#b63f88;}</style><clipPath id="clip-path" transform="translate(-0.26)"><rect class="cls-1" y="1632" width="1809" height="1990"/></clipPath></defs><title>patron</title><g id="Layer_2" data-name="Layer 2"><g id="Capa_1" data-name="Capa 1"><g class="cls-2"><rect class="cls-3" y="3.49" width="2888.48" height="3739.51"/><polygon class="cls-4" points="0 930.73 0 1171.79 140.31 1078.24 140.31 828.19 0 930.73"/><polygon class="cls-5" points="0 1171.79 140.31 1078.24 140.31 999.99 0 930.73 0 1171.79"/><polygon class="cls-6" points="25.96 943.55 140.31 943.55 140.31 999.99 25.96 943.55"/><polygon class="cls-4" points="170.78 810.21 170.78 1051.26 311.09 957.72 311.09 707.66 170.78 810.21"/><polygon class="cls-5" points="170.78 810.21 311.09 879.46 311.09 957.72 170.78 1051.26 170.78 810.21"/><polygon class="cls-6" points="196.74 823.02 311.09 823.02 311.09 879.46 196.74 823.02"/><polygon class="cls-4" points="341.56 698.67 341.56 939.73 481.87 846.18 481.87 596.13 341.56 698.67"/><polygon class="cls-5" points="341.56 698.67 481.87 767.93 481.87 846.18 341.56 939.73 341.56 698.67"/><polygon class="cls-6" points="367.52 711.49 481.87 711.49 481.87 767.93 367.52 711.49"/><polygon class="cls-4" points="512.34 578.14 512.34 819.2 652.65 725.65 652.65 475.61 512.34 578.14"/><polygon class="cls-5" points="512.34 578.14 652.65 647.4 652.65 725.65 512.34 819.2 512.34 578.14"/><polygon class="cls-6" points="538.3 590.96 652.65 590.96 652.65 647.4 538.3 590.96"/><polygon class="cls-4" points="691.76 457.62 691.76 698.67 832.08 605.13 832.08 355.08 691.76 457.62"/><polygon class="cls-5" points="691.76 457.62 832.08 526.87 832.08 605.13 691.76 698.67 691.76 457.62"/><polygon class="cls-6" points="717.73 470.43 832.08 470.43 832.08 526.87 717.73 470.43"/><polygon class="cls-4" points="866.05 337.09 866.05 578.14 1006.37 484.6 1006.37 234.55 866.05 337.09"/><polygon class="cls-5" points="866.05 337.09 1006.37 406.35 1006.37 484.6 866.05 578.14 866.05 337.09"/><polygon class="cls-6" points="892.01 349.9 1006.37 349.9 1006.37 406.35 892.01 349.9"/><polygon class="cls-4" points="1040.34 225.56 1040.34 466.61 1180.66 373.07 1180.66 123.02 1040.34 225.56"/><polygon class="cls-5" points="1040.34 225.56 1180.66 294.81 1180.66 373.07 1040.34 466.61 1040.34 225.56"/><polygon class="cls-6" points="1066.31 238.37 1180.66 238.37 1180.66 294.81 1066.31 238.37"/><polygon class="cls-4" points="1211.12 105.03 1211.12 346.08 1351.44 252.54 1351.44 2.49 1211.12 105.03"/><polygon class="cls-5" points="1211.12 105.03 1351.44 174.28 1351.44 252.54 1211.12 346.08 1211.12 105.03"/><polygon class="cls-6" points="1237.09 117.84 1351.44 117.84 1351.44 174.28 1237.09 117.84"/><polygon class="cls-4" points="1384.73 0 1381.9 2.07 1381.9 243.13 1522.22 149.58 1522.22 0 1384.73 0"/><polygon class="cls-5" points="1381.9 243.12 1522.21 149.58 1522.21 71.33 1381.9 2.07 1381.9 243.12"/><polygon class="cls-6" points="1407.86 14.89 1522.22 14.89 1522.22 71.33 1407.86 14.89"/><polygon class="cls-4" points="1552.68 0 1552.68 147.46 1692.99 53.92 1692.99 0 1552.68 0"/><polygon class="cls-5" points="1552.68 0 1552.68 147.46 1692.99 53.92 1692.99 0 1552.68 0"/><polygon class="cls-4" points="1723.46 0 1723.46 51.8 1801.16 0 1723.46 0"/><polygon class="cls-5" points="1723.46 0 1723.46 51.8 1801.16 0 1723.46 0"/><polygon class="cls-4" points="0 1315.36 0 1556.42 140.31 1462.87 140.31 1212.82 0 1315.36"/><polygon class="cls-5" points="0 1556.42 140.31 1462.87 140.31 1384.62 0 1315.36 0 1556.42"/><polygon class="cls-6" points="25.96 1328.18 140.31 1328.18 140.31 1384.62 25.96 1328.18"/><polygon class="cls-4" points="170.78 1194.84 170.78 1435.89 311.09 1342.35 311.09 1092.3 170.78 1194.84"/><polygon class="cls-5" points="170.78 1194.84 311.09 1264.09 311.09 1342.35 170.78 1435.89 170.78 1194.84"/><polygon class="cls-6" points="196.74 1207.65 311.09 1207.65 311.09 1264.09 196.74 1207.65"/><polygon class="cls-4" points="341.56 1083.3 341.56 1324.36 481.87 1230.81 481.87 980.76 341.56 1083.3"/><polygon class="cls-5" points="341.56 1083.3 481.87 1152.56 481.87 1230.81 341.56 1324.36 341.56 1083.3"/><polygon class="cls-6" points="367.52 1096.12 481.87 1096.12 481.87 1152.56 367.52 1096.12"/><polygon class="cls-4" points="512.34 962.77 512.34 1203.83 652.65 1110.29 652.65 860.24 512.34 962.77"/><polygon class="cls-5" points="512.34 962.77 652.65 1032.03 652.65 1110.29 512.34 1203.83 512.34 962.77"/><polygon class="cls-6" points="538.3 975.59 652.65 975.59 652.65 1032.03 538.3 975.59"/><polygon class="cls-4" points="691.76 842.25 691.76 1083.3 832.08 989.76 832.08 739.71 691.76 842.25"/><polygon class="cls-5" points="691.76 842.25 832.08 911.5 832.08 989.76 691.76 1083.3 691.76 842.25"/><polygon class="cls-6" points="717.73 855.06 832.08 855.06 832.08 911.5 717.73 855.06"/><polygon class="cls-4" points="866.05 721.72 866.05 962.77 1006.37 869.23 1006.37 619.18 866.05 721.72"/><polygon class="cls-5" points="866.05 721.72 1006.37 790.98 1006.37 869.23 866.05 962.77 866.05 721.72"/><polygon class="cls-6" points="892.01 734.53 1006.37 734.53 1006.37 790.98 892.01 734.53"/><polygon class="cls-4" points="1040.34 610.19 1040.34 851.24 1180.66 757.7 1180.66 507.65 1040.34 610.19"/><polygon class="cls-5" points="1040.34 610.19 1180.66 679.44 1180.66 757.7 1040.34 851.24 1040.34 610.19"/><polygon class="cls-6" points="1066.31 623 1180.66 623 1180.66 679.44 1066.31 623"/><polygon class="cls-4" points="1211.12 489.66 1211.12 730.71 1351.44 637.17 1351.44 387.12 1211.12 489.66"/><polygon class="cls-5" points="1211.12 489.66 1351.44 558.92 1351.44 637.17 1211.12 730.71 1211.12 489.66"/><polygon class="cls-6" points="1237.09 502.48 1351.44 502.48 1351.44 558.92 1237.09 502.48"/><polygon class="cls-4" points="1381.9 374.62 1381.9 615.67 1522.21 522.13 1522.21 272.07 1381.9 374.62"/><polygon class="cls-5" points="1381.9 374.62 1522.21 443.87 1522.21 522.13 1381.9 615.67 1381.9 374.62"/><polygon class="cls-6" points="1407.86 387.43 1522.22 387.43 1522.22 443.87 1407.86 387.43"/><polygon class="cls-4" points="1552.68 263.08 1552.68 504.14 1692.99 410.59 1692.99 160.54 1552.68 263.08"/><polygon class="cls-5" points="1552.68 263.08 1692.99 332.34 1692.99 410.59 1552.68 504.14 1552.68 263.08"/><polygon class="cls-6" points="1578.64 275.9 1692.99 275.9 1692.99 332.34 1578.64 275.9"/><polygon class="cls-4" points="1723.46 151.55 1723.46 392.61 1863.77 299.06 1863.77 49.01 1723.46 151.55"/><polygon class="cls-5" points="1723.46 151.55 1863.77 220.81 1863.77 299.06 1723.46 392.61 1723.46 151.55"/><polygon class="cls-6" points="1749.42 164.36 1863.77 164.36 1863.77 220.81 1749.42 164.36"/><polygon class="cls-4" points="1949 0 1894.23 40.02 1894.23 281.07 2034.56 187.53 2034.56 0 1949 0"/><polygon class="cls-5" points="1894.24 40.02 2034.55 109.27 2034.55 187.53 1894.24 281.07 1894.24 40.02"/><polygon class="cls-6" points="1920.2 52.83 2034.55 52.83 2034.55 109.27 1920.2 52.83"/><polygon class="cls-4" points="1381.9 731.95 1381.9 973.01 1522.21 879.47 1522.21 629.41 1381.9 731.95"/><polygon class="cls-5" points="1381.9 731.95 1522.21 801.21 1522.21 879.47 1381.9 973.01 1381.9 731.95"/><polygon class="cls-6" points="1407.86 744.77 1522.22 744.77 1522.22 801.21 1407.86 744.77"/><polygon class="cls-4" points="1552.68 620.42 1552.68 861.48 1692.99 767.93 1692.99 517.88 1552.68 620.42"/><polygon class="cls-5" points="1552.68 620.42 1692.99 689.67 1692.99 767.93 1552.68 861.48 1552.68 620.42"/><polygon class="cls-6" points="1578.64 633.23 1692.99 633.23 1692.99 689.67 1578.64 633.23"/><polygon class="cls-4" points="1723.46 508.89 1723.46 749.94 1863.77 656.4 1863.77 406.35 1723.46 508.89"/><polygon class="cls-5" points="1723.46 508.89 1863.77 578.14 1863.77 656.4 1723.46 749.94 1723.46 508.89"/><polygon class="cls-6" points="1749.42 521.7 1863.77 521.7 1863.77 578.14 1749.42 521.7"/><polygon class="cls-4" points="1894.24 397.35 1894.24 638.41 2034.55 544.87 2034.55 294.81 1894.24 397.35"/><polygon class="cls-5" points="1894.24 397.35 2034.55 466.61 2034.55 544.87 1894.24 638.41 1894.24 397.35"/><polygon class="cls-6" points="1920.2 410.17 2034.55 410.17 2034.55 466.61 1920.2 410.17"/><polygon class="cls-4" points="2065.02 282.86 2065.02 523.92 2205.33 430.38 2205.33 180.33 2065.02 282.86"/><polygon class="cls-5" points="2065.02 282.86 2205.33 352.12 2205.33 430.38 2065.02 523.92 2065.02 282.86"/><polygon class="cls-6" points="2090.98 295.68 2205.33 295.68 2205.33 352.12 2090.98 295.68"/><polygon class="cls-4" points="2235.8 171.33 2235.8 412.39 2376.11 318.84 2376.11 68.79 2235.8 171.33"/><polygon class="cls-5" points="2235.8 171.33 2376.11 240.59 2376.11 318.84 2235.8 412.39 2235.8 171.33"/><polygon class="cls-6" points="2261.76 184.15 2376.11 184.15 2376.11 240.59 2261.76 184.15"/><polygon class="cls-4" points="2065.02 0 2065.02 184.83 2205.33 91.28 2205.33 0 2065.02 0"/><polygon class="cls-5" points="2065.02 0 2065.02 184.83 2205.33 91.28 2205.33 13.03 2178.93 0 2065.02 0"/><polygon class="cls-6" points="2178.94 0 2205.33 13.03 2205.33 0 2178.94 0"/><polygon class="cls-4" points="2235.8 0 2235.8 73.29 2345.73 0 2235.8 0"/><polygon class="cls-5" points="2235.8 0 2235.8 73.29 2345.73 0 2235.8 0"/><polygon class="cls-4" points="2488.4 0 2406.57 59.8 2406.57 300.85 2546.89 207.31 2546.89 0 2488.4 0"/><polygon class="cls-5" points="2406.57 59.8 2546.89 129.06 2546.89 207.31 2406.57 300.85 2406.57 59.8"/><polygon class="cls-6" points="2432.54 72.61 2546.89 72.61 2546.89 129.06 2432.54 72.61"/><polygon class="cls-4" points="2577.36 0 2577.36 189.32 2717.67 95.78 2717.67 0 2577.36 0"/><polygon class="cls-5" points="2577.36 0 2577.36 189.32 2717.67 95.78 2717.67 17.53 2682.16 0 2577.36 0"/><polygon class="cls-6" points="2682.16 0 2717.67 17.53 2717.67 0 2682.16 0"/><polygon class="cls-4" points="2743.55 0 2743.55 79 2862.06 0 2743.55 0"/><polygon class="cls-5" points="2743.55 0 2743.55 79 2862.06 0 2743.55 0"/><polygon class="cls-4" points="1381.9 1123.79 1381.9 1364.85 1522.21 1271.31 1522.21 1021.26 1381.9 1123.79"/><polygon class="cls-5" points="1381.9 1123.79 1522.21 1193.05 1522.21 1271.31 1381.9 1364.85 1381.9 1123.79"/><polygon class="cls-6" points="1407.86 1136.61 1522.22 1136.61 1522.22 1193.05 1407.86 1136.61"/><polygon class="cls-4" points="1552.68 1012.26 1552.68 1253.32 1692.99 1159.77 1692.99 909.72 1552.68 1012.26"/><polygon class="cls-5" points="1552.68 1012.26 1692.99 1081.52 1692.99 1159.77 1552.68 1253.32 1552.68 1012.26"/><polygon class="cls-6" points="1578.64 1025.08 1692.99 1025.08 1692.99 1081.52 1578.64 1025.08"/><polygon class="cls-4" points="1723.46 900.73 1723.46 1141.78 1863.77 1048.24 1863.77 798.19 1723.46 900.73"/><polygon class="cls-5" points="1723.46 900.73 1863.77 969.99 1863.77 1048.24 1723.46 1141.78 1723.46 900.73"/><polygon class="cls-6" points="1749.42 913.54 1863.77 913.54 1863.77 969.99 1749.42 913.54"/><polygon class="cls-4" points="1894.24 789.19 1894.24 1030.25 2034.55 936.71 2034.55 686.66 1894.24 789.19"/><polygon class="cls-5" points="1894.24 789.19 2034.55 858.45 2034.55 936.71 1894.24 1030.25 1894.24 789.19"/><polygon class="cls-6" points="1920.2 802.01 2034.55 802.01 2034.55 858.46 1920.2 802.01"/><polygon class="cls-4" points="2065.02 674.71 2065.02 915.76 2205.33 822.22 2205.33 572.17 2065.02 674.71"/><polygon class="cls-5" points="2065.02 674.71 2205.33 743.97 2205.33 822.22 2065.02 915.76 2065.02 674.71"/><polygon class="cls-6" points="2090.98 687.52 2205.33 687.52 2205.33 743.97 2090.98 687.52"/><polygon class="cls-4" points="2235.8 563.17 2235.8 804.23 2376.11 710.69 2376.11 460.64 2235.8 563.17"/><polygon class="cls-5" points="2235.8 563.17 2376.11 632.43 2376.11 710.69 2235.8 804.23 2235.8 563.17"/><polygon class="cls-6" points="2261.76 575.99 2376.11 575.99 2376.11 632.43 2261.76 575.99"/><polygon class="cls-4" points="2406.57 451.64 2406.57 692.7 2546.89 599.16 2546.89 349.1 2406.57 451.64"/><polygon class="cls-5" points="2406.57 451.64 2546.89 520.9 2546.89 599.16 2406.57 692.7 2406.57 451.64"/><polygon class="cls-6" points="2432.54 464.46 2546.89 464.46 2546.89 520.9 2432.54 464.46"/><polygon class="cls-4" points="2577.35 340.11 2577.35 581.17 2717.67 487.62 2717.67 237.57 2577.35 340.11"/><polygon class="cls-5" points="2577.35 340.11 2717.67 409.37 2717.67 487.62 2577.35 581.17 2577.35 340.11"/><polygon class="cls-6" points="2603.32 352.92 2717.67 352.92 2717.67 409.37 2603.32 352.92"/><polygon class="cls-4" points="2748.13 228.99 2748.13 470.05 2888.45 376.5 2888.45 126.45 2748.13 228.99"/><polygon class="cls-5" points="2748.13 228.99 2888.45 298.25 2888.45 376.5 2748.13 470.05 2748.13 228.99"/><polygon class="cls-6" points="2774.09 241.8 2888.45 241.8 2888.45 298.25 2774.09 241.8"/><polygon class="cls-4" points="2748.13 578.64 2748.13 819.7 2888.45 726.15 2888.45 476.1 2748.13 578.64"/><polygon class="cls-5" points="2748.13 578.64 2888.45 647.9 2888.45 726.15 2748.13 819.7 2748.13 578.64"/><polygon class="cls-6" points="2774.09 591.46 2888.45 591.46 2888.45 647.9 2774.09 591.46"/><polygon class="cls-4" points="2748.13 960.99 2748.13 1202.05 2888.45 1108.51 2888.45 858.46 2748.13 960.99"/><polygon class="cls-5" points="2748.13 960.99 2888.45 1030.25 2888.45 1108.51 2748.13 1202.05 2748.13 960.99"/><polygon class="cls-6" points="2774.09 973.81 2888.45 973.81 2888.45 1030.25 2774.09 973.81"/><polygon class="cls-4" points="2748.13 1322.27 2748.13 1563.33 2888.45 1469.78 2888.45 1219.73 2748.13 1322.27"/><polygon class="cls-5" points="2748.13 1322.27 2888.45 1391.53 2888.45 1469.78 2748.13 1563.33 2748.13 1322.27"/><polygon class="cls-6" points="2774.09 1335.09 2888.45 1335.09 2888.45 1391.53 2774.09 1335.09"/><polygon class="cls-4" points="2748.13 1714.11 2748.13 1955.17 2888.45 1861.63 2888.45 1611.58 2748.13 1714.11"/><polygon class="cls-5" points="2748.13 1714.11 2888.45 1783.37 2888.45 1861.63 2748.13 1955.17 2748.13 1714.11"/><polygon class="cls-6" points="2774.09 1726.93 2888.45 1726.93 2888.45 1783.37 2774.09 1726.93"/><polygon class="cls-4" points="2748.13 2070.84 2748.13 2311.89 2888.45 2218.35 2888.45 1968.3 2748.13 2070.84"/><polygon class="cls-5" points="2748.13 2070.84 2888.45 2140.09 2888.45 2218.35 2748.13 2311.89 2748.13 2070.84"/><polygon class="cls-6" points="2774.09 2083.65 2888.45 2083.65 2888.45 2140.09 2774.09 2083.65"/><polygon class="cls-4" points="2748.13 2450.4 2748.13 2691.46 2888.45 2597.91 2888.45 2347.86 2748.13 2450.4"/><polygon class="cls-5" points="2748.13 2450.4 2888.45 2519.66 2888.45 2597.91 2748.13 2691.46 2748.13 2450.4"/><polygon class="cls-6" points="2774.09 2463.22 2888.45 2463.22 2888.45 2519.66 2774.09 2463.22"/><polygon class="cls-4" points="2748.13 2802.49 2748.13 3043.55 2888.45 2950.01 2888.45 2699.96 2748.13 2802.49"/><polygon class="cls-5" points="2748.13 2802.49 2888.45 2871.76 2888.45 2950.01 2748.13 3043.55 2748.13 2802.49"/><polygon class="cls-6" points="2774.09 2815.31 2888.45 2815.31 2888.45 2871.76 2774.09 2815.31"/><polygon class="cls-4" points="2748.13 3165.13 2748.13 3406.18 2888.45 3312.64 2888.45 3062.59 2748.13 3165.13"/><polygon class="cls-5" points="2748.13 3165.13 2888.45 3234.39 2888.45 3312.64 2748.13 3406.18 2748.13 3165.13"/><polygon class="cls-6" points="2774.09 3177.94 2888.45 3177.94 2888.45 3234.39 2774.09 3177.94"/><polygon class="cls-4" points="2748.13 3525.24 2748.13 3739.42 2788.43 3739.42 2888.45 3672.75 2888.45 3422.7 2748.13 3525.24"/><polygon class="cls-5" points="2748.13 3739.42 2788.43 3739.42 2888.45 3672.75 2888.45 3594.49 2748.13 3525.24 2748.13 3739.42"/><polygon class="cls-6" points="2774.09 3538.05 2888.45 3538.05 2888.45 3594.49 2774.09 3538.05"/><polygon class="cls-4" points="0 547.03 0 788.09 140.31 694.54 140.31 444.49 0 547.03"/><polygon class="cls-5" points="0 788.09 140.31 694.54 140.31 616.29 0 547.03 0 788.09"/><polygon class="cls-6" points="25.96 559.85 140.31 559.85 140.31 616.29 25.96 559.85"/><polygon class="cls-4" points="170.78 435.5 170.78 676.55 311.09 583.01 311.09 332.96 170.78 435.5"/><polygon class="cls-5" points="170.78 435.5 311.09 504.75 311.09 583.01 170.78 676.55 170.78 435.5"/><polygon class="cls-6" points="196.74 448.31 311.09 448.31 311.09 504.76 196.74 448.31"/><polygon class="cls-4" points="341.56 323.97 341.56 565.02 481.87 471.48 481.87 221.43 341.56 323.97"/><polygon class="cls-5" points="341.56 323.97 481.87 393.22 481.87 471.48 341.56 565.02 341.56 323.97"/><polygon class="cls-6" points="367.52 336.78 481.87 336.78 481.87 393.22 367.52 336.78"/><polygon class="cls-4" points="512.34 212.43 512.34 453.49 652.65 359.94 652.65 109.89 512.34 212.43"/><polygon class="cls-5" points="512.34 212.43 652.65 281.69 652.65 359.94 512.34 453.49 512.34 212.43"/><polygon class="cls-6" points="538.3 225.25 652.65 225.25 652.65 281.69 538.3 225.25"/><polygon class="cls-4" points="817.15 0 683.12 97.95 683.12 339 823.43 245.46 823.43 0 817.15 0"/><polygon class="cls-5" points="683.12 97.94 823.43 167.2 823.43 245.46 683.12 339 683.12 97.94"/><polygon class="cls-6" points="709.08 110.76 823.43 110.76 823.43 167.2 709.08 110.76"/><polygon class="cls-4" points="853.89 0 853.89 227.47 994.21 133.92 994.21 0 853.89 0"/><polygon class="cls-5" points="853.89 0 853.89 227.47 994.21 133.92 994.21 55.67 881.42 0 853.89 0"/><polygon class="cls-6" points="881.42 0 994.21 55.67 994.21 0 881.42 0"/><polygon class="cls-4" points="1024.67 0 1024.67 115.93 1164.99 22.39 1164.99 0 1024.67 0"/><polygon class="cls-5" points="1024.67 0 1024.67 115.93 1164.99 22.39 1164.99 0 1024.67 0"/><polygon class="cls-4" points="0 167.64 0 408.69 140.31 315.14 140.31 65.1 0 167.64"/><polygon class="cls-5" points="0 408.69 140.31 315.14 140.31 236.89 0 167.64 0 408.69"/><polygon class="cls-6" points="25.96 180.45 140.31 180.45 140.31 236.89 25.96 180.45"/><polygon class="cls-4" points="247.55 0 170.78 56.1 170.78 297.16 311.09 203.61 311.09 0 247.55 0"/><polygon class="cls-5" points="170.78 56.1 311.09 125.36 311.09 203.62 170.78 297.16 170.78 56.1"/><polygon class="cls-6" points="196.74 68.92 311.09 68.92 311.09 125.36 196.74 68.92"/><polygon class="cls-4" points="341.56 0 341.56 185.63 481.87 92.08 481.87 0 341.56 0"/><polygon class="cls-5" points="341.56 0 341.56 185.63 481.87 92.08 481.87 13.83 453.86 0 341.56 0"/><polygon class="cls-6" points="453.86 0 481.88 13.83 481.88 0 453.86 0"/><polygon class="cls-4" points="512.34 0 512.34 74.09 623.48 0 512.34 0"/><polygon class="cls-5" points="512.34 0 512.34 74.09 623.48 0 512.34 0"/><polygon class="cls-4" points="0 0 0 29.29 43.94 0 0 0"/><polygon class="cls-5" points="0 0 0 29.29 43.94 0 0 0"/><polygon class="cls-4" points="1381.9 1476.88 1381.9 1717.94 1522.21 1624.39 1522.21 1374.34 1381.9 1476.88"/><polygon class="cls-5" points="1381.9 1476.88 1522.21 1546.14 1522.21 1624.39 1381.9 1717.94 1381.9 1476.88"/><polygon class="cls-6" points="1407.86 1489.69 1522.22 1489.69 1522.22 1546.14 1407.86 1489.69"/><polygon class="cls-4" points="1552.68 1365.35 1552.68 1606.4 1692.99 1512.86 1692.99 1262.81 1552.68 1365.35"/><polygon class="cls-5" points="1552.68 1365.35 1692.99 1434.6 1692.99 1512.86 1552.68 1606.4 1552.68 1365.35"/><polygon class="cls-6" points="1578.64 1378.16 1692.99 1378.16 1692.99 1434.6 1578.64 1378.16"/><polygon class="cls-4" points="1723.46 1253.81 1723.46 1494.87 1863.77 1401.33 1863.77 1151.28 1723.46 1253.81"/><polygon class="cls-5" points="1723.46 1253.81 1863.77 1323.07 1863.77 1401.33 1723.46 1494.87 1723.46 1253.81"/><polygon class="cls-6" points="1749.42 1266.63 1863.77 1266.63 1863.77 1323.07 1749.42 1266.63"/><polygon class="cls-4" points="1894.24 1142.28 1894.24 1383.34 2034.55 1289.79 2034.55 1039.74 1894.24 1142.28"/><polygon class="cls-5" points="1894.24 1142.28 2034.55 1211.54 2034.55 1289.79 1894.24 1383.34 1894.24 1142.28"/><polygon class="cls-6" points="1920.2 1155.09 2034.55 1155.09 2034.55 1211.54 1920.2 1155.09"/><polygon class="cls-4" points="2065.02 1027.79 2065.02 1268.85 2205.33 1175.31 2205.33 925.25 2065.02 1027.79"/><polygon class="cls-5" points="2065.02 1027.79 2205.33 1097.05 2205.33 1175.31 2065.02 1268.85 2065.02 1027.79"/><polygon class="cls-6" points="2090.98 1040.61 2205.33 1040.61 2205.33 1097.05 2090.98 1040.61"/><polygon class="cls-4" points="2235.8 916.26 2235.8 1157.32 2376.11 1063.77 2376.11 813.72 2235.8 916.26"/><polygon class="cls-5" points="2235.8 916.26 2376.11 985.51 2376.11 1063.77 2235.8 1157.32 2235.8 916.26"/><polygon class="cls-6" points="2261.76 929.07 2376.11 929.07 2376.11 985.52 2261.76 929.07"/><polygon class="cls-4" points="2406.57 804.73 2406.57 1045.78 2546.89 952.24 2546.89 702.19 2406.57 804.73"/><polygon class="cls-5" points="2406.57 804.73 2546.89 873.98 2546.89 952.24 2406.57 1045.78 2406.57 804.73"/><polygon class="cls-6" points="2432.54 817.54 2546.89 817.54 2546.89 873.98 2432.54 817.54"/><polygon class="cls-4" points="2577.35 693.19 2577.35 934.25 2717.67 840.71 2717.67 590.65 2577.35 693.19"/><polygon class="cls-5" points="2577.35 693.19 2717.67 762.45 2717.67 840.71 2577.35 934.25 2577.35 693.19"/><polygon class="cls-6" points="2603.32 706.01 2717.67 706.01 2717.67 762.45 2603.32 706.01"/><polygon class="cls-4" points="1381.9 1856.88 1381.9 2097.94 1522.21 2004.39 1522.21 1754.34 1381.9 1856.88"/><polygon class="cls-5" points="1381.9 1856.88 1522.21 1926.14 1522.21 2004.39 1381.9 2097.94 1381.9 1856.88"/><polygon class="cls-6" points="1407.86 1869.7 1522.22 1869.7 1522.22 1926.14 1407.86 1869.7"/><polygon class="cls-4" points="1552.68 1745.35 1552.68 1986.4 1692.99 1892.86 1692.99 1642.81 1552.68 1745.35"/><polygon class="cls-5" points="1552.68 1745.35 1692.99 1814.61 1692.99 1892.86 1552.68 1986.4 1552.68 1745.35"/><polygon class="cls-6" points="1578.64 1758.16 1692.99 1758.16 1692.99 1814.61 1578.64 1758.16"/><polygon class="cls-4" points="1723.46 1633.82 1723.46 1874.87 1863.77 1781.33 1863.77 1531.28 1723.46 1633.82"/><polygon class="cls-5" points="1723.46 1633.82 1863.77 1703.07 1863.77 1781.33 1723.46 1874.87 1723.46 1633.82"/><polygon class="cls-6" points="1749.42 1646.63 1863.77 1646.63 1863.77 1703.07 1749.42 1646.63"/><polygon class="cls-4" points="1894.24 1522.28 1894.24 1763.34 2034.55 1669.8 2034.55 1419.74 1894.24 1522.28"/><polygon class="cls-5" points="1894.24 1522.28 2034.55 1591.54 2034.55 1669.8 1894.24 1763.34 1894.24 1522.28"/><polygon class="cls-6" points="1920.2 1535.1 2034.55 1535.1 2034.55 1591.54 1920.2 1535.1"/><polygon class="cls-4" points="2065.02 1407.8 2065.02 1648.85 2205.33 1555.31 2205.33 1305.25 2065.02 1407.8"/><polygon class="cls-5" points="2065.02 1407.8 2205.33 1477.05 2205.33 1555.31 2065.02 1648.85 2065.02 1407.8"/><polygon class="cls-6" points="2090.98 1420.61 2205.33 1420.61 2205.33 1477.05 2090.98 1420.61"/><polygon class="cls-4" points="2235.8 1296.26 2235.8 1537.32 2376.11 1443.77 2376.11 1193.72 2235.8 1296.26"/><polygon class="cls-5" points="2235.8 1296.26 2376.11 1365.52 2376.11 1443.77 2235.8 1537.32 2235.8 1296.26"/><polygon class="cls-6" points="2261.76 1309.08 2376.11 1309.08 2376.11 1365.52 2261.76 1309.08"/><polygon class="cls-4" points="2406.57 1184.73 2406.57 1425.79 2546.89 1332.24 2546.89 1082.19 2406.57 1184.73"/><polygon class="cls-5" points="2406.57 1184.73 2546.89 1253.98 2546.89 1332.24 2406.57 1425.79 2406.57 1184.73"/><polygon class="cls-6" points="2432.54 1197.54 2546.89 1197.54 2546.89 1253.98 2432.54 1197.54"/><polygon class="cls-4" points="2577.35 1073.19 2577.35 1314.25 2717.67 1220.71 2717.67 970.66 2577.35 1073.19"/><polygon class="cls-5" points="2577.35 1073.19 2717.67 1142.45 2717.67 1220.71 2577.35 1314.25 2577.35 1073.19"/><polygon class="cls-6" points="2603.32 1086.01 2717.67 1086.01 2717.67 1142.45 2603.32 1086.01"/><polygon class="cls-4" points="1381.9 2219.32 1381.9 2460.38 1522.21 2366.83 1522.21 2116.78 1381.9 2219.32"/><polygon class="cls-5" points="1381.9 2219.32 1522.21 2288.58 1522.21 2366.83 1381.9 2460.38 1381.9 2219.32"/><polygon class="cls-6" points="1407.86 2232.14 1522.22 2232.14 1522.22 2288.58 1407.86 2232.14"/><polygon class="cls-4" points="1552.68 2107.79 1552.68 2348.84 1692.99 2255.3 1692.99 2005.25 1552.68 2107.79"/><polygon class="cls-5" points="1552.68 2107.79 1692.99 2177.05 1692.99 2255.3 1552.68 2348.84 1552.68 2107.79"/><polygon class="cls-6" points="1578.64 2120.6 1692.99 2120.6 1692.99 2177.05 1578.64 2120.6"/><polygon class="cls-4" points="1723.46 1996.26 1723.46 2237.31 1863.77 2143.77 1863.77 1893.72 1723.46 1996.26"/><polygon class="cls-5" points="1723.46 1996.26 1863.77 2065.51 1863.77 2143.77 1723.46 2237.31 1723.46 1996.26"/><polygon class="cls-6" points="1749.42 2009.07 1863.77 2009.07 1863.77 2065.51 1749.42 2009.07"/><polygon class="cls-4" points="1894.24 1884.72 1894.24 2125.78 2034.55 2032.24 2034.55 1782.18 1894.24 1884.72"/><polygon class="cls-5" points="1894.24 1884.72 2034.55 1953.98 2034.55 2032.24 1894.24 2125.78 1894.24 1884.72"/><polygon class="cls-6" points="1920.2 1897.54 2034.55 1897.54 2034.55 1953.98 1920.2 1897.54"/><polygon class="cls-4" points="2065.02 1770.24 2065.02 2011.29 2205.33 1917.75 2205.33 1667.69 2065.02 1770.24"/><polygon class="cls-5" points="2065.02 1770.24 2205.33 1839.49 2205.33 1917.75 2065.02 2011.29 2065.02 1770.24"/><polygon class="cls-6" points="2090.98 1783.05 2205.33 1783.05 2205.33 1839.49 2090.98 1783.05"/><polygon class="cls-4" points="2235.8 1658.7 2235.8 1899.76 2376.11 1806.21 2376.11 1556.16 2235.8 1658.7"/><polygon class="cls-5" points="2235.8 1658.7 2376.11 1727.96 2376.11 1806.21 2235.8 1899.76 2235.8 1658.7"/><polygon class="cls-6" points="2261.76 1671.52 2376.11 1671.52 2376.11 1727.96 2261.76 1671.52"/><polygon class="cls-4" points="2406.57 1547.17 2406.57 1788.23 2546.89 1694.68 2546.89 1444.63 2406.57 1547.17"/><polygon class="cls-5" points="2406.57 1547.17 2546.89 1616.42 2546.89 1694.68 2406.57 1788.23 2406.57 1547.17"/><polygon class="cls-6" points="2432.54 1559.98 2546.89 1559.98 2546.89 1616.43 2432.54 1559.98"/><polygon class="cls-4" points="2577.35 1435.64 2577.35 1676.69 2717.67 1583.15 2717.67 1333.1 2577.35 1435.64"/><polygon class="cls-5" points="2577.35 1435.64 2717.67 1504.89 2717.67 1583.15 2577.35 1676.69 2577.35 1435.64"/><polygon class="cls-6" points="2603.32 1448.45 2717.67 1448.45 2717.67 1504.89 2603.32 1448.45"/><polygon class="cls-4" points="1381.9 2607.65 1381.9 2848.71 1522.21 2755.16 1522.21 2505.11 1381.9 2607.65"/><polygon class="cls-5" points="1381.9 2607.65 1522.21 2676.91 1522.21 2755.16 1381.9 2848.71 1381.9 2607.65"/><polygon class="cls-6" points="1407.86 2620.47 1522.22 2620.47 1522.22 2676.91 1407.86 2620.47"/><polygon class="cls-4" points="1552.68 2496.12 1552.68 2737.18 1692.99 2643.63 1692.99 2393.58 1552.68 2496.12"/><polygon class="cls-5" points="1552.68 2496.12 1692.99 2565.38 1692.99 2643.63 1552.68 2737.18 1552.68 2496.12"/><polygon class="cls-6" points="1578.64 2508.93 1692.99 2508.93 1692.99 2565.38 1578.64 2508.93"/><polygon class="cls-4" points="1723.46 2384.59 1723.46 2625.64 1863.77 2532.1 1863.77 2282.05 1723.46 2384.59"/><polygon class="cls-5" points="1723.46 2384.59 1863.77 2453.84 1863.77 2532.1 1723.46 2625.64 1723.46 2384.59"/><polygon class="cls-6" points="1749.42 2397.4 1863.77 2397.4 1863.77 2453.84 1749.42 2397.4"/><polygon class="cls-4" points="1894.24 2273.05 1894.24 2514.11 2034.55 2420.57 2034.55 2170.51 1894.24 2273.05"/><polygon class="cls-5" points="1894.24 2273.05 2034.55 2342.31 2034.55 2420.57 1894.24 2514.11 1894.24 2273.05"/><polygon class="cls-6" points="1920.2 2285.87 2034.55 2285.87 2034.55 2342.31 1920.2 2285.87"/><polygon class="cls-4" points="2065.02 2158.57 2065.02 2399.62 2205.33 2306.08 2205.33 2056.03 2065.02 2158.57"/><polygon class="cls-5" points="2065.02 2158.57 2205.33 2227.82 2205.33 2306.08 2065.02 2399.62 2065.02 2158.57"/><polygon class="cls-6" points="2090.98 2171.38 2205.33 2171.38 2205.33 2227.82 2090.98 2171.38"/><polygon class="cls-4" points="2235.8 2047.03 2235.8 2288.09 2376.11 2194.54 2376.11 1944.49 2235.8 2047.03"/><polygon class="cls-5" points="2235.8 2047.03 2376.11 2116.29 2376.11 2194.54 2235.8 2288.09 2235.8 2047.03"/><polygon class="cls-6" points="2261.76 2059.85 2376.11 2059.85 2376.11 2116.29 2261.76 2059.85"/><polygon class="cls-4" points="2406.57 1935.5 2406.57 2176.55 2546.89 2083.01 2546.89 1832.96 2406.57 1935.5"/><polygon class="cls-5" points="2406.57 1935.5 2546.89 2004.76 2546.89 2083.01 2406.57 2176.55 2406.57 1935.5"/><polygon class="cls-6" points="2432.54 1948.32 2546.89 1948.32 2546.89 2004.76 2432.54 1948.32"/><polygon class="cls-4" points="2577.35 1823.96 2577.35 2065.02 2717.67 1971.48 2717.67 1721.43 2577.35 1823.96"/><polygon class="cls-5" points="2577.35 1823.96 2717.67 1893.22 2717.67 1971.48 2577.35 2065.02 2577.35 1823.96"/><polygon class="cls-6" points="2603.32 1836.78 2717.67 1836.78 2717.67 1893.22 2603.32 1836.78"/><polygon class="cls-4" points="1381.9 2971.27 1381.9 3212.33 1522.21 3118.79 1522.21 2868.73 1381.9 2971.27"/><polygon class="cls-5" points="1381.9 2971.27 1522.21 3040.53 1522.21 3118.79 1381.9 3212.33 1381.9 2971.27"/><polygon class="cls-6" points="1407.86 2984.09 1522.22 2984.09 1522.22 3040.53 1407.86 2984.09"/><polygon class="cls-4" points="1552.68 2859.74 1552.68 3100.8 1692.99 3007.25 1692.99 2757.2 1552.68 2859.74"/><polygon class="cls-5" points="1552.68 2859.74 1692.99 2929 1692.99 3007.25 1552.68 3100.8 1552.68 2859.74"/><polygon class="cls-6" points="1578.64 2872.55 1692.99 2872.55 1692.99 2929 1578.64 2872.55"/><polygon class="cls-4" points="1723.46 2748.21 1723.46 2989.26 1863.77 2895.72 1863.77 2645.67 1723.46 2748.21"/><polygon class="cls-5" points="1723.46 2748.21 1863.77 2817.46 1863.77 2895.72 1723.46 2989.26 1723.46 2748.21"/><polygon class="cls-6" points="1749.42 2761.02 1863.77 2761.02 1863.77 2817.47 1749.42 2761.02"/><polygon class="cls-4" points="1894.24 2636.68 1894.24 2877.73 2034.55 2784.19 2034.55 2534.14 1894.24 2636.68"/><polygon class="cls-5" points="1894.24 2636.68 2034.55 2705.93 2034.55 2784.19 1894.24 2877.73 1894.24 2636.68"/><polygon class="cls-6" points="1920.2 2649.49 2034.55 2649.49 2034.55 2705.93 1920.2 2649.49"/><polygon class="cls-4" points="2065.02 2522.19 2065.02 2763.24 2205.33 2669.7 2205.33 2419.65 2065.02 2522.19"/><polygon class="cls-5" points="2065.02 2522.19 2205.33 2591.44 2205.33 2669.7 2065.02 2763.24 2065.02 2522.19"/><polygon class="cls-6" points="2090.98 2535 2205.33 2535 2205.33 2591.44 2090.98 2535"/><polygon class="cls-4" points="2235.8 2410.65 2235.8 2651.71 2376.11 2558.17 2376.11 2308.12 2235.8 2410.65"/><polygon class="cls-5" points="2235.8 2410.65 2376.11 2479.91 2376.11 2558.17 2235.8 2651.71 2235.8 2410.65"/><polygon class="cls-6" points="2261.76 2423.47 2376.11 2423.47 2376.11 2479.91 2261.76 2423.47"/><polygon class="cls-4" points="2406.57 2299.12 2406.57 2540.18 2546.89 2446.63 2546.89 2196.58 2406.57 2299.12"/><polygon class="cls-5" points="2406.57 2299.12 2546.89 2368.38 2546.89 2446.63 2406.57 2540.18 2406.57 2299.12"/><polygon class="cls-6" points="2432.54 2311.93 2546.89 2311.93 2546.89 2368.38 2432.54 2311.93"/><polygon class="cls-4" points="2577.35 2187.59 2577.35 2428.64 2717.67 2335.1 2717.67 2085.05 2577.35 2187.59"/><polygon class="cls-5" points="2577.35 2187.59 2717.67 2256.84 2717.67 2335.1 2577.35 2428.64 2577.35 2187.59"/><polygon class="cls-6" points="2603.32 2200.4 2717.67 2200.4 2717.67 2256.84 2603.32 2200.4"/><polygon class="cls-4" points="1381.9 3341.92 1381.9 3582.97 1522.21 3489.43 1522.21 3239.38 1381.9 3341.92"/><polygon class="cls-5" points="1381.9 3341.92 1522.21 3411.18 1522.21 3489.43 1381.9 3582.97 1381.9 3341.92"/><polygon class="cls-6" points="1407.86 3354.73 1522.22 3354.73 1522.22 3411.18 1407.86 3354.73"/><polygon class="cls-4" points="1552.68 3230.39 1552.68 3471.44 1692.99 3377.9 1692.99 3127.85 1552.68 3230.39"/><polygon class="cls-5" points="1552.68 3230.39 1692.99 3299.64 1692.99 3377.9 1552.68 3471.44 1552.68 3230.39"/><polygon class="cls-6" points="1578.64 3243.2 1692.99 3243.2 1692.99 3299.64 1578.64 3243.2"/><polygon class="cls-4" points="1723.46 3118.85 1723.46 3359.91 1863.77 3266.36 1863.77 3016.32 1723.46 3118.85"/><polygon class="cls-5" points="1723.46 3118.85 1863.77 3188.11 1863.77 3266.36 1723.46 3359.91 1723.46 3118.85"/><polygon class="cls-6" points="1749.42 3131.67 1863.77 3131.67 1863.77 3188.11 1749.42 3131.67"/><polygon class="cls-4" points="1894.24 3007.32 1894.24 3248.38 2034.55 3154.83 2034.55 2904.78 1894.24 3007.32"/><polygon class="cls-5" points="1894.24 3007.32 2034.55 3076.57 2034.55 3154.83 1894.24 3248.38 1894.24 3007.32"/><polygon class="cls-6" points="1920.2 3020.14 2034.55 3020.14 2034.55 3076.58 1920.2 3020.14"/><polygon class="cls-4" points="2065.02 2892.83 2065.02 3133.89 2205.33 3040.34 2205.33 2790.29 2065.02 2892.83"/><polygon class="cls-5" points="2065.02 2892.83 2205.33 2962.09 2205.33 3040.34 2065.02 3133.89 2065.02 2892.83"/><polygon class="cls-6" points="2090.98 2905.64 2205.33 2905.64 2205.33 2962.09 2090.98 2905.64"/><polygon class="cls-4" points="2235.8 2781.3 2235.8 3022.35 2376.11 2928.81 2376.11 2678.76 2235.8 2781.3"/><polygon class="cls-5" points="2235.8 2781.3 2376.11 2850.55 2376.11 2928.81 2235.8 3022.35 2235.8 2781.3"/><polygon class="cls-6" points="2261.76 2794.11 2376.11 2794.11 2376.11 2850.55 2261.76 2794.11"/><polygon class="cls-4" points="2406.57 2669.76 2406.57 2910.82 2546.89 2817.28 2546.89 2567.23 2406.57 2669.76"/><polygon class="cls-5" points="2406.57 2669.76 2546.89 2739.02 2546.89 2817.28 2406.57 2910.82 2406.57 2669.76"/><polygon class="cls-6" points="2432.54 2682.58 2546.89 2682.58 2546.89 2739.03 2432.54 2682.58"/><polygon class="cls-4" points="2577.35 2558.23 2577.35 2799.29 2717.67 2705.74 2717.67 2455.69 2577.35 2558.23"/><polygon class="cls-5" points="2577.35 2558.23 2717.67 2627.49 2717.67 2705.74 2577.35 2799.29 2577.35 2558.23"/><polygon class="cls-6" points="2603.32 2571.05 2717.67 2571.05 2717.67 2627.49 2603.32 2571.05"/><polygon class="cls-4" points="0 1674.05 0 1915.11 140.31 1821.56 140.31 1571.51 0 1674.05"/><polygon class="cls-5" points="0 1915.11 140.31 1821.56 140.31 1743.31 0 1674.05 0 1915.11"/><polygon class="cls-6" points="25.96 1686.87 140.31 1686.87 140.31 1743.31 25.96 1686.87"/><polygon class="cls-4" points="170.78 1553.52 170.78 1794.58 311.09 1701.04 311.09 1450.98 170.78 1553.52"/><polygon class="cls-5" points="170.78 1553.52 311.09 1622.78 311.09 1701.04 170.78 1794.58 170.78 1553.52"/><polygon class="cls-6" points="196.74 1566.34 311.09 1566.34 311.09 1622.78 196.74 1566.34"/><polygon class="cls-4" points="341.56 1441.99 341.56 1683.05 481.87 1589.5 481.87 1339.45 341.56 1441.99"/><polygon class="cls-5" points="341.56 1441.99 481.87 1511.25 481.87 1589.5 341.56 1683.05 341.56 1441.99"/><polygon class="cls-6" points="367.52 1454.81 481.87 1454.81 481.87 1511.25 367.52 1454.81"/><polygon class="cls-4" points="512.34 1321.46 512.34 1562.52 652.65 1468.97 652.65 1218.93 512.34 1321.46"/><polygon class="cls-5" points="512.34 1321.46 652.65 1390.72 652.65 1468.97 512.34 1562.52 512.34 1321.46"/><polygon class="cls-6" points="538.3 1334.28 652.65 1334.28 652.65 1390.72 538.3 1334.28"/><polygon class="cls-4" points="691.76 1200.93 691.76 1441.99 832.08 1348.45 832.08 1098.4 691.76 1200.93"/><polygon class="cls-5" points="691.76 1200.93 832.08 1270.19 832.08 1348.45 691.76 1441.99 691.76 1200.93"/><polygon class="cls-6" points="717.73 1213.75 832.08 1213.75 832.08 1270.19 717.73 1213.75"/><polygon class="cls-4" points="866.05 1080.41 866.05 1321.46 1006.37 1227.92 1006.37 977.87 866.05 1080.41"/><polygon class="cls-5" points="866.05 1080.41 1006.37 1149.66 1006.37 1227.92 866.05 1321.46 866.05 1080.41"/><polygon class="cls-6" points="892.01 1093.22 1006.37 1093.22 1006.37 1149.66 892.01 1093.22"/><polygon class="cls-4" points="1040.34 968.87 1040.34 1209.93 1180.66 1116.39 1180.66 866.34 1040.34 968.87"/><polygon class="cls-5" points="1040.34 968.87 1180.66 1038.13 1180.66 1116.39 1040.34 1209.93 1040.34 968.87"/><polygon class="cls-6" points="1066.31 981.69 1180.66 981.69 1180.66 1038.13 1066.31 981.69"/><polygon class="cls-4" points="1211.12 848.35 1211.12 1089.4 1351.44 995.86 1351.44 745.81 1211.12 848.35"/><polygon class="cls-5" points="1211.12 848.35 1351.44 917.61 1351.44 995.86 1211.12 1089.4 1211.12 848.35"/><polygon class="cls-6" points="1237.09 861.16 1351.44 861.16 1351.44 917.61 1237.09 861.16"/><polygon class="cls-4" points="0 2058.68 0 2299.74 140.31 2206.19 140.31 1956.14 0 2058.68"/><polygon class="cls-5" points="0 2299.74 140.31 2206.19 140.31 2127.94 0 2058.68 0 2299.74"/><polygon class="cls-6" points="25.96 2071.49 140.31 2071.49 140.31 2127.94 25.96 2071.49"/><polygon class="cls-4" points="170.78 1938.15 170.78 2179.21 311.09 2085.67 311.09 1835.61 170.78 1938.15"/><polygon class="cls-5" points="170.78 1938.15 311.09 2007.41 311.09 2085.67 170.78 2179.21 170.78 1938.15"/><polygon class="cls-6" points="196.74 1950.97 311.09 1950.97 311.09 2007.41 196.74 1950.97"/><polygon class="cls-4" points="341.56 1826.62 341.56 2067.67 481.87 1974.13 481.87 1724.08 341.56 1826.62"/><polygon class="cls-5" points="341.56 1826.62 481.87 1895.88 481.87 1974.13 341.56 2067.67 341.56 1826.62"/><polygon class="cls-6" points="367.52 1839.44 481.87 1839.44 481.87 1895.88 367.52 1839.44"/><polygon class="cls-4" points="512.34 1706.09 512.34 1947.15 652.65 1853.61 652.65 1603.56 512.34 1706.09"/><polygon class="cls-5" points="512.34 1706.09 652.65 1775.35 652.65 1853.61 512.34 1947.15 512.34 1706.09"/><polygon class="cls-6" points="538.3 1718.91 652.65 1718.91 652.65 1775.35 538.3 1718.91"/><polygon class="cls-4" points="691.76 1585.57 691.76 1826.62 832.08 1733.08 832.08 1483.03 691.76 1585.57"/><polygon class="cls-5" points="691.76 1585.57 832.08 1654.82 832.08 1733.08 691.76 1826.62 691.76 1585.57"/><polygon class="cls-6" points="717.73 1598.38 832.08 1598.38 832.08 1654.82 717.73 1598.38"/><polygon class="cls-4" points="866.05 1465.04 866.05 1706.09 1006.37 1612.55 1006.37 1362.5 866.05 1465.04"/><polygon class="cls-5" points="866.05 1465.04 1006.37 1534.29 1006.37 1612.55 866.05 1706.09 866.05 1465.04"/><polygon class="cls-6" points="892.01 1477.85 1006.37 1477.85 1006.37 1534.29 892.01 1477.85"/><polygon class="cls-4" points="1040.34 1353.5 1040.34 1594.56 1180.66 1501.02 1180.66 1250.97 1040.34 1353.5"/><polygon class="cls-5" points="1040.34 1353.5 1180.66 1422.76 1180.66 1501.02 1040.34 1594.56 1040.34 1353.5"/><polygon class="cls-6" points="1066.31 1366.32 1180.66 1366.32 1180.66 1422.77 1066.31 1366.32"/><polygon class="cls-4" points="1211.12 1232.98 1211.12 1474.03 1351.44 1380.49 1351.44 1130.44 1211.12 1232.98"/><polygon class="cls-5" points="1211.12 1232.98 1351.44 1302.23 1351.44 1380.49 1211.12 1474.03 1211.12 1232.98"/><polygon class="cls-6" points="1237.09 1245.79 1351.44 1245.79 1351.44 1302.23 1237.09 1245.79"/><polygon class="cls-4" points="0 2417.37 0 2658.42 140.31 2564.88 140.31 2314.83 0 2417.37"/><polygon class="cls-5" points="0 2658.42 140.31 2564.88 140.31 2486.63 0 2417.37 0 2658.42"/><polygon class="cls-6" points="25.96 2430.18 140.31 2430.18 140.31 2486.63 25.96 2430.18"/><polygon class="cls-4" points="170.78 2296.84 170.78 2537.9 311.09 2444.36 311.09 2194.3 170.78 2296.84"/><polygon class="cls-5" points="170.78 2296.84 311.09 2366.1 311.09 2444.36 170.78 2537.9 170.78 2296.84"/><polygon class="cls-6" points="196.74 2309.66 311.09 2309.66 311.09 2366.1 196.74 2309.66"/><polygon class="cls-4" points="341.56 2185.31 341.56 2426.37 481.87 2332.82 481.87 2082.77 341.56 2185.31"/><polygon class="cls-5" points="341.56 2185.31 481.87 2254.57 481.87 2332.82 341.56 2426.37 341.56 2185.31"/><polygon class="cls-6" points="367.52 2198.12 481.87 2198.12 481.87 2254.57 367.52 2198.12"/><polygon class="cls-4" points="512.34 2064.78 512.34 2305.84 652.65 2212.3 652.65 1962.24 512.34 2064.78"/><polygon class="cls-5" points="512.34 2064.78 652.65 2134.04 652.65 2212.3 512.34 2305.84 512.34 2064.78"/><polygon class="cls-6" points="538.3 2077.6 652.65 2077.6 652.65 2134.04 538.3 2077.6"/><polygon class="cls-4" points="691.76 1944.25 691.76 2185.31 832.08 2091.77 832.08 1841.72 691.76 1944.25"/><polygon class="cls-5" points="691.76 1944.25 832.08 2013.51 832.08 2091.77 691.76 2185.31 691.76 1944.25"/><polygon class="cls-6" points="717.73 1957.07 832.08 1957.07 832.08 2013.51 717.73 1957.07"/><polygon class="cls-4" points="866.05 1823.73 866.05 2064.78 1006.37 1971.24 1006.37 1721.19 866.05 1823.73"/><polygon class="cls-5" points="866.05 1823.73 1006.37 1892.98 1006.37 1971.24 866.05 2064.78 866.05 1823.73"/><polygon class="cls-6" points="892.01 1836.54 1006.37 1836.54 1006.37 1892.98 892.01 1836.54"/><polygon class="cls-4" points="1040.34 1712.19 1040.34 1953.25 1180.66 1859.71 1180.66 1609.65 1040.34 1712.19"/><polygon class="cls-5" points="1040.34 1712.19 1180.66 1781.45 1180.66 1859.71 1040.34 1953.25 1040.34 1712.19"/><polygon class="cls-6" points="1066.31 1725.01 1180.66 1725.01 1180.66 1781.45 1066.31 1725.01"/><polygon class="cls-4" points="1211.12 1591.67 1211.12 1832.72 1351.44 1739.18 1351.44 1489.13 1211.12 1591.67"/><polygon class="cls-5" points="1211.12 1591.67 1351.44 1660.92 1351.44 1739.18 1211.12 1832.72 1211.12 1591.67"/><polygon class="cls-6" points="1237.09 1604.48 1351.44 1604.48 1351.44 1660.93 1237.09 1604.48"/><polygon class="cls-4" points="0 2802 0 3043.05 140.31 2949.51 140.31 2699.46 0 2802"/><polygon class="cls-5" points="0 3043.05 140.31 2949.51 140.31 2871.26 0 2802 0 3043.05"/><polygon class="cls-6" points="25.96 2814.82 140.31 2814.82 140.31 2871.26 25.96 2814.82"/><polygon class="cls-4" points="170.78 2681.47 170.78 2922.53 311.09 2828.98 311.09 2578.93 170.78 2681.47"/><polygon class="cls-5" points="170.78 2681.47 311.09 2750.73 311.09 2828.98 170.78 2922.53 170.78 2681.47"/><polygon class="cls-6" points="196.74 2694.29 311.09 2694.29 311.09 2750.73 196.74 2694.29"/><polygon class="cls-4" points="341.56 2569.94 341.56 2810.99 481.87 2717.45 481.87 2467.4 341.56 2569.94"/><polygon class="cls-5" points="341.56 2569.94 481.87 2639.19 481.87 2717.45 341.56 2810.99 341.56 2569.94"/><polygon class="cls-6" points="367.52 2582.75 481.87 2582.75 481.87 2639.2 367.52 2582.75"/><polygon class="cls-4" points="512.34 2449.41 512.34 2690.47 652.65 2596.93 652.65 2346.87 512.34 2449.41"/><polygon class="cls-5" points="512.34 2449.41 652.65 2518.67 652.65 2596.93 512.34 2690.47 512.34 2449.41"/><polygon class="cls-6" points="538.3 2462.23 652.65 2462.23 652.65 2518.67 538.3 2462.23"/><polygon class="cls-4" points="691.76 2328.88 691.76 2569.94 832.08 2476.4 832.08 2226.35 691.76 2328.88"/><polygon class="cls-5" points="691.76 2328.88 832.08 2398.14 832.08 2476.4 691.76 2569.94 691.76 2328.88"/><polygon class="cls-6" points="717.73 2341.7 832.08 2341.7 832.08 2398.14 717.73 2341.7"/><polygon class="cls-4" points="866.05 2208.36 866.05 2449.41 1006.37 2355.87 1006.37 2105.82 866.05 2208.36"/><polygon class="cls-5" points="866.05 2208.36 1006.37 2277.61 1006.37 2355.87 866.05 2449.41 866.05 2208.36"/><polygon class="cls-6" points="892.01 2221.17 1006.37 2221.17 1006.37 2277.61 892.01 2221.17"/><polygon class="cls-4" points="1040.34 2096.82 1040.34 2337.88 1180.66 2244.34 1180.66 1994.28 1040.34 2096.82"/><polygon class="cls-5" points="1040.34 2096.82 1180.66 2166.08 1180.66 2244.34 1040.34 2337.88 1040.34 2096.82"/><polygon class="cls-6" points="1066.31 2109.64 1180.66 2109.64 1180.66 2166.08 1066.31 2109.64"/><polygon class="cls-4" points="1211.12 1976.3 1211.12 2217.35 1351.44 2123.81 1351.44 1873.76 1211.12 1976.3"/><polygon class="cls-5" points="1211.12 1976.3 1351.44 2045.56 1351.44 2123.81 1211.12 2217.35 1211.12 1976.3"/><polygon class="cls-6" points="1237.09 1989.11 1351.44 1989.11 1351.44 2045.56 1237.09 1989.11"/><polygon class="cls-4" points="0 3160.69 0 3401.74 140.31 3308.2 140.31 3058.15 0 3160.69"/><polygon class="cls-5" points="0 3401.74 140.31 3308.2 140.31 3229.95 0 3160.69 0 3401.74"/><polygon class="cls-6" points="25.96 3173.5 140.31 3173.5 140.31 3229.95 25.96 3173.5"/><polygon class="cls-4" points="170.78 3040.16 170.78 3281.22 311.09 3187.67 311.09 2937.62 170.78 3040.16"/><polygon class="cls-5" points="170.78 3040.16 311.09 3109.42 311.09 3187.67 170.78 3281.22 170.78 3040.16"/><polygon class="cls-6" points="196.74 3052.98 311.09 3052.98 311.09 3109.42 196.74 3052.98"/><polygon class="cls-4" points="341.56 2928.63 341.56 3169.68 481.87 3076.14 481.87 2826.09 341.56 2928.63"/><polygon class="cls-5" points="341.56 2928.63 481.87 2997.89 481.87 3076.14 341.56 3169.68 341.56 2928.63"/><polygon class="cls-6" points="367.52 2941.44 481.87 2941.44 481.87 2997.89 367.52 2941.44"/><polygon class="cls-4" points="512.34 2808.1 512.34 3049.16 652.65 2955.61 652.65 2705.56 512.34 2808.1"/><polygon class="cls-5" points="512.34 2808.1 652.65 2877.36 652.65 2955.61 512.34 3049.16 512.34 2808.1"/><polygon class="cls-6" points="538.3 2820.91 652.65 2820.91 652.65 2877.36 538.3 2820.91"/><polygon class="cls-4" points="691.76 2687.57 691.76 2928.63 832.08 2835.09 832.08 2585.03 691.76 2687.57"/><polygon class="cls-5" points="691.76 2687.57 832.08 2756.83 832.08 2835.09 691.76 2928.63 691.76 2687.57"/><polygon class="cls-6" points="717.73 2700.39 832.08 2700.39 832.08 2756.83 717.73 2700.39"/><polygon class="cls-4" points="866.05 2567.05 866.05 2808.1 1006.37 2714.56 1006.37 2464.51 866.05 2567.05"/><polygon class="cls-5" points="866.05 2567.05 1006.37 2636.3 1006.37 2714.56 866.05 2808.1 866.05 2567.05"/><polygon class="cls-6" points="892.01 2579.86 1006.37 2579.86 1006.37 2636.3 892.01 2579.86"/><polygon class="cls-4" points="1040.34 2455.51 1040.34 2696.57 1180.66 2603.02 1180.66 2352.97 1040.34 2455.51"/><polygon class="cls-5" points="1040.34 2455.51 1180.66 2524.77 1180.66 2603.02 1040.34 2696.57 1040.34 2455.51"/><polygon class="cls-6" points="1066.31 2468.33 1180.66 2468.33 1180.66 2524.77 1066.31 2468.33"/><polygon class="cls-4" points="1211.12 2334.99 1211.12 2576.04 1351.44 2482.5 1351.44 2232.45 1211.12 2334.99"/><polygon class="cls-5" points="1211.12 2334.99 1351.44 2404.24 1351.44 2482.5 1211.12 2576.04 1211.12 2334.99"/><polygon class="cls-6" points="1237.09 2347.8 1351.44 2347.8 1351.44 2404.24 1237.09 2347.8"/><polygon class="cls-4" points="0 3545.32 0 3739.42 70.42 3739.42 140.31 3692.83 140.31 3442.78 0 3545.32"/><polygon class="cls-5" points="0 3739.42 70.42 3739.42 140.31 3692.83 140.31 3614.58 0 3545.32 0 3739.42"/><polygon class="cls-6" points="25.96 3558.13 140.31 3558.13 140.31 3614.57 25.96 3558.13"/><polygon class="cls-4" points="170.78 3424.79 170.78 3665.84 311.09 3572.3 311.09 3322.25 170.78 3424.79"/><polygon class="cls-5" points="170.78 3424.79 311.09 3494.05 311.09 3572.3 170.78 3665.84 170.78 3424.79"/><polygon class="cls-6" points="196.74 3437.61 311.09 3437.61 311.09 3494.05 196.74 3437.61"/><polygon class="cls-4" points="341.56 3313.26 341.56 3554.32 481.87 3460.77 481.87 3210.72 341.56 3313.26"/><polygon class="cls-5" points="341.56 3313.26 481.87 3382.51 481.87 3460.77 341.56 3554.32 341.56 3313.26"/><polygon class="cls-6" points="367.52 3326.07 481.87 3326.07 481.87 3382.52 367.52 3326.07"/><polygon class="cls-4" points="512.34 3192.73 512.34 3433.79 652.65 3340.24 652.65 3090.19 512.34 3192.73"/><polygon class="cls-5" points="512.34 3192.73 652.65 3261.99 652.65 3340.24 512.34 3433.79 512.34 3192.73"/><polygon class="cls-6" points="538.3 3205.55 652.65 3205.55 652.65 3261.99 538.3 3205.55"/><polygon class="cls-4" points="691.76 3072.2 691.76 3313.26 832.08 3219.72 832.08 2969.66 691.76 3072.2"/><polygon class="cls-5" points="691.76 3072.2 832.08 3141.46 832.08 3219.72 691.76 3313.26 691.76 3072.2"/><polygon class="cls-6" points="717.73 3085.02 832.08 3085.02 832.08 3141.46 717.73 3085.02"/><polygon class="cls-4" points="866.05 2951.67 866.05 3192.73 1006.37 3099.19 1006.37 2849.14 866.05 2951.67"/><polygon class="cls-5" points="866.05 2951.67 1006.37 3020.93 1006.37 3099.19 866.05 3192.73 866.05 2951.67"/><polygon class="cls-6" points="892.01 2964.49 1006.37 2964.49 1006.37 3020.93 892.01 2964.49"/><polygon class="cls-4" points="1040.34 2840.14 1040.34 3081.2 1180.66 2987.65 1180.66 2737.6 1040.34 2840.14"/><polygon class="cls-5" points="1040.34 2840.14 1180.66 2909.4 1180.66 2987.65 1040.34 3081.2 1040.34 2840.14"/><polygon class="cls-6" points="1066.31 2852.96 1180.66 2852.96 1180.66 2909.4 1066.31 2852.96"/><polygon class="cls-4" points="1211.12 2719.61 1211.12 2960.67 1351.44 2867.13 1351.44 2617.08 1211.12 2719.61"/><polygon class="cls-5" points="1211.12 2719.61 1351.44 2788.87 1351.44 2867.13 1211.12 2960.67 1211.12 2719.61"/><polygon class="cls-6" points="1237.09 2732.43 1351.44 2732.43 1351.44 2788.87 1237.09 2732.43"/><polygon class="cls-4" points="341.56 3671.95 341.56 3739.42 481.87 3739.42 481.87 3569.41 341.56 3671.95"/><polygon class="cls-4" points="512.34 3551.42 512.34 3739.42 591.91 3739.42 652.65 3698.93 652.65 3448.88 512.34 3551.42"/><polygon class="cls-5" points="512.34 3739.42 591.91 3739.42 652.65 3698.93 652.65 3620.68 512.34 3551.42 512.34 3739.42"/><polygon class="cls-6" points="538.3 3564.23 652.65 3564.23 652.65 3620.68 538.3 3564.23"/><polygon class="cls-4" points="691.76 3430.89 691.76 3671.95 832.08 3578.4 832.08 3328.35 691.76 3430.89"/><polygon class="cls-5" points="691.76 3430.89 832.08 3500.15 832.08 3578.4 691.76 3671.95 691.76 3430.89"/><polygon class="cls-6" points="717.73 3443.71 832.08 3443.71 832.08 3500.15 717.73 3443.71"/><polygon class="cls-4" points="866.05 3310.36 866.05 3551.42 1006.37 3457.88 1006.37 3207.82 866.05 3310.36"/><polygon class="cls-5" points="866.05 3310.36 1006.37 3379.62 1006.37 3457.88 866.05 3551.42 866.05 3310.36"/><polygon class="cls-6" points="892.01 3323.18 1006.37 3323.18 1006.37 3379.62 892.01 3323.18"/><polygon class="cls-4" points="1040.34 3198.83 1040.34 3439.89 1180.66 3346.34 1180.66 3096.29 1040.34 3198.83"/><polygon class="cls-5" points="1040.34 3198.83 1180.66 3268.09 1180.66 3346.34 1040.34 3439.89 1040.34 3198.83"/><polygon class="cls-6" points="1066.31 3211.64 1180.66 3211.64 1180.66 3268.09 1066.31 3211.64"/><polygon class="cls-4" points="1211.12 3078.3 1211.12 3319.36 1351.44 3225.82 1351.44 2975.76 1211.12 3078.3"/><polygon class="cls-5" points="1211.12 3078.3 1351.44 3147.56 1351.44 3225.82 1211.12 3319.36 1211.12 3078.3"/><polygon class="cls-6" points="1237.09 3091.12 1351.44 3091.12 1351.44 3147.56 1237.09 3091.12"/><polygon class="cls-4" points="866.05 3695 866.05 3739.42 1006.37 3739.42 1006.37 3592.45 866.05 3695"/><polygon class="cls-4" points="1040.34 3583.46 1040.34 3739.42 1167.98 3739.42 1180.66 3730.97 1180.66 3480.92 1040.34 3583.46"/><polygon class="cls-5" points="1040.34 3739.42 1167.98 3739.42 1180.66 3730.97 1180.66 3652.72 1040.34 3583.46 1040.34 3739.42"/><polygon class="cls-6" points="1066.31 3596.28 1180.66 3596.28 1180.66 3652.72 1066.31 3596.28"/><polygon class="cls-4" points="1211.12 3462.93 1211.12 3703.99 1351.44 3610.44 1351.44 3360.39 1211.12 3462.93"/><polygon class="cls-5" points="1211.12 3462.93 1351.44 3532.19 1351.44 3610.44 1211.12 3703.99 1211.12 3462.93"/><polygon class="cls-6" points="1237.09 3475.75 1351.44 3475.75 1351.44 3532.19 1237.09 3475.75"/><polygon class="cls-4" points="1381.9 3701.96 1381.9 3739.42 1522.21 3739.42 1522.21 3599.42 1381.9 3701.96"/><polygon class="cls-4" points="1552.68 3590.43 1552.68 3739.42 1690.77 3739.42 1692.99 3737.94 1692.99 3487.89 1552.68 3590.43"/><polygon class="cls-5" points="1552.68 3739.42 1690.77 3739.42 1692.99 3737.94 1692.99 3659.69 1552.68 3590.43 1552.68 3739.42"/><polygon class="cls-6" points="1578.64 3603.24 1692.99 3603.24 1692.99 3659.69 1578.64 3603.24"/><polygon class="cls-4" points="1723.46 3478.9 1723.46 3719.95 1863.77 3626.41 1863.77 3376.36 1723.46 3478.9"/><polygon class="cls-5" points="1723.46 3478.9 1863.77 3548.15 1863.77 3626.41 1723.46 3719.95 1723.46 3478.9"/><polygon class="cls-6" points="1749.42 3491.71 1863.77 3491.71 1863.77 3548.15 1749.42 3491.71"/><polygon class="cls-4" points="1894.24 3367.36 1894.24 3608.42 2034.55 3514.88 2034.55 3264.83 1894.24 3367.36"/><polygon class="cls-5" points="1894.24 3367.36 2034.55 3436.62 2034.55 3514.88 1894.24 3608.42 1894.24 3367.36"/><polygon class="cls-6" points="1920.2 3380.18 2034.55 3380.18 2034.55 3436.62 1920.2 3380.18"/><polygon class="cls-4" points="2065.02 3252.88 2065.02 3493.93 2205.33 3400.39 2205.33 3150.34 2065.02 3252.88"/><polygon class="cls-5" points="2065.02 3252.88 2205.33 3322.13 2205.33 3400.39 2065.02 3493.93 2065.02 3252.88"/><polygon class="cls-6" points="2090.98 3265.69 2205.33 3265.69 2205.33 3322.13 2090.98 3265.69"/><polygon class="cls-4" points="2235.8 3141.34 2235.8 3382.4 2376.11 3288.86 2376.11 3038.8 2235.8 3141.34"/><polygon class="cls-5" points="2235.8 3141.34 2376.11 3210.6 2376.11 3288.86 2235.8 3382.4 2235.8 3141.34"/><polygon class="cls-6" points="2261.76 3154.16 2376.11 3154.16 2376.11 3210.6 2261.76 3154.16"/><polygon class="cls-4" points="2406.57 3029.81 2406.57 3270.86 2546.89 3177.32 2546.89 2927.27 2406.57 3029.81"/><polygon class="cls-5" points="2406.57 3029.81 2546.89 3099.07 2546.89 3177.32 2406.57 3270.86 2406.57 3029.81"/><polygon class="cls-6" points="2432.54 3042.63 2546.89 3042.63 2546.89 3099.07 2432.54 3042.63"/><polygon class="cls-4" points="2577.35 2918.28 2577.35 3159.33 2717.67 3065.79 2717.67 2815.74 2577.35 2918.28"/><polygon class="cls-5" points="2577.35 2918.28 2717.67 2987.53 2717.67 3065.79 2577.35 3159.33 2577.35 2918.28"/><polygon class="cls-6" points="2603.32 2931.09 2717.67 2931.09 2717.67 2987.54 2603.32 2931.09"/><polygon class="cls-4" points="1894.24 3727.41 1894.24 3739.42 2034.55 3739.42 2034.55 3624.87 1894.24 3727.41"/><polygon class="cls-4" points="2065.02 3612.92 2065.02 3739.42 2205.33 3739.42 2205.33 3510.38 2065.02 3612.92"/><polygon class="cls-5" points="2065.02 3739.42 2205.33 3739.42 2205.33 3682.18 2065.02 3612.92 2065.02 3739.42"/><polygon class="cls-6" points="2090.98 3625.73 2205.33 3625.73 2205.33 3682.18 2090.98 3625.73"/><polygon class="cls-4" points="2235.8 3501.39 2235.8 3739.42 2240.33 3739.42 2376.11 3648.9 2376.11 3398.85 2235.8 3501.39"/><polygon class="cls-5" points="2235.8 3739.42 2240.33 3739.42 2376.11 3648.9 2376.11 3570.65 2235.8 3501.39 2235.8 3739.42"/><polygon class="cls-6" points="2261.76 3514.2 2376.11 3514.2 2376.11 3570.65 2261.76 3514.2"/><polygon class="cls-4" points="2406.57 3389.85 2406.57 3630.91 2546.89 3537.37 2546.89 3287.32 2406.57 3389.85"/><polygon class="cls-5" points="2406.57 3389.85 2546.89 3459.11 2546.89 3537.37 2406.57 3630.91 2406.57 3389.85"/><polygon class="cls-6" points="2432.54 3402.67 2546.89 3402.67 2546.89 3459.11 2432.54 3402.67"/><polygon class="cls-4" points="2577.35 3278.32 2577.35 3519.38 2717.67 3425.83 2717.67 3175.78 2577.35 3278.32"/><polygon class="cls-5" points="2577.35 3278.32 2717.67 3347.58 2717.67 3425.83 2577.35 3519.38 2577.35 3278.32"/><polygon class="cls-6" points="2603.32 3291.14 2717.67 3291.14 2717.67 3347.58 2603.32 3291.14"/><polygon class="cls-4" points="2577.36 3638.36 2577.36 3739.42 2717.67 3739.42 2717.67 3535.83 2577.36 3638.36"/><polygon class="cls-4" points="231.07 3739.42 311.09 3739.42 311.09 3680.94 231.07 3739.42"/><polygon class="cls-5" points="341.56 3739.42 478.26 3739.42 341.56 3671.94 341.56 3739.42"/><polygon class="cls-6" points="367.52 3684.76 478.27 3739.42 481.87 3739.42 481.87 3684.76 367.52 3684.76"/><polygon class="cls-4" points="615.09 3695.01 635.24 3695.01 635.24 3680.28 615.09 3695.01"/><polygon class="cls-5" points="866.05 3739.42 956.06 3739.42 866.05 3694.99 866.05 3739.42"/><polygon class="cls-6" points="668.63 3677.4 704.31 3695.01 732.33 3695.01 732.33 3677.4 668.63 3677.4"/><polygon class="cls-5" points="941.51 3695.01 983.79 3695.01 941.51 3674.14 941.51 3695.01"/><polygon class="cls-6" points="955.98 3681.28 983.79 3695.01 1019.68 3695.01 1019.68 3681.28 955.98 3681.28"/><polygon class="cls-4" points="1207.64 3695.01 1209.94 3695.01 1209.94 3693.33 1207.64 3695.01"/><polygon class="cls-5" points="1226.91 3695.01 1240.47 3695.01 1226.91 3688.31 1226.91 3695.01"/><polygon class="cls-4" points="2420.91 3739.42 2546.89 3739.42 2546.89 3647.36 2420.91 3739.42"/><polygon class="cls-5" points="2577.36 3739.42 2717.67 3739.42 2717.67 3707.62 2577.36 3638.36 2577.36 3739.42"/><polygon class="cls-6" points="2603.32 3651.18 2717.67 3651.18 2717.67 3707.63 2603.32 3651.18"/><polygon class="cls-4" points="910.08 3695.01 924.55 3695.01 924.55 3684.43 910.08 3695.01"/></g></g></g></svg>