<svg xmlns="http://www.w3.org/2000/svg" viewBox="0 0 91.71 91.71"><defs><style>.cls-1{fill:#b63f88;}</style></defs><title>insta</title><g id="Layer_2" data-name="Layer 2"><g id="Capa_1" data-name="Capa 1"><path class="cls-1" d="M66.88,0H24.82A24.82,24.82,0,0,0,0,24.82V66.88A24.83,24.83,0,0,0,24.82,91.71H66.88A24.83,24.83,0,0,0,91.71,66.88V24.82A24.83,24.83,0,0,0,66.88,0Zm0,86.34H24.82A19.45,19.45,0,0,1,5.37,66.89V24.82A19.45,19.45,0,0,1,24.82,5.37H66.89A19.45,19.45,0,0,1,86.34,24.82V66.89A19.45,19.45,0,0,1,66.89,86.34Z"/><path class="cls-1" d="M45.94,20.85A25.08,25.08,0,1,0,71,45.93,25.11,25.11,0,0,0,45.94,20.85Zm0,44.78a19.7,19.7,0,1,1,19.7-19.7A19.73,19.73,0,0,1,45.94,65.63Z"/><path class="cls-1" d="M71.62,12A7.41,7.41,0,1,0,79,19.36,7.41,7.41,0,0,0,71.62,12Zm0,9.44a2,2,0,1,1,2-2A2,2,0,0,1,71.62,21.39Z"/></g></g></svg>