<svg xmlns="http://www.w3.org/2000/svg" viewBox="0 0 93.77 93.77"><defs><style>.cls-1{fill:#b63f88;}</style></defs><title>msn</title><g id="Layer_2" data-name="Layer 2"><g id="Capa_1" data-name="Capa 1"><path class="cls-1" d="M22.1,93.77A7.13,7.13,0,0,1,15,86.87l-.23-7.58A44.6,44.6,0,0,1,0,45.59,44.82,44.82,0,0,1,13.6,13,47.6,47.6,0,0,1,46.89,0,47.59,47.59,0,0,1,80.17,13a44.82,44.82,0,0,1,13.6,32.64,44.82,44.82,0,0,1-13.6,32.64,47.59,47.59,0,0,1-33.28,13,51,51,0,0,1-13.41-1.77L25,93.16A7.05,7.05,0,0,1,22.1,93.77ZM46.89,7.33C24.33,7.33,7.33,23.78,7.33,45.59A37.33,37.33,0,0,0,19.68,73.87a7.11,7.11,0,0,1,2.38,5.06v0l.23,7.39,8.3-3.66a7.1,7.1,0,0,1,4.74-.36,43.34,43.34,0,0,0,11.56,1.53c22.55,0,39.55-16.45,39.55-38.26S69.44,7.33,46.89,7.33ZM23.83,60.55,37.52,50a2.63,2.63,0,0,1,3.14,0l10.13,7.87a6.52,6.52,0,0,0,9.4-1.72L72.92,36a2.05,2.05,0,0,0-3-2.73L56.26,43.59a2.64,2.64,0,0,1-3.14,0L43,35.91a6.52,6.52,0,0,0-9.4,1.72L20.85,57.83A2.05,2.05,0,0,0,23.83,60.55Z"/></g></g></svg>