<svg xmlns="http://www.w3.org/2000/svg" viewBox="0 0 92.22 92.22"><defs><style>.cls-1{fill:#b63f88;}</style></defs><title>tw</title><g id="Layer_2" data-name="Layer 2"><g id="Capa_1" data-name="Capa 1"><path class="cls-1" d="M67.87,0H24.36A24.35,24.35,0,0,0,0,24.36V67.87A24.35,24.35,0,0,0,24.36,92.22H67.87A24.35,24.35,0,0,0,92.22,67.87V24.36A24.1,24.1,0,0,0,67.87,0Zm18.4,67.87a18.21,18.21,0,0,1-18.4,18.4H24.36A18.4,18.4,0,0,1,6,67.87V24.36A18.41,18.41,0,0,1,24.36,6H67.87a18.21,18.21,0,0,1,18.4,18.41Z"/><path class="cls-1" d="M75.16,23.63a3,3,0,0,0-3.26-.16c-1,.6-3.27.89-5.08,1.13l-1.1.15a14.3,14.3,0,0,0-9.1-3.28A14.07,14.07,0,0,0,42.51,34.6,28.93,28.93,0,0,1,25,24.56a3,3,0,0,0-2.71-1A2.94,2.94,0,0,0,20,25.26c-.19.43-1.85,4.52-1.85,14.62,0,8.75,6.9,15.18,11.64,18.56a20.4,20.4,0,0,1-10.52,1.62,3,3,0,0,0-1.92,5.47,35,35,0,0,0,18.69,5.4c21.33,0,34.23-16.75,34.71-33.27.61-.89,1.78-2.62,3.76-5.66a20.57,20.57,0,0,0,1.78-5.32A3,3,0,0,0,75.16,23.63ZM65.4,35a3,3,0,0,0-.56,1.74C64.84,48.44,55.91,65,36.07,65a29.41,29.41,0,0,1-5.32-.49,25.57,25.57,0,0,0,6.54-3.66,3,3,0,0,0-.47-5c-.13-.07-12.7-6.68-12.7-15.94a63.3,63.3,0,0,1,.39-7.4A35,35,0,0,0,45.6,40.91h.18a3,3,0,0,0,3-3,2.91,2.91,0,0,0-.23-1.15,7.7,7.7,0,0,1-.12-1.35,8.11,8.11,0,0,1,8.19-8,8.28,8.28,0,0,1,6,2.54,3,3,0,0,0,2.72.87c.68-.13,1.46-.23,2.28-.33l.88-.12C66.25,33.78,65.44,34.9,65.4,35Z"/></g></g></svg>