<svg xmlns="http://www.w3.org/2000/svg" viewBox="0 0 108.1 81.87"><defs><style>.cls-1{fill:#b63f88;}</style></defs><title>yt</title><g id="Layer_2" data-name="Layer 2"><g id="Capa_1" data-name="Capa 1"><path class="cls-1" d="M70.7,36.1,46.82,23a4.39,4.39,0,0,0-6.49,3.85V52.7a4.37,4.37,0,0,0,4.38,4.48,4.32,4.32,0,0,0,2.08-.53L70.67,43.81a4.39,4.39,0,0,0,0-7.71Zm-24,13.43V30.17l17.85,9.76Z"/><path class="cls-1" d="M107.3,19.32v-.05c-.09-.87-1-8.6-4.77-12.54A17.59,17.59,0,0,0,90.88,1.27l-.53-.07-.19,0C75.87.14,54.28,0,54.07,0h0c-.22,0-21.8.14-36.22,1.18l-.19,0-.5.06A17.18,17.18,0,0,0,5.53,6.89C2,10.79.91,18.36.81,19.21v.11c0,.37-.8,9-.8,17.64v8.09C0,53.7.76,62.32.8,62.68v.06c.09.85,1,8.45,4.75,12.39,4.09,4.47,9.26,5.06,12,5.38l1.07.14.25,0c8.26.78,34.13,1.17,35.22,1.18h.07c.21,0,21.8-.14,36.09-1.18l.19,0,.6-.07a16.71,16.71,0,0,0,11.48-5.49c3.59-3.9,4.62-11.47,4.73-12.32v-.11c0-.36.8-9,.8-17.63V37C108.1,28.31,107.33,19.69,107.3,19.32Zm-5.54,25.73c0,8-.7,16.25-.76,17-.27,2.09-1.36,6.88-3.11,8.78a10.46,10.46,0,0,1-7.48,3.47l-.67.07c-13.82,1-34.59,1.15-35.55,1.16s-26.56-.41-34.56-1.15c-.41-.07-.86-.12-1.32-.17-2.37-.27-5.61-.64-8.1-3.38l-.06-.07C8.43,69,7.37,64.51,7.1,62.09c0-.58-.77-8.92-.77-17V37c0-8,.7-16.24.77-17,.32-2.46,1.43-7,3.11-8.78a10.91,10.91,0,0,1,7.63-3.61l.52-.07c14-1,34.94-1.15,35.69-1.16s21.66.16,35.56,1.16l.56.07a11.35,11.35,0,0,1,7.75,3.51l0,0c1.72,1.79,2.78,6.35,3,8.82,0,.54.76,8.9.76,17Z"/></g></g></svg>