<?xml version="1.0" encoding="utf-8"?>
<!-- Generator: Adobe Illustrator 22.1.0, SVG Export Plug-In . SVG Version: 6.00 Build 0)  -->
<svg version="1.1" xmlns="http://www.w3.org/2000/svg" xmlns:xlink="http://www.w3.org/1999/xlink" x="0px" y="0px"
	 viewBox="0 0 1243 93" style="enable-background:new 0 0 1243 93;" xml:space="preserve">
<style type="text/css">
	.st0{fill:none;}
	.st1{clip-path:url(#SVGID_3_);fill:#E8BDCE;}
	.st2{clip-path:url(#SVGID_3_);fill:#D77A4C;}
	.st3{clip-path:url(#SVGID_3_);fill:#B83C88;}
	.st4{fill:url(#SVGID_5_);}
	.st5{fill:#FFFFFF;}
	.st6{fill:#A2236E;}
	.st7{fill:#6A296D;}
	.st8{fill:#5D2F6A;}
	.st9{display:none;}
	.st10{display:inline;fill:url(#SVGID_9_);}
	.st11{display:inline;fill:#FFFFFF;}
	.st12{fill:#B63F88;}
	.st13{filter:url(#Adobe_OpacityMaskFilter);}
	.st14{opacity:0.1;mask:url(#SVGID_11_);}
	.st15{display:inline;}
	.st16{fill:#FB6E4C;}
	.st17{opacity:0.91;}
	.st18{opacity:0.85;fill:#B63F88;}
	.st19{fill:#D67A52;}
	.st20{fill:#E7BECE;}
	.st21{fill:url(#);}
	.st22{fill:#F2F2F2;}
	.st23{clip-path:url(#SVGID_43_);}
	.st24{fill:#C8425A;}
	.st25{filter:url(#Adobe_OpacityMaskFilter_1_);}
	.st26{opacity:0.1;mask:url(#SVGID_44_);}
	.st27{fill:url(#SVGID_45_);}
	.st28{fill:url(#SVGID_46_);}
	.st29{fill:url(#SVGID_48_);}
</style>
<pattern  x="-2321" y="-5346" width="880" height="888" patternUnits="userSpaceOnUse" id="Unnamed_Pattern" viewBox="0 -999 880 888" style="overflow:visible;">
	<g>
		<rect y="-999" class="st0" width="880" height="888"/>
		<g>
			<defs>
				<rect id="SVGID_1_" y="-999" width="880" height="888"/>
			</defs>
			<clipPath id="SVGID_3_">
				<use xlink:href="#SVGID_1_"  style="overflow:visible;"/>
			</clipPath>
			<rect x="440" y="-1110" class="st1" width="440" height="222"/>
			<rect y="-1110" class="st2" width="440" height="222"/>
			<polygon class="st3" points="0,-888 440,-888 440,-999 			"/>
			<rect x="440" y="-888" class="st2" width="440" height="222"/>
			<polygon class="st3" points="440,-666 880,-666 880,-777 			"/>
			<rect y="-888" class="st1" width="440" height="222"/>
			<rect x="440" y="-666" class="st1" width="440" height="222"/>
			<rect y="-666" class="st2" width="440" height="222"/>
			<polygon class="st3" points="0,-444 440,-444 440,-555 			"/>
			<rect x="440" y="-444" class="st2" width="440" height="222"/>
			<polygon class="st3" points="440,-222 880,-222 880,-333 			"/>
			<rect y="-444" class="st1" width="440" height="222"/>
			<rect x="440" y="-222" class="st1" width="440" height="222"/>
			<rect y="-222" class="st2" width="440" height="222"/>
		</g>
	</g>
</pattern>
<g id="Layer_3">
</g>
<g id="Layer_4" class="st9">
</g>
<g id="Layer_2">
</g>
<g id="Capa_1">
	<g>
		
			<image style="overflow:visible;opacity:0.16;" width="1271" height="141" xlink:href="6388D13F.png"  transform="matrix(1 0 0 1 -20 -23)">
		</image>
		<g>
			<pattern  id="SVGID_5_" xlink:href="#Unnamed_Pattern" patternTransform="matrix(0 0.3455 0.5161 0 1815.8339 -5524.6763)">
			</pattern>
			<path class="st4" d="M1223.6,4v53.6c0,18.4-22,33.3-49.1,33.3H56.4c-27.1,0-49.1-14.9-49.1-33.3V4H1223.6z"/>
		</g>
	</g>
</g>
</svg>
