<svg xmlns="http://www.w3.org/2000/svg" viewBox="0 0 409.98 297.13"><defs><style>.cls-1{fill:#fff;}</style></defs><title>equidad</title><g id="Layer_2" data-name="Layer 2"><g id="Capa_1" data-name="Capa 1"><path class="cls-1" d="M332.19,164l-32.88,32.88c-.43-.52-.89-1-1.37-1.51l-42.47-42.46a6,6,0,0,0-8.5,8.5l42.46,42.46a9.36,9.36,0,1,1-13.23,13.24l-23.6-23.59a6,6,0,0,0-8.5,8.5l23.59,23.59.94.94a2.51,2.51,0,0,1,.42.55A9.52,9.52,0,0,1,256,240.25a2.94,2.94,0,0,1-.6-.45l-24.51-24.51a6,6,0,0,0-8.5,8.5L246,247.38a9.37,9.37,0,0,1,0,13.24A9.61,9.61,0,0,1,234.22,262a2.63,2.63,0,0,1-.59-.45L209.12,237a6,6,0,0,0-8.5,8.5l23.59,23.59a9.37,9.37,0,0,1,0,13.24,9.6,9.6,0,0,1-11.72,1.37,2.94,2.94,0,0,1-.6-.45l-16.2-16.2a21.16,21.16,0,0,0-3.18-25.81l-.36-.37a21.11,21.11,0,0,0-17.06-6.07,21.11,21.11,0,0,0-16-19.06,21.74,21.74,0,0,0-.19-15.88c-.08-.19-.16-.38-.25-.56A21.33,21.33,0,0,0,139.37,187a21.1,21.1,0,0,0-9.14,2.07c-2.53-9-11.09-16.64-25.86-16.37a5.6,5.6,0,0,0-3.86,1.65l-8,8-5.13-5.14a4,4,0,0,1-1.18-2.85V152.2a1.57,1.57,0,0,0-.46-1.11l-27-27L66,116.91a6,6,0,0,0-8.5-8.5l-9.66,9.67a4.7,4.7,0,0,1-6.62,0L8.68,85.56a1.59,1.59,0,0,0-1.11-.48C.09,85-1.85,92,1.76,95.65l30.93,30.93a16.69,16.69,0,0,0,11.81,4.88,17,17,0,0,0,4.07-.52l25.59,25.59V178.1a7.14,7.14,0,0,0,2.1,5.07L84,190.91,79.87,195a5.68,5.68,0,0,0-1,1.24c-5.28,9.47-3.62,19.85,3.06,26.53A21.06,21.06,0,0,0,96.92,229h.26c0,.09,0,.18,0,.27a21.13,21.13,0,0,0,21.13,21.13h.27a21.07,21.07,0,0,0,21.11,21.37H140a21,21,0,0,0,6.17,15.2l2.47,2.47a5.27,5.27,0,0,0,1.25,1c9.47,5.27,19.84,3.62,26.52-3.06L187.63,276l14.84,14.84a21.63,21.63,0,0,0,22.83,4.91l.59-.23A21.57,21.57,0,0,0,239,275.38h.38a21.36,21.36,0,0,0,21.36-21.76h.38a21.37,21.37,0,0,0,21.38-21.38c0-.12,0-.25,0-.37h.37a21.36,21.36,0,0,0,21.32-22.81l38.14-38.15a1.6,1.6,0,0,0,.49-1.11c.07-7.47-7-9.4-10.58-5.8ZM90.48,214.34a9.13,9.13,0,0,1,0-12.9l13-13a9.13,9.13,0,1,1,12.9,12.91l-13,13a9.15,9.15,0,0,1-12.91,0Zm27.88,24.1a9.13,9.13,0,0,1-6.46-15.58l13-13,8.1-8.1a9.13,9.13,0,0,1,12.9,12.91l-21.11,21.11a9.1,9.1,0,0,1-6.45,2.67Zm15,18.75a9.14,9.14,0,0,1,0-12.91l14.36-14.36a9.13,9.13,0,0,1,12.91,12.9l-14.37,14.37a9.13,9.13,0,0,1-12.9,0ZM168,279a9.1,9.1,0,0,1-12.9,0l-.36-.36a9.13,9.13,0,0,1,0-12.9l14.37-14.37h0l1.8-1.81a9.14,9.14,0,0,1,12.91,0l.36.36a9.14,9.14,0,0,1,0,12.91Z"/><path class="cls-1" d="M408.22,112.17a6,6,0,0,0-8.5,0L377.2,134.7a.82.82,0,0,1-1.14,0L296.44,58.65a.76.76,0,0,1-.25-.58.75.75,0,0,1,.24-.58l47.05-47.06a6.16,6.16,0,0,0,.66-8.11,6,6,0,0,0-9-.56L287.93,49a12.81,12.81,0,0,0-1.12,16.86L265.2,87,244.84,75.68a18,18,0,0,0-8.73-2.27H177.72l-4.37-4.36A40.87,40.87,0,0,0,159,59.76l-15.94-6.07-7.38-7.38a16.65,16.65,0,0,0-2.5-20.3L109.33,2.15a6.18,6.18,0,0,0-8.56-.31,6,6,0,0,0-.11,8.59l24,24a4.67,4.67,0,0,1,0,6.6L76,89.76a6.21,6.21,0,0,0-.07,8.8,6,6,0,0,0,8.35-.13l43.27-43.27,7.92,7.91a6,6,0,0,0,2.11,1.37L154.78,71a28.51,28.51,0,0,1,9.84,6.31c-.36.3-.72.62-1.06,1l-22.8,22.8a23.8,23.8,0,0,0-7,16.77,23.92,23.92,0,0,0,39.16,18.67l17.25-14.19h18.38l20.59,20.6a6,6,0,0,0,8.5-8.5l-14.88-14.88a6,6,0,0,0,.85-4.33,6.13,6.13,0,0,0-6.1-4.91H188.13a6,6,0,0,0-3.8,1.36l-18.86,15.51a11.93,11.93,0,0,1-17.78-3,11.25,11.25,0,0,1-1.34-3.13,12,12,0,0,1,3.11-11.54l22.73-22.73a4.45,4.45,0,0,1,3.19-1.32h60.73a5.9,5.9,0,0,1,2.87.74L261.5,98.74a8.75,8.75,0,0,0,10.34-1.38l23.55-23.09,64.81,61.91-9.27,9.28a6.43,6.43,0,0,0-.79,7.93,6,6,0,0,0,9.13.73l9.7-9.71a12.9,12.9,0,0,0,16.73-1.21l22.52-22.52a6,6,0,0,0,0-8.51Z"/></g></g></svg>