<svg xmlns="http://www.w3.org/2000/svg" viewBox="0 0 344.04 322.02"><defs><style>.cls-1{fill:#fff;}</style></defs><title>jueces</title><g id="Layer_2" data-name="Layer 2"><g id="Capa_1" data-name="Capa 1"><path class="cls-1" d="M84.2,80.62a7.15,7.15,0,1,0,0,10.11A7.14,7.14,0,0,0,84.2,80.62Z"/><path class="cls-1" d="M181,275.85a24.86,24.86,0,0,0,4.83-16c-.58-13.14-12.34-23.87-25.5-23.87h-121a25,25,0,0,0-20.15,39.84A35.79,35.79,0,0,0,0,307.5v7.15a7.15,7.15,0,0,0,7.15,7.15H193a7.15,7.15,0,0,0,7.15-7.15V307.5A35.77,35.77,0,0,0,181,275.85ZM39.38,250.3H161c4,0,8.59,3,9.93,6.83a10.83,10.83,0,0,1-4.58,13.15,10.6,10.6,0,0,1-5.52,1.47H39.21c-4,0-8.58-3-9.93-6.82a10.84,10.84,0,0,1,4.59-13.16A10.54,10.54,0,0,1,39.38,250.3ZM14.3,307.5a21.47,21.47,0,0,1,21.44-21.45h128.7a21.47,21.47,0,0,1,21.44,21.45Z"/><path class="cls-1" d="M338.19,264.24a39.7,39.7,0,0,0-7.58-8.7l-29.39-25.63a6.17,6.17,0,0,0-.79-1,6.42,6.42,0,0,0-1.71-1.21L281,212.22l-82.26-71.75a18.86,18.86,0,0,0-.31-26.37,18.53,18.53,0,0,0-5.22-3.67l7.61-7.61a25.6,25.6,0,0,0,6.5.85,25.15,25.15,0,0,0,17.79-42.94L171.7,7.37a25.15,25.15,0,0,0-42.08,24.29L53.69,107.59a25.3,25.3,0,0,0-6.52-.85,25.15,25.15,0,0,0-17.78,42.94L82.75,203a25.15,25.15,0,0,0,42.08-24.28l7.6-7.6a18.88,18.88,0,0,0,30,5.52l87.61,100.66a6.72,6.72,0,0,0,.86,1.07l.35.32,26.11,30c.65.77,1.34,1.52,2.06,2.24A37.39,37.39,0,0,0,306.05,322a38,38,0,0,0,33.38-19.8A37.24,37.24,0,0,0,338.19,264.24ZM145,16.27a12.57,12.57,0,0,1,17.79,0l53.37,53.36a12.58,12.58,0,0,1-17.79,17.79L145,34.05h0A12.59,12.59,0,0,1,145,16.27ZM109.44,194.15a12.59,12.59,0,0,1-17.79,0L38.28,140.79A12.58,12.58,0,1,1,56.06,123l53.38,53.38A12.59,12.59,0,0,1,109.44,194.15Zm26.48-44.27-17.59,17.59L65,114.1l71.16-71.16,53.37,53.37-17.62,17.62-.18.17-35.56,35.56ZM158.38,163l0,0-4.43,4.43a6.29,6.29,0,0,1-9-8.82l35.72-35.72a6.32,6.32,0,0,1,8.83.06,6.3,6.3,0,0,1,0,8.9l-4.41,4.41-.09.09Zm13,4.77,18.38-18.38,77.83,67.88-28.4,28.4Zm76.09,87.41,29.62-29.62,9.5,8.29L255.76,264.7Zm81,40.89a25.59,25.59,0,0,1-18.83,13.13,25,25,0,0,1-21.26-7.13q-.72-.74-1.38-1.5l-.06-.07L264,274.21l32.07-32.07L322.37,265l.06,0a27,27,0,0,1,5.19,6A24.82,24.82,0,0,1,328.45,296.07Z"/><path class="cls-1" d="M134.76,30.06a7.15,7.15,0,0,0-10.11,0L94.31,60.4a7.15,7.15,0,0,0,10.11,10.11l30.34-30.34A7.15,7.15,0,0,0,134.76,30.06Z"/></g></g></svg>