<svg xmlns="http://www.w3.org/2000/svg" viewBox="0 0 335.01 267.04"><defs><style>.cls-1{fill:#fff;}</style></defs><title>oradores</title><g id="Layer_2" data-name="Layer 2"><g id="Capa_1" data-name="Capa 1"><path class="cls-1" d="M334.49,109.72c-5.73-6.07-12.77-2.1-12.77,3.5v43.22a4.42,4.42,0,0,1-4.42,4.42H260.56a6.54,6.54,0,0,0-4.63,1.92l-45.3,45.29V167.4a6.54,6.54,0,0,0-6.54-6.54H110.2a24.28,24.28,0,0,1-24.27-24.27V37.37A24.27,24.27,0,0,1,110.2,13.1H314.92a6.8,6.8,0,0,1,6.8,6.79V63.07a1.9,1.9,0,0,0,.56,1.35c5.66,5.72,12.54,1.79,12.54-3.74V37.35A37.36,37.36,0,0,0,297.46,0H110.19A37.36,37.36,0,0,0,72.83,37.36v84.2H25.31A25.31,25.31,0,0,0,0,146.87v60.46a25.31,25.31,0,0,0,25.31,25.31H45.4l32.48,32.48a6.57,6.57,0,0,0,9.5-.23,6.7,6.7,0,0,0,1.69-4.55v-27.7h50.67a25.31,25.31,0,0,0,25.31-25.31V174h32.49v49.73a6.65,6.65,0,0,0,2,4.89,6.47,6.47,0,0,0,9.08-.12L262.81,174H328a6.8,6.8,0,0,0,6.8-6.8V110.55A1.21,1.21,0,0,0,334.49,109.72Zm-183.06,97.6a12.23,12.23,0,0,1-12.23,12.22H82.52A6.54,6.54,0,0,0,76,226.09v18.55L52.8,221.46a6.56,6.56,0,0,0-4.63-1.92H25.32A12.22,12.22,0,0,1,13.1,207.32V146.89a12.22,12.22,0,0,1,12.22-12.23H72.83v1.42a37.36,37.36,0,0,0,37.36,37.35h41.24Z"/><path class="cls-1" d="M267.83,43H140.29a6.66,6.66,0,0,0-6.64,5.47,6.56,6.56,0,0,0,6.47,7.62H267.65a6.67,6.67,0,0,0,6.65-5.46A6.56,6.56,0,0,0,267.83,43Z"/><path class="cls-1" d="M267.65,78.07H140.29a6.67,6.67,0,0,0-6.64,5.47,6.56,6.56,0,0,0,6.47,7.63H267.83a6.56,6.56,0,0,0,6.47-7.63A6.67,6.67,0,0,0,267.65,78.07Z"/><path class="cls-1" d="M140.14,113.7a6.55,6.55,0,0,0-6.46,7.63,6.65,6.65,0,0,0,6.64,5.47h73.33a6.66,6.66,0,0,0,6.64-5.47,6.56,6.56,0,0,0-6.47-7.63Z"/><path class="cls-1" d="M328.47,80.3A6.55,6.55,0,1,0,335,86.84,6.56,6.56,0,0,0,328.47,80.3Z"/></g></g></svg>