<svg xmlns="http://www.w3.org/2000/svg" viewBox="0 0 266.61 313.32"><defs><style>.cls-1{fill:#fff;}</style></defs><title>reglamento</title><g id="Layer_2" data-name="Layer 2"><g id="Capa_1" data-name="Capa 1"><path class="cls-1" d="M181,4.05,167.52,7.92l-1.27-4.38A4.79,4.79,0,0,0,161.08,0a4.7,4.7,0,0,0-3.86,6l1.3,4.51-54,15.55-1.26-4.38a4.8,4.8,0,0,0-5.17-3.5,4.69,4.69,0,0,0-3.86,6l1.3,4.51L41,44.35,39.78,40a4.78,4.78,0,0,0-5.17-3.5,4.69,4.69,0,0,0-3.87,6L32,46.94,18.55,50.83A14.06,14.06,0,0,0,8.94,68.21l24.57,85.3A4.79,4.79,0,0,0,39.07,157a4.68,4.68,0,0,0,3.49-5.87L17.94,65.62a4.69,4.69,0,0,1,3.2-5.79l13.49-3.89,2.85,9.86a14,14,0,1,0,9-2.59l-2.84-9.86,54.51-15.7L101,47.51a14.06,14.06,0,1,0,9-2.59l-2.84-9.86,54-15.55L164,29.37a14.06,14.06,0,1,0,9-2.59l-2.84-9.86L183.6,13a4.7,4.7,0,0,1,5.8,3.22l67.67,234.93a4.69,4.69,0,0,1-3.2,5.81L91.41,303.79a4.7,4.7,0,0,1-5.8-3.22L67.44,237.48a4.79,4.79,0,0,0-5.17-3.5,4.69,4.69,0,0,0-3.86,6l18.2,63.18A14.09,14.09,0,0,0,94,312.77L256.43,266a14.11,14.11,0,0,0,9.63-17.45L198.41,13.7A14.1,14.1,0,0,0,181,4.05ZM47,81.8A4.7,4.7,0,1,1,50.21,76,4.69,4.69,0,0,1,47,81.8Zm63.23-18.21a4.7,4.7,0,1,1,3.21-5.82A4.7,4.7,0,0,1,110.22,63.59Zm63.22-18.21a4.7,4.7,0,1,1,3.21-5.82A4.7,4.7,0,0,1,173.44,45.38Z"/><path class="cls-1" d="M61.3,131.47l.32-.1a4.68,4.68,0,0,0,2.77-2.74l8.35-22A4.7,4.7,0,0,0,64,103.32l-6.42,16.9-6.89-3.8a4.7,4.7,0,0,0-4.54,8.22l11.63,6.43A4.68,4.68,0,0,0,61.3,131.47Z"/><path class="cls-1" d="M60.4,174.31,72,180.74a4.68,4.68,0,0,0,3.57.41l.32-.11a4.66,4.66,0,0,0,2.77-2.74l8.35-22A4.7,4.7,0,1,0,78.26,153l-6.42,16.9L65,166.09a4.7,4.7,0,0,0-4.55,8.22Z"/><path class="cls-1" d="M91.86,118l103.3-29.75a4.8,4.8,0,0,0,3.44-5.56,4.68,4.68,0,0,0-5.87-3.49L89.44,108.93A4.79,4.79,0,0,0,86,114.48,4.68,4.68,0,0,0,91.86,118Z"/><path class="cls-1" d="M106,167.19l103.29-29.76a4.79,4.79,0,0,0,3.45-5.55,4.68,4.68,0,0,0-5.87-3.49L103.62,158.14a4.8,4.8,0,0,0-3.45,5.56A4.69,4.69,0,0,0,106,167.19Z"/><path class="cls-1" d="M120.37,216.93l103.29-29.75a4.81,4.81,0,0,0,3.45-5.56,4.69,4.69,0,0,0-5.87-3.49L118,207.88a4.81,4.81,0,0,0-3.45,5.56A4.69,4.69,0,0,0,120.37,216.93Z"/><path class="cls-1" d="M134.7,266.67,238,236.92a4.81,4.81,0,0,0,3.45-5.56,4.68,4.68,0,0,0-5.87-3.48L132.28,257.63a4.8,4.8,0,0,0-3.45,5.56A4.68,4.68,0,0,0,134.7,266.67Z"/><path class="cls-1" d="M85.27,222.1l4.25,2.35a4.7,4.7,0,1,0,4.54-8.22l-4.13-2.29A36.78,36.78,0,0,0,73.75,193L22.28,161.83a14.54,14.54,0,0,0-10.57-1.76c-.27.06-.54.06-.81.13h0a15.23,15.23,0,0,0-7.36,4.63,14.67,14.67,0,0,0,3.54,22.07L16,192.29h0l42,25.45A37,37,0,0,0,85.27,222.1ZM12,179a5.26,5.26,0,0,1,1.27-9.55l.11,0a5.19,5.19,0,0,1,4.07.58l4.34,2.63-5.09,9.22Zm17.84-1.49,39.09,23.69a27.47,27.47,0,0,1,10.93,12.47,27.52,27.52,0,0,1-17-3.84L24.73,186.74Z"/></g></g></svg>