<svg xmlns="http://www.w3.org/2000/svg" viewBox="0 0 354.15 353.06"><defs><style>.cls-1{fill:#fff;}</style></defs><title>taller jueces</title><g id="Layer_2" data-name="Layer 2"><g id="Capa_1" data-name="Capa 1"><g id="Page-1"><g id="_026---Idea" data-name="026---Idea"><path id="Shape" class="cls-1" d="M327.61,185.15a12,12,0,0,0-11.75-9.71H304.33l-.86-4.9a12,12,0,0,0-10-9.92c-1.14-.18-2.29-.3-3.42-.46a36.52,36.52,0,0,0-4.56-26.71,24.49,24.49,0,0,0-17.75-32.78,51,51,0,0,0-49.8-41.61c-.59,0-1.13.08-1.7.1A24.37,24.37,0,0,0,179,54.52a41.14,41.14,0,0,0-55,9.46A29.83,29.83,0,0,0,85.79,90.79a24.24,24.24,0,0,0-14.5,27.82,48.21,48.21,0,0,0-5.75,41.33c-1.6.22-3.24.42-4.79.65a12,12,0,0,0-10.09,9.91l-.85,5.64H38.12a11.92,11.92,0,0,0-11.69,9.65l-26.1,134a17.89,17.89,0,0,0,17.59,21.3h125c5,8.17,20,12,34.22,12,14,0,29-3.71,34.07-12h125a18,18,0,0,0,17.67-21.38ZM88.35,124.34a13.08,13.08,0,0,1-5.23-14.2,12.65,12.65,0,0,1,12.15-9.29,12.42,12.42,0,0,1,10,5.08,6,6,0,1,0,9.62-7.14,24.2,24.2,0,0,0-17-9.58,18.21,18.21,0,0,1,17.76-14.42,20.18,20.18,0,0,1,2.18.24,35.89,35.89,0,0,0-1.26,3.75,6,6,0,0,0,11.59,3,29.28,29.28,0,0,1,28.38-21.92,29,29,0,0,1,15.86,4.79,24.17,24.17,0,0,0-1.4,7.85,6,6,0,1,0,12,0,12.6,12.6,0,0,1,25.2,0,6,6,0,0,0,12,0c0-.46-.11-.89-.14-1.36a38.88,38.88,0,0,1,35.47,30A24.28,24.28,0,0,0,247.8,105a6,6,0,1,0,7.19,9.58,12.63,12.63,0,0,1,18.52,16.34,12.78,12.78,0,0,1-5.67,5.24,6,6,0,0,0,2.55,11.38,5.75,5.75,0,0,0,2.54-.57,23.74,23.74,0,0,0,4.47-2.79,25.56,25.56,0,0,1-5.06,25.54l-.15.15a25.85,25.85,0,0,1-30.54,5.61,23.44,23.44,0,0,1-2.9-1.81,20.4,20.4,0,0,0,1.58-21.08A6,6,0,0,0,229.62,158a8.91,8.91,0,0,1-2.88,11.29,9,9,0,0,1-13-3.32A6,6,0,0,0,203,171.3a20.61,20.61,0,0,0,26.18,10.07,35.7,35.7,0,0,0,7,4.79,37,37,0,0,0,27.67,2.56,38.19,38.19,0,0,1-24.67,15.12,6,6,0,0,0,.94,11.9,6.2,6.2,0,0,0,1-.07,49.17,49.17,0,0,0,10.62-3.1,53.58,53.58,0,0,1,4.47,10.28,6.11,6.11,0,0,1,.31,1.94,6.47,6.47,0,0,1-3.93,5.94,6.79,6.79,0,0,1-7.73-2.08A38.23,38.23,0,0,0,227.32,217c-12.94-4.34-17.94-8.21-20.06-12.43a58.46,58.46,0,0,0,9.18-1.91,6,6,0,0,0-3.52-11.46,45.42,45.42,0,0,1-10.34,1.9,44.4,44.4,0,0,1-19.85-3,6,6,0,0,0-6.71,1.67,25.65,25.65,0,0,1-41.37-30,6,6,0,1,0-10.3-6.18,37.7,37.7,0,0,0-3.43,7.71,9.31,9.31,0,0,1-8.71-8.83v-.15a5,5,0,0,0-1.56-4.2,5.93,5.93,0,0,0-4.23-1.71,6.05,6.05,0,0,0-6,6.06A20.84,20.84,0,0,0,119,175.16a37.57,37.57,0,0,0,.54,6A36.6,36.6,0,0,1,78.16,131a24.68,24.68,0,0,0,4.46,3.55,6,6,0,0,0,8.16-2.08,5.76,5.76,0,0,0-2.43-8.18ZM63,172.71c2.75-.41,5.59-.77,8.41-1.14a48.17,48.17,0,0,0,52.32,21.23,37.36,37.36,0,0,0,58.54,9.92A57.22,57.22,0,0,0,194.7,205c2.88,10.93,11.21,17.55,28.71,23.42a26.36,26.36,0,0,1,12.15,8A19,19,0,0,0,250,243.17a18,18,0,0,0,7.08-1.45,18.35,18.35,0,0,0,11.15-16.89,17.75,17.75,0,0,0-.9-5.64A64.74,64.74,0,0,0,262,207.05a50.25,50.25,0,0,0,19.83-30.32,36.85,36.85,0,0,0,3.43-4.81c2,.26,4,.48,6,.82l21.54,129.55a204.77,204.77,0,0,0-129.73,0V227.83a6.11,6.11,0,0,0-5.59-6.18,6,6,0,0,0-6.34,5.95v74.71a204.84,204.84,0,0,0-129.73-.05ZM13.24,327A6,6,0,0,1,12,322L38.22,187.37H47.8L29,300.34a12,12,0,0,0,15.46,13.38,200.32,200.32,0,0,1,98.94-6.28l-1.79,21.71H17.91A6,6,0,0,1,13.24,327Zm163.81,14.42c-14.42,0-22.7-4.27-23.92-6.17l2.06-24.85a128.38,128.38,0,0,1,19.28,6.46,5.89,5.89,0,0,0,5.18,0,128.08,128.08,0,0,1,19.27-6.51L201,335.2c-1.22,1.9-9.5,6.17-23.93,6.17ZM340.87,327a6,6,0,0,1-4.67,2.2H212.51l-1.8-21.75a200.41,200.41,0,0,1,99,6.33,12,12,0,0,0,15.4-13.41L306.32,187.37h9.59L342.14,322a5.92,5.92,0,0,1-1.27,4.92Z"/><path id="Shape-2" data-name="Shape" class="cls-1" d="M157.21,135.84a6,6,0,0,0-.43,8.45A36.08,36.08,0,0,0,176,155.36a17.84,17.84,0,0,1-14.58,7.52,6,6,0,1,0,0,12,29.69,29.69,0,0,0,27.9-19.21,36.13,36.13,0,0,0,29.57-28.75,6,6,0,1,0-11.76-2.25,23.87,23.87,0,0,1-9.92,15.21,24.46,24.46,0,0,1-31.53-3.6,6,6,0,0,0-8.45-.42Z"/><path id="Shape-3" data-name="Shape" class="cls-1" d="M136.33,129.34a6,6,0,0,0,6-6,15.57,15.57,0,0,1,15.57-15.57,6,6,0,1,0,0-12,27.57,27.57,0,0,0-27.55,27.55,6,6,0,0,0,6,6Z"/><path id="Shape-4" data-name="Shape" class="cls-1" d="M183.1,11.93V6.19A6.11,6.11,0,0,0,177.51,0a6,6,0,0,0-6.34,6v5.74a6.12,6.12,0,0,0,5.59,6.18A6,6,0,0,0,183.1,11.93Z"/><path id="Shape-5" data-name="Shape" class="cls-1" d="M275.34,43l-6,6a6,6,0,1,0,8.47,8.47l6-6A6,6,0,1,0,275.34,43Z"/><path id="Shape-6" data-name="Shape" class="cls-1" d="M80.52,59.16a6,6,0,0,0,4.24-10.23l-6-6a6,6,0,1,0-8.47,8.46l6,6A6,6,0,0,0,80.52,59.16Z"/><path id="Shape-7" data-name="Shape" class="cls-1" d="M126.63,34a6.16,6.16,0,0,0,2.29-.46,6,6,0,0,0,3.24-7.83l-6.88-16.6a6,6,0,1,0-11.06,4.59l6.87,16.6a6,6,0,0,0,5.54,3.7Z"/><path id="Shape-8" data-name="Shape" class="cls-1" d="M236.65,5.83a6,6,0,0,0-7.82,3.24L222,25.67a6,6,0,0,0,3.24,7.84,6.15,6.15,0,0,0,2.29.45A6,6,0,0,0,233,30.27l6.88-16.61a6,6,0,0,0-3.24-7.83Z"/><path id="Shape-9" data-name="Shape" class="cls-1" d="M298.79,105.27a6,6,0,0,0,2.29-.46l16.6-6.87a6,6,0,1,0-4.58-11.07l-16.6,6.87a6,6,0,0,0,2.29,11.53Z"/><path id="Shape-10" data-name="Shape" class="cls-1" d="M53,104.81a6,6,0,1,0,4.59-11.07L41,86.87a6,6,0,1,0-4.58,11.07Z"/></g></g></g></g></svg>