<svg xmlns="http://www.w3.org/2000/svg" viewBox="0 0 281 281"><defs><style>.cls-1{fill:#fff;}</style></defs><title>tecnicas</title><g id="Layer_2" data-name="Layer 2"><g id="Capa_1" data-name="Capa 1"><path class="cls-1" d="M49.42,217.31a23,23,0,0,0-11.07,2.82A129.6,129.6,0,0,1,166.29,13.54a5.49,5.49,0,0,0,2.18-10.76A142.19,142.19,0,0,0,140.5,0,140.5,140.5,0,0,0,30.23,227.57a23.07,23.07,0,1,0,19.19-10.26ZM58,248.9a12.07,12.07,0,1,1,3.54-8.54A12,12,0,0,1,58,248.9Z"/><path class="cls-1" d="M250.76,53.42a23,23,0,1,0-8.11,7.45A129.58,129.58,0,0,1,115,267.5a5.49,5.49,0,1,0-2.15,10.77A141.71,141.71,0,0,0,140.5,281,140.5,140.5,0,0,0,250.76,53.42ZM223,49.18a12.07,12.07,0,1,1,8.54,3.54A12,12,0,0,1,223,49.18Z"/><path class="cls-1" d="M118.12,234.9a5.49,5.49,0,0,0,5.49,5.49h34a5.48,5.48,0,0,0,5.48-5.49V224.24a86.43,86.43,0,0,0,20.64-8.55l7.47,7.47a5.47,5.47,0,0,0,7.83.05l24.3-24.3a5.5,5.5,0,0,0,0-7.77l-7.52-7.51A86,86,0,0,0,224.39,163H235a5.49,5.49,0,0,0,5.49-5.49v-34A5.49,5.49,0,0,0,235,118H224.39a86.09,86.09,0,0,0-8.55-20.65l7.48-7.48a5.5,5.5,0,0,0,0-7.79L199,57.77a5.5,5.5,0,0,0-7.78,0l-7.46,7.47a86.46,86.46,0,0,0-20.64-8.56V46.1a5.48,5.48,0,0,0-5.48-5.49h-34a5.49,5.49,0,0,0-5.49,5.49V56.69a86,86,0,0,0-20.64,8.55L90,57.77a5.49,5.49,0,0,0-7.77,0L57.91,82.09A5.53,5.53,0,0,0,57,88.64a5.78,5.78,0,0,0,1,1.25l7.46,7.46A85.92,85.92,0,0,0,56.84,118H46.23a5.49,5.49,0,0,0-5.49,5.5l0,34a5.53,5.53,0,0,0,4.09,5.34,5.31,5.31,0,0,0,1.42.17H56.87a86.7,86.7,0,0,0,8.58,20.69l-7.54,7.54a5.51,5.51,0,0,0,0,7.79L82.27,223.4a5.51,5.51,0,0,0,3.9,1.62h.33a5.39,5.39,0,0,0,3.83-1.59L97.76,216a84.69,84.69,0,0,0,20.36,8.44ZM99.41,204.18a5.48,5.48,0,0,0-6.86.73l-6.69,6.68L69.37,195.08,76,188.4a5.48,5.48,0,0,0,.73-6.86,75.2,75.2,0,0,1-10.39-25.09C65.83,153.93,61,152,61,152h-9.3v-23.6H60a5.53,5.53,0,0,0,5.42-4.32,74.11,74.11,0,0,1,10.51-25,5.41,5.41,0,0,0-.73-6.83l-6.71-6.6L85.16,69.29l6.7,6.59a5.63,5.63,0,0,0,6.94.73,76.61,76.61,0,0,1,25.36-10.35,5.49,5.49,0,0,0,4.39-5.34V51.59h23.6v8.26a5.54,5.54,0,0,0,4.34,5.43,74.83,74.83,0,0,1,25.13,10.51,5.46,5.46,0,0,0,6.87-.74l6.64-6.7L211.67,85,205,91.74a5.58,5.58,0,0,0-.73,6.94A76.53,76.53,0,0,1,214.71,124a5.5,5.5,0,0,0,5.37,4.39h9.45V152H220s-4.82,1.9-5.37,4.42a75.2,75.2,0,0,1-10.39,25.09,5.48,5.48,0,0,0,.73,6.86l6.67,6.68-16.5,16.51-6.68-6.68a5.48,5.48,0,0,0-6.86-.73,75.2,75.2,0,0,1-25.09,10.39,5.53,5.53,0,0,0-4.35,5.37v9.47h-23.6v-9.47a5,5,0,0,0-4.06-5.37A75.23,75.23,0,0,1,99.41,204.18Z"/><path class="cls-1" d="M185.85,140.5a45.35,45.35,0,1,0-45.35,45.35A45.4,45.4,0,0,0,185.85,140.5Zm-79.72,0a34.37,34.37,0,1,1,34.37,34.37A34.41,34.41,0,0,1,106.13,140.5Z"/><path class="cls-1" d="M191,20.76a5.5,5.5,0,1,0-3.88-1.61A5.56,5.56,0,0,0,191,20.76Z"/><path class="cls-1" d="M90.21,260.34A5.48,5.48,0,1,0,94.09,262,5.56,5.56,0,0,0,90.21,260.34Z"/></g></g></svg>