<svg xmlns="http://www.w3.org/2000/svg" viewBox="0 0 277.14 390"><defs><style>.cls-1{fill:#6a296d;}</style></defs><title>icono_1</title><g id="Layer_2" data-name="Layer 2"><g id="Capa_1" data-name="Capa 1"><path class="cls-1" d="M69.41,245.61a29,29,0,0,0-33.17-46.52A117.14,117.14,0,0,1,125.49,15.23,7.62,7.62,0,0,0,124.62,0,132.42,132.42,0,0,0,0,132.15a131,131,0,0,0,24.74,77,29,29,0,0,0,44.67,36.41ZM39.23,215.43a13.72,13.72,0,1,1,0,19.4A13.65,13.65,0,0,1,39.23,215.43Z"/><path class="cls-1" d="M249.88,264.06a27.11,27.11,0,0,0-13.28,3.46,27.25,27.25,0,0,0-45.66-10.7,27.28,27.28,0,0,0-4.56-3.81,132.43,132.43,0,0,0,78.34-120.86A131.15,131.15,0,0,0,240,55.1a29,29,0,1,0-11.52,10.1,117.17,117.17,0,0,1-69.19,181v-41a77.79,77.79,0,1,0-104.71-73A77.17,77.17,0,0,0,70,178.7a78.56,78.56,0,0,0,34.71,26.17V317l-9.57-15.71a28.07,28.07,0,0,0-38.24-9.76,28.36,28.36,0,0,0-11.27,36.8l28.43,57.44A7.62,7.62,0,1,0,87.75,379l-28.4-57.37a13,13,0,0,1,22.8-12.42l23.71,38.89a7.62,7.62,0,0,0,14.13-4V169.26a12,12,0,0,1,24,0V314a7.63,7.63,0,0,0,15.25,0v-38.3a12,12,0,1,1,24,0v41.08a7.62,7.62,0,0,0,15.24,0V275.71a12,12,0,1,1,24.05,0V317.3a7.62,7.62,0,0,0,15.24,0v-26a12,12,0,0,1,24,0v91a7.62,7.62,0,1,0,15.24,0v-91A27.3,27.3,0,0,0,249.88,264.06ZM206.09,48.87a13.72,13.72,0,1,1,19.41,0A13.73,13.73,0,0,1,206.09,48.87ZM69.82,132.15a62.55,62.55,0,1,1,89.46,56.47V169.26a27.18,27.18,0,0,0-2.76-11.94,34.91,34.91,0,1,0-48.78-.45,27.05,27.05,0,0,0-3,12.39v19A62.22,62.22,0,0,1,69.82,132.15Zm48.36,13.62a19.47,19.47,0,0,1-5.48-13.62A19.67,19.67,0,1,1,146.27,146a27.22,27.22,0,0,0-28.09-.27Z"/><path class="cls-1" d="M159.35,18a7.62,7.62,0,0,0,5.39-13A7.62,7.62,0,1,0,154,15.73,7.68,7.68,0,0,0,159.35,18Z"/></g></g></svg>