<svg xmlns="http://www.w3.org/2000/svg" xmlns:xlink="http://www.w3.org/1999/xlink" viewBox="0 0 3895 982"><defs><style>.cls-1{fill:none;}.cls-2{fill:#d67a52;}.cls-3{fill:#b63f88;}.cls-4{fill:#e7bece;}.cls-5{fill:#fff;}.cls-6{fill:url(#Nueva_muestra_de_motivo_5);}.cls-7{fill:url(#Nueva_muestra_de_motivo_5-3);}</style><pattern id="Nueva_muestra_de_motivo_5" data-name="Nueva muestra de motivo 5" width="1811.02" height="1816.69" patternUnits="userSpaceOnUse" viewBox="0 0 1811.02 1816.69"><rect class="cls-1" width="1811.02" height="1816.69"/><rect class="cls-2" width="226.38" height="113.54"/><polygon class="cls-3" points="0 0 226.38 56.77 226.38 0 0 0"/><rect class="cls-4" x="226.38" width="226.38" height="113.54"/><rect class="cls-2" x="452.75" width="226.38" height="113.54"/><polygon class="cls-3" points="452.75 0 679.13 56.77 679.13 0 452.75 0"/><rect class="cls-4" x="679.13" width="226.38" height="113.54"/><rect class="cls-2" x="905.51" width="226.38" height="113.54"/><polygon class="cls-3" points="905.51 0 1131.88 56.77 1131.88 0 905.51 0"/><rect class="cls-4" x="1131.88" width="226.38" height="113.54"/><rect class="cls-2" x="1358.26" width="226.38" height="113.54"/><polygon class="cls-3" points="1358.26 0 1584.64 56.77 1584.64 0 1358.26 0"/><rect class="cls-4" x="1584.64" width="226.38" height="113.54"/><polygon class="cls-2" points="1584.64 113.54 1811.02 113.54 1811.02 227.09 1584.64 227.09 1584.64 113.54"/><polygon class="cls-3" points="1811.02 227.09 1584.64 170.31 1584.64 227.09 1811.02 227.09"/><polygon class="cls-4" points="1358.26 113.54 1584.64 113.54 1584.64 227.09 1358.26 227.09 1358.26 113.54"/><polygon class="cls-2" points="1131.88 113.54 1358.26 113.54 1358.26 227.09 1131.88 227.09 1131.88 113.54"/><polygon class="cls-3" points="1358.26 227.09 1131.88 170.31 1131.88 227.09 1358.26 227.09"/><polygon class="cls-4" points="905.51 113.54 1131.88 113.54 1131.88 227.09 905.51 227.09 905.51 113.54"/><polygon class="cls-2" points="679.13 113.54 905.51 113.54 905.51 227.09 679.13 227.09 679.13 113.54"/><polygon class="cls-3" points="905.51 227.09 679.13 170.31 679.13 227.09 905.51 227.09"/><polygon class="cls-4" points="452.75 113.54 679.13 113.54 679.13 227.09 452.75 227.09 452.75 113.54"/><polygon class="cls-2" points="226.38 113.54 452.75 113.54 452.75 227.09 226.38 227.09 226.38 113.54"/><polygon class="cls-3" points="452.75 227.09 226.38 170.31 226.38 227.09 452.75 227.09"/><polygon class="cls-4" points="0 113.54 226.38 113.54 226.38 227.09 0 227.09 0 113.54"/><rect class="cls-2" y="227.09" width="226.38" height="113.54"/><polygon class="cls-3" points="0 227.09 226.38 283.86 226.38 227.09 0 227.09"/><rect class="cls-4" x="226.38" y="227.09" width="226.38" height="113.54"/><rect class="cls-2" x="452.75" y="227.09" width="226.38" height="113.54"/><polygon class="cls-3" points="452.75 227.09 679.13 283.86 679.13 227.09 452.75 227.09"/><rect class="cls-4" x="679.13" y="227.09" width="226.38" height="113.54"/><rect class="cls-2" x="905.51" y="227.09" width="226.38" height="113.54"/><polygon class="cls-3" points="905.51 227.09 1131.88 283.86 1131.88 227.09 905.51 227.09"/><rect class="cls-4" x="1131.88" y="227.09" width="226.38" height="113.54"/><rect class="cls-2" x="1358.26" y="227.09" width="226.38" height="113.54"/><polygon class="cls-3" points="1358.26 227.09 1584.64 283.86 1584.64 227.09 1358.26 227.09"/><rect class="cls-4" x="1584.64" y="227.09" width="226.38" height="113.54"/><polygon class="cls-2" points="1584.64 340.63 1811.02 340.63 1811.02 454.17 1584.64 454.17 1584.64 340.63"/><polygon class="cls-3" points="1811.02 454.17 1584.64 397.4 1584.64 454.17 1811.02 454.17"/><polygon class="cls-4" points="1358.26 340.63 1584.64 340.63 1584.64 454.17 1358.26 454.17 1358.26 340.63"/><polygon class="cls-2" points="1131.88 340.63 1358.26 340.63 1358.26 454.17 1131.88 454.17 1131.88 340.63"/><polygon class="cls-3" points="1358.26 454.17 1131.88 397.4 1131.88 454.17 1358.26 454.17"/><polygon class="cls-4" points="905.51 340.63 1131.88 340.63 1131.88 454.17 905.51 454.17 905.51 340.63"/><polygon class="cls-2" points="679.13 340.63 905.51 340.63 905.51 454.17 679.13 454.17 679.13 340.63"/><polygon class="cls-3" points="905.51 454.17 679.13 397.4 679.13 454.17 905.51 454.17"/><polygon class="cls-4" points="452.75 340.63 679.13 340.63 679.13 454.17 452.75 454.17 452.75 340.63"/><polygon class="cls-2" points="226.38 340.63 452.75 340.63 452.75 454.17 226.38 454.17 226.38 340.63"/><polygon class="cls-3" points="452.75 454.17 226.38 397.4 226.38 454.17 452.75 454.17"/><polygon class="cls-4" points="0 340.63 226.38 340.63 226.38 454.17 0 454.17 0 340.63"/><rect class="cls-2" y="454.17" width="226.38" height="113.54"/><polygon class="cls-3" points="0 454.17 226.38 510.94 226.38 454.17 0 454.17"/><rect class="cls-4" x="226.38" y="454.17" width="226.38" height="113.54"/><rect class="cls-2" x="452.75" y="454.17" width="226.38" height="113.54"/><polygon class="cls-3" points="452.75 454.17 679.13 510.94 679.13 454.17 452.75 454.17"/><rect class="cls-4" x="679.13" y="454.17" width="226.38" height="113.54"/><rect class="cls-2" x="905.51" y="454.17" width="226.38" height="113.54"/><polygon class="cls-3" points="905.51 454.17 1131.88 510.94 1131.88 454.17 905.51 454.17"/><rect class="cls-4" x="1131.88" y="454.17" width="226.38" height="113.54"/><rect class="cls-2" x="1358.26" y="454.17" width="226.38" height="113.54"/><polygon class="cls-3" points="1358.26 454.17 1584.64 510.94 1584.64 454.17 1358.26 454.17"/><rect class="cls-4" x="1584.64" y="454.17" width="226.38" height="113.54"/><polygon class="cls-2" points="1584.64 567.72 1811.02 567.72 1811.02 681.26 1584.64 681.26 1584.64 567.72"/><polygon class="cls-3" points="1811.02 681.26 1584.64 624.49 1584.64 681.26 1811.02 681.26"/><polygon class="cls-4" points="1358.26 567.72 1584.64 567.72 1584.64 681.26 1358.26 681.26 1358.26 567.72"/><polygon class="cls-2" points="1131.88 567.72 1358.26 567.72 1358.26 681.26 1131.88 681.26 1131.88 567.72"/><polygon class="cls-3" points="1358.26 681.26 1131.88 624.49 1131.88 681.26 1358.26 681.26"/><polygon class="cls-4" points="905.51 567.72 1131.88 567.72 1131.88 681.26 905.51 681.26 905.51 567.72"/><polygon class="cls-2" points="679.13 567.72 905.51 567.72 905.51 681.26 679.13 681.26 679.13 567.72"/><polygon class="cls-3" points="905.51 681.26 679.13 624.49 679.13 681.26 905.51 681.26"/><polygon class="cls-4" points="452.75 567.72 679.13 567.72 679.13 681.26 452.75 681.26 452.75 567.72"/><polygon class="cls-2" points="226.38 567.72 452.75 567.72 452.75 681.26 226.38 681.26 226.38 567.72"/><polygon class="cls-3" points="452.75 681.26 226.38 624.49 226.38 681.26 452.75 681.26"/><polygon class="cls-4" points="0 567.72 226.38 567.72 226.38 681.26 0 681.26 0 567.72"/><rect class="cls-2" y="681.26" width="226.38" height="113.54"/><polygon class="cls-3" points="0 681.26 226.38 738.03 226.38 681.26 0 681.26"/><rect class="cls-4" x="226.38" y="681.26" width="226.38" height="113.54"/><rect class="cls-2" x="452.75" y="681.26" width="226.38" height="113.54"/><polygon class="cls-3" points="452.75 681.26 679.13 738.03 679.13 681.26 452.75 681.26"/><rect class="cls-4" x="679.13" y="681.26" width="226.38" height="113.54"/><rect class="cls-2" x="905.51" y="681.26" width="226.38" height="113.54"/><polygon class="cls-3" points="905.51 681.26 1131.88 738.03 1131.88 681.26 905.51 681.26"/><rect class="cls-4" x="1131.88" y="681.26" width="226.38" height="113.54"/><rect class="cls-2" x="1358.26" y="681.26" width="226.38" height="113.54"/><polygon class="cls-3" points="1358.26 681.26 1584.64 738.03 1584.64 681.26 1358.26 681.26"/><rect class="cls-4" x="1584.64" y="681.26" width="226.38" height="113.54"/><polygon class="cls-2" points="1584.64 794.8 1811.02 794.8 1811.02 908.35 1584.64 908.35 1584.64 794.8"/><polygon class="cls-3" points="1811.02 908.35 1584.64 851.58 1584.64 908.35 1811.02 908.35"/><polygon class="cls-4" points="1358.26 794.8 1584.64 794.8 1584.64 908.35 1358.26 908.35 1358.26 794.8"/><polygon class="cls-2" points="1131.88 794.8 1358.26 794.8 1358.26 908.35 1131.88 908.35 1131.88 794.8"/><polygon class="cls-3" points="1358.26 908.35 1131.88 851.58 1131.88 908.35 1358.26 908.35"/><polygon class="cls-4" points="905.51 794.8 1131.88 794.8 1131.88 908.35 905.51 908.35 905.51 794.8"/><polygon class="cls-2" points="679.13 794.8 905.51 794.8 905.51 908.35 679.13 908.35 679.13 794.8"/><polygon class="cls-3" points="905.51 908.35 679.13 851.58 679.13 908.35 905.51 908.35"/><polygon class="cls-4" points="452.75 794.8 679.13 794.8 679.13 908.35 452.75 908.35 452.75 794.8"/><polygon class="cls-2" points="226.38 794.8 452.75 794.8 452.75 908.35 226.38 908.35 226.38 794.8"/><polygon class="cls-3" points="452.75 908.35 226.38 851.58 226.38 908.35 452.75 908.35"/><polygon class="cls-4" points="0 794.8 226.38 794.8 226.38 908.35 0 908.35 0 794.8"/><rect class="cls-2" y="908.35" width="226.38" height="113.54"/><polygon class="cls-3" points="0 908.35 226.38 965.12 226.38 908.35 0 908.35"/><rect class="cls-4" x="226.38" y="908.35" width="226.38" height="113.54"/><rect class="cls-2" x="452.75" y="908.35" width="226.38" height="113.54"/><polygon class="cls-3" points="452.75 908.35 679.13 965.12 679.13 908.35 452.75 908.35"/><rect class="cls-4" x="679.13" y="908.35" width="226.38" height="113.54"/><rect class="cls-2" x="905.51" y="908.35" width="226.38" height="113.54"/><polygon class="cls-3" points="905.51 908.35 1131.88 965.12 1131.88 908.35 905.51 908.35"/><rect class="cls-4" x="1131.88" y="908.35" width="226.38" height="113.54"/><rect class="cls-2" x="1358.26" y="908.35" width="226.38" height="113.54"/><polygon class="cls-3" points="1358.26 908.35 1584.64 965.12 1584.64 908.35 1358.26 908.35"/><rect class="cls-4" x="1584.64" y="908.35" width="226.38" height="113.54"/><polygon class="cls-2" points="1584.64 1021.89 1811.02 1021.89 1811.02 1135.43 1584.64 1135.43 1584.64 1021.89"/><polygon class="cls-3" points="1811.02 1135.43 1584.64 1078.66 1584.64 1135.43 1811.02 1135.43"/><polygon class="cls-4" points="1358.26 1021.89 1584.64 1021.89 1584.64 1135.43 1358.26 1135.43 1358.26 1021.89"/><polygon class="cls-2" points="1131.88 1021.89 1358.26 1021.89 1358.26 1135.43 1131.88 1135.43 1131.88 1021.89"/><polygon class="cls-3" points="1358.26 1135.43 1131.88 1078.66 1131.88 1135.43 1358.26 1135.43"/><polygon class="cls-4" points="905.51 1021.89 1131.88 1021.89 1131.88 1135.43 905.51 1135.43 905.51 1021.89"/><polygon class="cls-2" points="679.13 1021.89 905.51 1021.89 905.51 1135.43 679.13 1135.43 679.13 1021.89"/><polygon class="cls-3" points="905.51 1135.43 679.13 1078.66 679.13 1135.43 905.51 1135.43"/><polygon class="cls-4" points="452.75 1021.89 679.13 1021.89 679.13 1135.43 452.75 1135.43 452.75 1021.89"/><polygon class="cls-2" points="226.38 1021.89 452.75 1021.89 452.75 1135.43 226.38 1135.43 226.38 1021.89"/><polygon class="cls-3" points="452.75 1135.43 226.38 1078.66 226.38 1135.43 452.75 1135.43"/><polygon class="cls-4" points="0 1021.89 226.38 1021.89 226.38 1135.43 0 1135.43 0 1021.89"/><rect class="cls-2" y="1135.43" width="226.38" height="113.54"/><polygon class="cls-3" points="0 1135.43 226.38 1192.2 226.38 1135.43 0 1135.43"/><rect class="cls-4" x="226.38" y="1135.43" width="226.38" height="113.54"/><rect class="cls-2" x="452.75" y="1135.43" width="226.38" height="113.54"/><polygon class="cls-3" points="452.75 1135.43 679.13 1192.2 679.13 1135.43 452.75 1135.43"/><rect class="cls-4" x="679.13" y="1135.43" width="226.38" height="113.54"/><rect class="cls-2" x="905.51" y="1135.43" width="226.38" height="113.54"/><polygon class="cls-3" points="905.51 1135.43 1131.88 1192.2 1131.88 1135.43 905.51 1135.43"/><rect class="cls-4" x="1131.88" y="1135.43" width="226.38" height="113.54"/><rect class="cls-2" x="1358.26" y="1135.43" width="226.38" height="113.54"/><polygon class="cls-3" points="1358.26 1135.43 1584.64 1192.2 1584.64 1135.43 1358.26 1135.43"/><rect class="cls-4" x="1584.64" y="1135.43" width="226.38" height="113.54"/><polygon class="cls-2" points="1584.64 1248.98 1811.02 1248.98 1811.02 1362.52 1584.64 1362.52 1584.64 1248.98"/><polygon class="cls-3" points="1811.02 1362.52 1584.64 1305.75 1584.64 1362.52 1811.02 1362.52"/><polygon class="cls-4" points="1358.26 1248.98 1584.64 1248.98 1584.64 1362.52 1358.26 1362.52 1358.26 1248.98"/><polygon class="cls-2" points="1131.88 1248.98 1358.26 1248.98 1358.26 1362.52 1131.88 1362.52 1131.88 1248.98"/><polygon class="cls-3" points="1358.26 1362.52 1131.88 1305.75 1131.88 1362.52 1358.26 1362.52"/><polygon class="cls-4" points="905.51 1248.98 1131.88 1248.98 1131.88 1362.52 905.51 1362.52 905.51 1248.98"/><polygon class="cls-2" points="679.13 1248.98 905.51 1248.98 905.51 1362.52 679.13 1362.52 679.13 1248.98"/><polygon class="cls-3" points="905.51 1362.52 679.13 1305.75 679.13 1362.52 905.51 1362.52"/><polygon class="cls-4" points="452.75 1248.98 679.13 1248.98 679.13 1362.52 452.75 1362.52 452.75 1248.98"/><polygon class="cls-2" points="226.38 1248.98 452.75 1248.98 452.75 1362.52 226.38 1362.52 226.38 1248.98"/><polygon class="cls-3" points="452.75 1362.52 226.38 1305.75 226.38 1362.52 452.75 1362.52"/><polygon class="cls-4" points="0 1248.98 226.38 1248.98 226.38 1362.52 0 1362.52 0 1248.98"/><rect class="cls-2" y="1362.52" width="226.38" height="113.54"/><polygon class="cls-3" points="0 1362.52 226.38 1419.29 226.38 1362.52 0 1362.52"/><rect class="cls-4" x="226.38" y="1362.52" width="226.38" height="113.54"/><rect class="cls-2" x="452.75" y="1362.52" width="226.38" height="113.54"/><polygon class="cls-3" points="452.75 1362.52 679.13 1419.29 679.13 1362.52 452.75 1362.52"/><rect class="cls-4" x="679.13" y="1362.52" width="226.38" height="113.54"/><rect class="cls-2" x="905.51" y="1362.52" width="226.38" height="113.54"/><polygon class="cls-3" points="905.51 1362.52 1131.88 1419.29 1131.88 1362.52 905.51 1362.52"/><rect class="cls-4" x="1131.88" y="1362.52" width="226.38" height="113.54"/><rect class="cls-2" x="1358.26" y="1362.52" width="226.38" height="113.54"/><polygon class="cls-3" points="1358.26 1362.52 1584.64 1419.29 1584.64 1362.52 1358.26 1362.52"/><rect class="cls-4" x="1584.64" y="1362.52" width="226.38" height="113.54"/><polygon class="cls-2" points="1584.64 1476.06 1811.02 1476.06 1811.02 1589.61 1584.64 1589.61 1584.64 1476.06"/><polygon class="cls-3" points="1811.02 1589.61 1584.64 1532.84 1584.64 1589.61 1811.02 1589.61"/><polygon class="cls-4" points="1358.26 1476.06 1584.64 1476.06 1584.64 1589.61 1358.26 1589.61 1358.26 1476.06"/><polygon class="cls-2" points="1131.88 1476.06 1358.26 1476.06 1358.26 1589.61 1131.88 1589.61 1131.88 1476.06"/><polygon class="cls-3" points="1358.26 1589.61 1131.88 1532.84 1131.88 1589.61 1358.26 1589.61"/><polygon class="cls-4" points="905.51 1476.06 1131.88 1476.06 1131.88 1589.61 905.51 1589.61 905.51 1476.06"/><polygon class="cls-2" points="679.13 1476.06 905.51 1476.06 905.51 1589.61 679.13 1589.61 679.13 1476.06"/><polygon class="cls-3" points="905.51 1589.61 679.13 1532.84 679.13 1589.61 905.51 1589.61"/><polygon class="cls-4" points="452.75 1476.06 679.13 1476.06 679.13 1589.61 452.75 1589.61 452.75 1476.06"/><polygon class="cls-2" points="226.38 1476.06 452.75 1476.06 452.75 1589.61 226.38 1589.61 226.38 1476.06"/><polygon class="cls-3" points="452.75 1589.61 226.38 1532.84 226.38 1589.61 452.75 1589.61"/><polygon class="cls-4" points="0 1476.06 226.38 1476.06 226.38 1589.61 0 1589.61 0 1476.06"/><rect class="cls-2" y="1589.61" width="226.38" height="113.54"/><polygon class="cls-3" points="0 1589.61 226.38 1646.38 226.38 1589.61 0 1589.61"/><rect class="cls-4" x="226.38" y="1589.61" width="226.38" height="113.54"/><rect class="cls-2" x="452.75" y="1589.61" width="226.38" height="113.54"/><polygon class="cls-3" points="452.75 1589.61 679.13 1646.38 679.13 1589.61 452.75 1589.61"/><rect class="cls-4" x="679.13" y="1589.61" width="226.38" height="113.54"/><rect class="cls-2" x="905.51" y="1589.61" width="226.38" height="113.54"/><polygon class="cls-3" points="905.51 1589.61 1131.88 1646.38 1131.88 1589.61 905.51 1589.61"/><rect class="cls-4" x="1131.88" y="1589.61" width="226.38" height="113.54"/><rect class="cls-2" x="1358.26" y="1589.61" width="226.38" height="113.54"/><polygon class="cls-3" points="1358.26 1589.61 1584.64 1646.38 1584.64 1589.61 1358.26 1589.61"/><rect class="cls-4" x="1584.64" y="1589.61" width="226.38" height="113.54"/><polygon class="cls-2" points="1584.64 1703.15 1811.02 1703.15 1811.02 1816.69 1584.64 1816.69 1584.64 1703.15"/><polygon class="cls-3" points="1811.02 1816.69 1584.64 1759.92 1584.64 1816.69 1811.02 1816.69"/><polygon class="cls-4" points="1358.26 1703.15 1584.64 1703.15 1584.64 1816.69 1358.26 1816.69 1358.26 1703.15"/><polygon class="cls-2" points="1131.88 1703.15 1358.26 1703.15 1358.26 1816.69 1131.88 1816.69 1131.88 1703.15"/><polygon class="cls-3" points="1358.26 1816.69 1131.88 1759.92 1131.88 1816.69 1358.26 1816.69"/><polygon class="cls-4" points="905.51 1703.15 1131.88 1703.15 1131.88 1816.69 905.51 1816.69 905.51 1703.15"/><polygon class="cls-2" points="679.13 1703.15 905.51 1703.15 905.51 1816.69 679.13 1816.69 679.13 1703.15"/><polygon class="cls-3" points="905.51 1816.69 679.13 1759.92 679.13 1816.69 905.51 1816.69"/><polygon class="cls-4" points="452.75 1703.15 679.13 1703.15 679.13 1816.69 452.75 1816.69 452.75 1703.15"/><polygon class="cls-2" points="226.38 1703.15 452.75 1703.15 452.75 1816.69 226.38 1816.69 226.38 1703.15"/><polygon class="cls-3" points="452.75 1816.69 226.38 1759.92 226.38 1816.69 452.75 1816.69"/><polygon class="cls-4" points="0 1703.15 226.38 1703.15 226.38 1816.69 0 1816.69 0 1703.15"/></pattern><pattern id="Nueva_muestra_de_motivo_5-3" data-name="Nueva muestra de motivo 5" width="1811.02" height="1816.69" patternTransform="translate(-2 893)" patternUnits="userSpaceOnUse" viewBox="0 0 1811.02 1816.69"><rect class="cls-1" width="1811.02" height="1816.69"/><rect class="cls-2" width="226.38" height="113.54"/><polygon class="cls-3" points="0 0 226.38 56.77 226.38 0 0 0"/><rect class="cls-4" x="226.38" width="226.38" height="113.54"/><rect class="cls-2" x="452.75" width="226.38" height="113.54"/><polygon class="cls-3" points="452.75 0 679.13 56.77 679.13 0 452.75 0"/><rect class="cls-4" x="679.13" width="226.38" height="113.54"/><rect class="cls-2" x="905.51" width="226.38" height="113.54"/><polygon class="cls-3" points="905.51 0 1131.88 56.77 1131.88 0 905.51 0"/><rect class="cls-4" x="1131.88" width="226.38" height="113.54"/><rect class="cls-2" x="1358.26" width="226.38" height="113.54"/><polygon class="cls-3" points="1358.26 0 1584.64 56.77 1584.64 0 1358.26 0"/><rect class="cls-4" x="1584.64" width="226.38" height="113.54"/><polygon class="cls-2" points="1584.64 113.54 1811.02 113.54 1811.02 227.09 1584.64 227.09 1584.64 113.54"/><polygon class="cls-3" points="1811.02 227.09 1584.64 170.31 1584.64 227.09 1811.02 227.09"/><polygon class="cls-4" points="1358.26 113.54 1584.64 113.54 1584.64 227.09 1358.26 227.09 1358.26 113.54"/><polygon class="cls-2" points="1131.88 113.54 1358.26 113.54 1358.26 227.09 1131.88 227.09 1131.88 113.54"/><polygon class="cls-3" points="1358.26 227.09 1131.88 170.31 1131.88 227.09 1358.26 227.09"/><polygon class="cls-4" points="905.51 113.54 1131.88 113.54 1131.88 227.09 905.51 227.09 905.51 113.54"/><polygon class="cls-2" points="679.13 113.54 905.51 113.54 905.51 227.09 679.13 227.09 679.13 113.54"/><polygon class="cls-3" points="905.51 227.09 679.13 170.31 679.13 227.09 905.51 227.09"/><polygon class="cls-4" points="452.75 113.54 679.13 113.54 679.13 227.09 452.75 227.09 452.75 113.54"/><polygon class="cls-2" points="226.38 113.54 452.75 113.54 452.75 227.09 226.38 227.09 226.38 113.54"/><polygon class="cls-3" points="452.75 227.09 226.38 170.31 226.38 227.09 452.75 227.09"/><polygon class="cls-4" points="0 113.54 226.38 113.54 226.38 227.09 0 227.09 0 113.54"/><rect class="cls-2" y="227.09" width="226.38" height="113.54"/><polygon class="cls-3" points="0 227.09 226.38 283.86 226.38 227.09 0 227.09"/><rect class="cls-4" x="226.38" y="227.09" width="226.38" height="113.54"/><rect class="cls-2" x="452.75" y="227.09" width="226.38" height="113.54"/><polygon class="cls-3" points="452.75 227.09 679.13 283.86 679.13 227.09 452.75 227.09"/><rect class="cls-4" x="679.13" y="227.09" width="226.38" height="113.54"/><rect class="cls-2" x="905.51" y="227.09" width="226.38" height="113.54"/><polygon class="cls-3" points="905.51 227.09 1131.88 283.86 1131.88 227.09 905.51 227.09"/><rect class="cls-4" x="1131.88" y="227.09" width="226.38" height="113.54"/><rect class="cls-2" x="1358.26" y="227.09" width="226.38" height="113.54"/><polygon class="cls-3" points="1358.26 227.09 1584.64 283.86 1584.64 227.09 1358.26 227.09"/><rect class="cls-4" x="1584.64" y="227.09" width="226.38" height="113.54"/><polygon class="cls-2" points="1584.64 340.63 1811.02 340.63 1811.02 454.17 1584.64 454.17 1584.64 340.63"/><polygon class="cls-3" points="1811.02 454.17 1584.64 397.4 1584.64 454.17 1811.02 454.17"/><polygon class="cls-4" points="1358.26 340.63 1584.64 340.63 1584.64 454.17 1358.26 454.17 1358.26 340.63"/><polygon class="cls-2" points="1131.88 340.63 1358.26 340.63 1358.26 454.17 1131.88 454.17 1131.88 340.63"/><polygon class="cls-3" points="1358.26 454.17 1131.88 397.4 1131.88 454.17 1358.26 454.17"/><polygon class="cls-4" points="905.51 340.63 1131.88 340.63 1131.88 454.17 905.51 454.17 905.51 340.63"/><polygon class="cls-2" points="679.13 340.63 905.51 340.63 905.51 454.17 679.13 454.17 679.13 340.63"/><polygon class="cls-3" points="905.51 454.17 679.13 397.4 679.13 454.17 905.51 454.17"/><polygon class="cls-4" points="452.75 340.63 679.13 340.63 679.13 454.17 452.75 454.17 452.75 340.63"/><polygon class="cls-2" points="226.38 340.63 452.75 340.63 452.75 454.17 226.38 454.17 226.38 340.63"/><polygon class="cls-3" points="452.75 454.17 226.38 397.4 226.38 454.17 452.75 454.17"/><polygon class="cls-4" points="0 340.63 226.38 340.63 226.38 454.17 0 454.17 0 340.63"/><rect class="cls-2" y="454.17" width="226.38" height="113.54"/><polygon class="cls-3" points="0 454.17 226.38 510.94 226.38 454.17 0 454.17"/><rect class="cls-4" x="226.38" y="454.17" width="226.38" height="113.54"/><rect class="cls-2" x="452.75" y="454.17" width="226.38" height="113.54"/><polygon class="cls-3" points="452.75 454.17 679.13 510.94 679.13 454.17 452.75 454.17"/><rect class="cls-4" x="679.13" y="454.17" width="226.38" height="113.54"/><rect class="cls-2" x="905.51" y="454.17" width="226.38" height="113.54"/><polygon class="cls-3" points="905.51 454.17 1131.88 510.94 1131.88 454.17 905.51 454.17"/><rect class="cls-4" x="1131.88" y="454.17" width="226.38" height="113.54"/><rect class="cls-2" x="1358.26" y="454.17" width="226.38" height="113.54"/><polygon class="cls-3" points="1358.26 454.17 1584.64 510.94 1584.64 454.17 1358.26 454.17"/><rect class="cls-4" x="1584.64" y="454.17" width="226.38" height="113.54"/><polygon class="cls-2" points="1584.64 567.72 1811.02 567.72 1811.02 681.26 1584.64 681.26 1584.64 567.72"/><polygon class="cls-3" points="1811.02 681.26 1584.64 624.49 1584.64 681.26 1811.02 681.26"/><polygon class="cls-4" points="1358.26 567.72 1584.64 567.72 1584.64 681.26 1358.26 681.26 1358.26 567.72"/><polygon class="cls-2" points="1131.88 567.72 1358.26 567.72 1358.26 681.26 1131.88 681.26 1131.88 567.72"/><polygon class="cls-3" points="1358.26 681.26 1131.88 624.49 1131.88 681.26 1358.26 681.26"/><polygon class="cls-4" points="905.51 567.72 1131.88 567.72 1131.88 681.26 905.51 681.26 905.51 567.72"/><polygon class="cls-2" points="679.13 567.72 905.51 567.72 905.51 681.26 679.13 681.26 679.13 567.72"/><polygon class="cls-3" points="905.51 681.26 679.13 624.49 679.13 681.26 905.51 681.26"/><polygon class="cls-4" points="452.75 567.72 679.13 567.72 679.13 681.26 452.75 681.26 452.75 567.72"/><polygon class="cls-2" points="226.38 567.72 452.75 567.72 452.75 681.26 226.38 681.26 226.38 567.72"/><polygon class="cls-3" points="452.75 681.26 226.38 624.49 226.38 681.26 452.75 681.26"/><polygon class="cls-4" points="0 567.72 226.38 567.72 226.38 681.26 0 681.26 0 567.72"/><rect class="cls-2" y="681.26" width="226.38" height="113.54"/><polygon class="cls-3" points="0 681.26 226.38 738.03 226.38 681.26 0 681.26"/><rect class="cls-4" x="226.38" y="681.26" width="226.38" height="113.54"/><rect class="cls-2" x="452.75" y="681.26" width="226.38" height="113.54"/><polygon class="cls-3" points="452.75 681.26 679.13 738.03 679.13 681.26 452.75 681.26"/><rect class="cls-4" x="679.13" y="681.26" width="226.38" height="113.54"/><rect class="cls-2" x="905.51" y="681.26" width="226.38" height="113.54"/><polygon class="cls-3" points="905.51 681.26 1131.88 738.03 1131.88 681.26 905.51 681.26"/><rect class="cls-4" x="1131.88" y="681.26" width="226.38" height="113.54"/><rect class="cls-2" x="1358.26" y="681.26" width="226.38" height="113.54"/><polygon class="cls-3" points="1358.26 681.26 1584.64 738.03 1584.64 681.26 1358.26 681.26"/><rect class="cls-4" x="1584.64" y="681.26" width="226.38" height="113.54"/><polygon class="cls-2" points="1584.64 794.8 1811.02 794.8 1811.02 908.35 1584.64 908.35 1584.64 794.8"/><polygon class="cls-3" points="1811.02 908.35 1584.64 851.58 1584.64 908.35 1811.02 908.35"/><polygon class="cls-4" points="1358.26 794.8 1584.64 794.8 1584.64 908.35 1358.26 908.35 1358.26 794.8"/><polygon class="cls-2" points="1131.88 794.8 1358.26 794.8 1358.26 908.35 1131.88 908.35 1131.88 794.8"/><polygon class="cls-3" points="1358.26 908.35 1131.88 851.58 1131.88 908.35 1358.26 908.35"/><polygon class="cls-4" points="905.51 794.8 1131.88 794.8 1131.88 908.35 905.51 908.35 905.51 794.8"/><polygon class="cls-2" points="679.13 794.8 905.51 794.8 905.51 908.35 679.13 908.35 679.13 794.8"/><polygon class="cls-3" points="905.51 908.35 679.13 851.58 679.13 908.35 905.51 908.35"/><polygon class="cls-4" points="452.75 794.8 679.13 794.8 679.13 908.35 452.75 908.35 452.75 794.8"/><polygon class="cls-2" points="226.38 794.8 452.75 794.8 452.75 908.35 226.38 908.35 226.38 794.8"/><polygon class="cls-3" points="452.75 908.35 226.38 851.58 226.38 908.35 452.75 908.35"/><polygon class="cls-4" points="0 794.8 226.38 794.8 226.38 908.35 0 908.35 0 794.8"/><rect class="cls-2" y="908.35" width="226.38" height="113.54"/><polygon class="cls-3" points="0 908.35 226.38 965.12 226.38 908.35 0 908.35"/><rect class="cls-4" x="226.38" y="908.35" width="226.38" height="113.54"/><rect class="cls-2" x="452.75" y="908.35" width="226.38" height="113.54"/><polygon class="cls-3" points="452.75 908.35 679.13 965.12 679.13 908.35 452.75 908.35"/><rect class="cls-4" x="679.13" y="908.35" width="226.38" height="113.54"/><rect class="cls-2" x="905.51" y="908.35" width="226.38" height="113.54"/><polygon class="cls-3" points="905.51 908.35 1131.88 965.12 1131.88 908.35 905.51 908.35"/><rect class="cls-4" x="1131.88" y="908.35" width="226.38" height="113.54"/><rect class="cls-2" x="1358.26" y="908.35" width="226.38" height="113.54"/><polygon class="cls-3" points="1358.26 908.35 1584.64 965.12 1584.64 908.35 1358.26 908.35"/><rect class="cls-4" x="1584.64" y="908.35" width="226.38" height="113.54"/><polygon class="cls-2" points="1584.64 1021.89 1811.02 1021.89 1811.02 1135.43 1584.64 1135.43 1584.64 1021.89"/><polygon class="cls-3" points="1811.02 1135.43 1584.64 1078.66 1584.64 1135.43 1811.02 1135.43"/><polygon class="cls-4" points="1358.26 1021.89 1584.64 1021.89 1584.64 1135.43 1358.26 1135.43 1358.26 1021.89"/><polygon class="cls-2" points="1131.88 1021.89 1358.26 1021.89 1358.26 1135.43 1131.88 1135.43 1131.88 1021.89"/><polygon class="cls-3" points="1358.26 1135.43 1131.88 1078.66 1131.88 1135.43 1358.26 1135.43"/><polygon class="cls-4" points="905.51 1021.89 1131.88 1021.89 1131.88 1135.43 905.51 1135.43 905.51 1021.89"/><polygon class="cls-2" points="679.13 1021.89 905.51 1021.89 905.51 1135.43 679.13 1135.43 679.13 1021.89"/><polygon class="cls-3" points="905.51 1135.43 679.13 1078.66 679.13 1135.43 905.51 1135.43"/><polygon class="cls-4" points="452.75 1021.89 679.13 1021.89 679.13 1135.43 452.75 1135.43 452.75 1021.89"/><polygon class="cls-2" points="226.38 1021.89 452.75 1021.89 452.75 1135.43 226.38 1135.43 226.38 1021.89"/><polygon class="cls-3" points="452.75 1135.43 226.38 1078.66 226.38 1135.43 452.75 1135.43"/><polygon class="cls-4" points="0 1021.89 226.38 1021.89 226.38 1135.43 0 1135.43 0 1021.89"/><rect class="cls-2" y="1135.43" width="226.38" height="113.54"/><polygon class="cls-3" points="0 1135.43 226.38 1192.2 226.38 1135.43 0 1135.43"/><rect class="cls-4" x="226.38" y="1135.43" width="226.38" height="113.54"/><rect class="cls-2" x="452.75" y="1135.43" width="226.38" height="113.54"/><polygon class="cls-3" points="452.75 1135.43 679.13 1192.2 679.13 1135.43 452.75 1135.43"/><rect class="cls-4" x="679.13" y="1135.43" width="226.38" height="113.54"/><rect class="cls-2" x="905.51" y="1135.43" width="226.38" height="113.54"/><polygon class="cls-3" points="905.51 1135.43 1131.88 1192.2 1131.88 1135.43 905.51 1135.43"/><rect class="cls-4" x="1131.88" y="1135.43" width="226.38" height="113.54"/><rect class="cls-2" x="1358.26" y="1135.43" width="226.38" height="113.54"/><polygon class="cls-3" points="1358.26 1135.43 1584.64 1192.2 1584.64 1135.43 1358.26 1135.43"/><rect class="cls-4" x="1584.64" y="1135.43" width="226.38" height="113.54"/><polygon class="cls-2" points="1584.64 1248.98 1811.02 1248.98 1811.02 1362.52 1584.64 1362.52 1584.64 1248.98"/><polygon class="cls-3" points="1811.02 1362.52 1584.64 1305.75 1584.64 1362.52 1811.02 1362.52"/><polygon class="cls-4" points="1358.26 1248.98 1584.64 1248.98 1584.64 1362.52 1358.26 1362.52 1358.26 1248.98"/><polygon class="cls-2" points="1131.88 1248.98 1358.26 1248.98 1358.26 1362.52 1131.88 1362.52 1131.88 1248.98"/><polygon class="cls-3" points="1358.26 1362.52 1131.88 1305.75 1131.88 1362.52 1358.26 1362.52"/><polygon class="cls-4" points="905.51 1248.98 1131.88 1248.98 1131.88 1362.52 905.51 1362.52 905.51 1248.98"/><polygon class="cls-2" points="679.13 1248.98 905.51 1248.98 905.51 1362.52 679.13 1362.52 679.13 1248.98"/><polygon class="cls-3" points="905.51 1362.52 679.13 1305.75 679.13 1362.52 905.51 1362.52"/><polygon class="cls-4" points="452.75 1248.98 679.13 1248.98 679.13 1362.52 452.75 1362.52 452.75 1248.98"/><polygon class="cls-2" points="226.38 1248.98 452.75 1248.98 452.75 1362.52 226.38 1362.52 226.38 1248.98"/><polygon class="cls-3" points="452.75 1362.52 226.38 1305.75 226.38 1362.52 452.75 1362.52"/><polygon class="cls-4" points="0 1248.98 226.38 1248.98 226.38 1362.52 0 1362.52 0 1248.98"/><rect class="cls-2" y="1362.52" width="226.38" height="113.54"/><polygon class="cls-3" points="0 1362.52 226.38 1419.29 226.38 1362.52 0 1362.52"/><rect class="cls-4" x="226.38" y="1362.52" width="226.38" height="113.54"/><rect class="cls-2" x="452.75" y="1362.52" width="226.38" height="113.54"/><polygon class="cls-3" points="452.75 1362.52 679.13 1419.29 679.13 1362.52 452.75 1362.52"/><rect class="cls-4" x="679.13" y="1362.52" width="226.38" height="113.54"/><rect class="cls-2" x="905.51" y="1362.52" width="226.38" height="113.54"/><polygon class="cls-3" points="905.51 1362.52 1131.88 1419.29 1131.88 1362.52 905.51 1362.52"/><rect class="cls-4" x="1131.88" y="1362.52" width="226.38" height="113.54"/><rect class="cls-2" x="1358.26" y="1362.52" width="226.38" height="113.54"/><polygon class="cls-3" points="1358.26 1362.52 1584.64 1419.29 1584.64 1362.52 1358.26 1362.52"/><rect class="cls-4" x="1584.64" y="1362.52" width="226.38" height="113.54"/><polygon class="cls-2" points="1584.64 1476.06 1811.02 1476.06 1811.02 1589.61 1584.64 1589.61 1584.64 1476.06"/><polygon class="cls-3" points="1811.02 1589.61 1584.64 1532.84 1584.64 1589.61 1811.02 1589.61"/><polygon class="cls-4" points="1358.26 1476.06 1584.64 1476.06 1584.64 1589.61 1358.26 1589.61 1358.26 1476.06"/><polygon class="cls-2" points="1131.88 1476.06 1358.26 1476.06 1358.26 1589.61 1131.88 1589.61 1131.88 1476.06"/><polygon class="cls-3" points="1358.26 1589.61 1131.88 1532.84 1131.88 1589.61 1358.26 1589.61"/><polygon class="cls-4" points="905.51 1476.06 1131.88 1476.06 1131.88 1589.61 905.51 1589.61 905.51 1476.06"/><polygon class="cls-2" points="679.13 1476.06 905.51 1476.06 905.51 1589.61 679.13 1589.61 679.13 1476.06"/><polygon class="cls-3" points="905.51 1589.61 679.13 1532.84 679.13 1589.61 905.51 1589.61"/><polygon class="cls-4" points="452.75 1476.06 679.13 1476.06 679.13 1589.61 452.75 1589.61 452.75 1476.06"/><polygon class="cls-2" points="226.38 1476.06 452.75 1476.06 452.75 1589.61 226.38 1589.61 226.38 1476.06"/><polygon class="cls-3" points="452.75 1589.61 226.38 1532.84 226.38 1589.61 452.75 1589.61"/><polygon class="cls-4" points="0 1476.06 226.38 1476.06 226.38 1589.61 0 1589.61 0 1476.06"/><rect class="cls-2" y="1589.61" width="226.38" height="113.54"/><polygon class="cls-3" points="0 1589.61 226.38 1646.38 226.38 1589.61 0 1589.61"/><rect class="cls-4" x="226.38" y="1589.61" width="226.38" height="113.54"/><rect class="cls-2" x="452.75" y="1589.61" width="226.38" height="113.54"/><polygon class="cls-3" points="452.75 1589.61 679.13 1646.38 679.13 1589.61 452.75 1589.61"/><rect class="cls-4" x="679.13" y="1589.61" width="226.38" height="113.54"/><rect class="cls-2" x="905.51" y="1589.61" width="226.38" height="113.54"/><polygon class="cls-3" points="905.51 1589.61 1131.88 1646.38 1131.88 1589.61 905.51 1589.61"/><rect class="cls-4" x="1131.88" y="1589.61" width="226.38" height="113.54"/><rect class="cls-2" x="1358.26" y="1589.61" width="226.38" height="113.54"/><polygon class="cls-3" points="1358.26 1589.61 1584.64 1646.38 1584.64 1589.61 1358.26 1589.61"/><rect class="cls-4" x="1584.64" y="1589.61" width="226.38" height="113.54"/><polygon class="cls-2" points="1584.64 1703.15 1811.02 1703.15 1811.02 1816.69 1584.64 1816.69 1584.64 1703.15"/><polygon class="cls-3" points="1811.02 1816.69 1584.64 1759.92 1584.64 1816.69 1811.02 1816.69"/><polygon class="cls-4" points="1358.26 1703.15 1584.64 1703.15 1584.64 1816.69 1358.26 1816.69 1358.26 1703.15"/><polygon class="cls-2" points="1131.88 1703.15 1358.26 1703.15 1358.26 1816.69 1131.88 1816.69 1131.88 1703.15"/><polygon class="cls-3" points="1358.26 1816.69 1131.88 1759.92 1131.88 1816.69 1358.26 1816.69"/><polygon class="cls-4" points="905.51 1703.15 1131.88 1703.15 1131.88 1816.69 905.51 1816.69 905.51 1703.15"/><polygon class="cls-2" points="679.13 1703.15 905.51 1703.15 905.51 1816.69 679.13 1816.69 679.13 1703.15"/><polygon class="cls-3" points="905.51 1816.69 679.13 1759.92 679.13 1816.69 905.51 1816.69"/><polygon class="cls-4" points="452.75 1703.15 679.13 1703.15 679.13 1816.69 452.75 1816.69 452.75 1703.15"/><polygon class="cls-2" points="226.38 1703.15 452.75 1703.15 452.75 1816.69 226.38 1816.69 226.38 1703.15"/><polygon class="cls-3" points="452.75 1816.69 226.38 1759.92 226.38 1816.69 452.75 1816.69"/><polygon class="cls-4" points="0 1703.15 226.38 1703.15 226.38 1816.69 0 1816.69 0 1703.15"/></pattern></defs><title>firmRecurso 3_1</title><g id="Capa_2" data-name="Capa 2"><g id="Capa_1-2" data-name="Capa 1"><rect class="cls-5" x="3.5" y="127.5" width="3891" height="854"/><path d="M3894,128V981H4V128H3894m1-1H3V982H3895V127Z"/><rect class="cls-6" x="3" width="3892" height="142"/><rect class="cls-7" y="817" width="3887" height="161"/></g></g></svg>