<svg xmlns="http://www.w3.org/2000/svg" xmlns:xlink="http://www.w3.org/1999/xlink" viewBox="0 0 3908 983.2"><defs><style>.cls-1{fill:none;}.cls-2{clip-path:url(#clip-path);}.cls-3{fill:#e8bdce;}.cls-4{fill:#d77a4c;}.cls-5{fill:#b83c88;}.cls-6{fill:url(#Unnamed_Pattern);}.cls-7{fill:#b63f88;opacity:0.92;}</style><clipPath id="clip-path"><rect id="SVGID" class="cls-1" width="880" height="888"/></clipPath><pattern id="Unnamed_Pattern" data-name="Unnamed Pattern" width="880" height="888" patternTransform="matrix(0, 0.32, 0.48, 0, 19.21, -4166.41)" patternUnits="userSpaceOnUse" viewBox="0 0 880 888"><rect class="cls-1" width="880" height="888"/><g class="cls-2"><rect class="cls-3" x="440" y="-111" width="440" height="222"/><rect class="cls-4" y="-111" width="440" height="222"/><polygon class="cls-5" points="0 111 440 111 440 0 0 111"/><rect class="cls-4" x="440" y="111" width="440" height="222"/><polygon class="cls-5" points="440 333 880 333 880 222 440 333"/><rect class="cls-3" y="111" width="440" height="222"/><rect class="cls-3" x="440" y="333" width="440" height="222"/><rect class="cls-4" y="333" width="440" height="222"/><polygon class="cls-5" points="0 555 440 555 440 444 0 555"/><rect class="cls-4" x="440" y="555" width="440" height="222"/><polygon class="cls-5" points="440 777 880 777 880 666 440 777"/><rect class="cls-3" y="555" width="440" height="222"/><rect class="cls-3" x="440" y="777" width="440" height="222"/><rect class="cls-4" y="777" width="440" height="222"/></g></pattern></defs><title>Asset 43</title><g id="Layer_2" data-name="Layer 2"><g id="Capa_1" data-name="Capa 1"><rect class="cls-1" width="3895" height="983"/><rect class="cls-6" y="0.2" width="3908" height="983"/><rect class="cls-7" y="0.2" width="3908" height="983"/></g></g></svg>