<svg xmlns="http://www.w3.org/2000/svg" viewBox="0 0 335 267.37"><defs><style>.cls-1{fill:#fff;}</style></defs><title>Asset 39</title><g id="Layer_2" data-name="Layer 2"><g id="Capa_1" data-name="Capa 1"><g id="Layer_2-2" data-name="Layer 2"><g id="Capa_1-2" data-name="Capa 1"><path class="cls-1" d="M334.69,110.4c-5.69-6-12.69-2.07-12.69,3.47v42.76a4.39,4.39,0,0,1-4.39,4.37H261.05a6.56,6.56,0,0,0-4.64,1.92L211,208.29V167.54a6.54,6.54,0,0,0-6.54-6.54H110.33A24.33,24.33,0,0,1,86,136.69V34.42C86,21,96.92,11.33,110.27,13h205A6.78,6.78,0,0,1,322,19.79V63a1.9,1.9,0,0,0,.56,1.35C328.17,70,335,66.11,335,60.58V37.49A37.43,37.43,0,0,0,297.64,0H110.36A37.36,37.36,0,0,0,73,37.36V122H25.31A25.31,25.31,0,0,0,0,147.31v60.38A25.31,25.31,0,0,0,25.31,233H45.36l32.46,32.46a6.57,6.57,0,0,0,9.28,0l.21-.22A6.69,6.69,0,0,0,89,260.68V233h50.69A25.31,25.31,0,0,0,165,207.69V174h32v50a6.79,6.79,0,0,0,2,4.92,6.28,6.28,0,0,0,8.94-.13L261.29,174H328.2a6.79,6.79,0,0,0,6.8-6.8v-56A1.16,1.16,0,0,0,334.69,110.4ZM152,206.81A12.25,12.25,0,0,1,139.71,219H82.52A6.53,6.53,0,0,0,76,225.55V244.1L52.8,220.92A6.54,6.54,0,0,0,48.17,219l-22.89,1A12.26,12.26,0,0,1,13,207.76h0V147.25A12.26,12.26,0,0,1,25.27,135H73v.65A37.35,37.35,0,0,0,110.35,173H152Z"/><path class="cls-1" d="M267.39,43H140.73a6.62,6.62,0,0,0-6.6,5.43,6.52,6.52,0,0,0,5.38,7.48,6.2,6.2,0,0,0,1.05.09H267.21a6.64,6.64,0,0,0,6.61-5.42,6.52,6.52,0,0,0-5.37-7.49A6.23,6.23,0,0,0,267.39,43Z"/><path class="cls-1" d="M267.16,78H140.77a6.63,6.63,0,0,0-6.59,5.43,6.51,6.51,0,0,0,5.37,7.48,6.23,6.23,0,0,0,1.06.09H267.34a6.51,6.51,0,0,0,6.51-6.51,6.23,6.23,0,0,0-.09-1.06A6.62,6.62,0,0,0,267.16,78Z"/><path class="cls-1" d="M140.42,114a6.5,6.5,0,0,0-6.5,6.5,6.35,6.35,0,0,0,.09,1.07A6.6,6.6,0,0,0,140.6,127h72.77a6.61,6.61,0,0,0,6.59-5.43,6.5,6.5,0,0,0-5.36-7.48,6.23,6.23,0,0,0-1.06-.09Z"/><path class="cls-1" d="M328.47,80.3A6.55,6.55,0,1,0,335,86.87v0A6.57,6.57,0,0,0,328.47,80.3Z"/></g></g></g></g></svg>