<svg xmlns="http://www.w3.org/2000/svg" viewBox="0 0 511 375.83"><defs><style>.cls-1{fill:#b63f88;}</style></defs><title>Asset 40</title><g id="Layer_2" data-name="Layer 2"><g id="Capa_1" data-name="Capa 1"><path class="cls-1" d="M451.26,169.16c-17.42-8.71-50.08-8.81-51.47-8.81a7.5,7.5,0,0,0,0,15c8.43,0,32.91,1.3,44.77,7.23a7.41,7.41,0,0,0,3.34.79,7.5,7.5,0,0,0,3.36-14.21Z"/><path class="cls-1" d="M488.17,276l-30.9-8.83a3.13,3.13,0,0,1-2.27-3V253.68a56.65,56.65,0,0,0,7.15-5.86A55,55,0,0,0,479,208V193.42l3-6a47.53,47.53,0,0,0,5-21.26V127.5a7.5,7.5,0,0,0-7.5-7.5H407.6A47.6,47.6,0,0,0,360,167.6v.46a39.57,39.57,0,0,0,4.16,17.67l3.84,7.69V206a58.35,58.35,0,0,0,24,47.2v10.89c0,1.67,0,2.36-6.19,4.13l-15.1,4.32L327,256.63a7.5,7.5,0,0,0-2.05-5.74l-14-14.67V211.49c1.47-1.22,2.93-2.46,4.33-3.78A87.79,87.79,0,0,0,343,143.87V124.15a86.87,86.87,0,0,0,8-36.46V7.5A7.5,7.5,0,0,0,343.5,0H231.65A71.65,71.65,0,0,0,160,71.65v16a86.87,86.87,0,0,0,8,36.46v17a91.44,91.44,0,0,0,32,69.78v25.25l-13.94,14.65a7.5,7.5,0,0,0-2,5.73l-46,16.73a39.35,39.35,0,0,0-9.25,4.85l-7.23-3.61c21.52-9.37,28.34-22.54,28.66-23.2a7.43,7.43,0,0,0,0-6.69c-5.39-10.79-6-30.56-6.57-46.45-.17-5.29-.34-10.29-.66-14.74-2.55-35.88-29.83-62.95-63.46-62.95s-60.91,27.07-63.46,63c-.32,4.46-.48,9.45-.66,14.74-.52,15.89-1.18,35.66-6.57,46.45a7.5,7.5,0,0,0,0,6.69c.33.66,7.13,13.8,28.69,23.18l-20.08,10A31.32,31.32,0,0,0,0,312.69V368a7.68,7.68,0,0,0,6.56,7.73A7.5,7.5,0,0,0,15,368.33V312.88a16.44,16.44,0,0,1,9.13-14.77l25-12.49,8.69,8.26a31.47,31.47,0,0,0,43.36,0l8.7-8.26,8.15,4.07a39.36,39.36,0,0,0-6,20.88v57.48a7.68,7.68,0,0,0,6.56,7.72,7.5,7.5,0,0,0,8.44-7.44V310.6a24.58,24.58,0,0,1,16.18-23.1l48.48-17.63,20,30a15.86,15.86,0,0,0,10.1,6.91,15.51,15.51,0,0,0,13.94-4.24L248,290.21v77.84a7.68,7.68,0,0,0,6.56,7.72,7.5,7.5,0,0,0,8.44-7.44V290.21l12.32,12.32a15.4,15.4,0,0,0,10.93,4.53c.51,0,1,0,1.54-.07a15.42,15.42,0,0,0,11.36-6.82l20.2-30.3,48.52,17.65a24.58,24.58,0,0,1,16.13,23v57.5a7.68,7.68,0,0,0,6.56,7.72,7.5,7.5,0,0,0,8.44-7.44V310.71a39.88,39.88,0,0,0-11.17-27.62l1.87-.54a40.74,40.74,0,0,0,7-2.53L416,299.29v68.76a7.68,7.68,0,0,0,6.56,7.72,7.5,7.5,0,0,0,8.44-7.44V299.25l19-19a18.31,18.31,0,0,0,3.18,1.26L484,290.37a16.55,16.55,0,0,1,12,15.92v61.76a7.68,7.68,0,0,0,6.56,7.72,7.5,7.5,0,0,0,8.44-7.44V306.24A31.62,31.62,0,0,0,488.17,276ZM48,262.69c-14-5-21.07-11.77-24.07-15.45a82.61,82.61,0,0,0,4.28-18A55.86,55.86,0,0,0,48,253.7Zm20.09,20.23-6.91-6.56a15.4,15.4,0,0,0,1.82-7.3v-8a55.59,55.59,0,0,0,33,0v8a15.4,15.4,0,0,0,1.82,7.3l-6.91,6.57A16.56,16.56,0,0,1,68.09,282.92Zm11.13-34.36A40.66,40.66,0,0,1,38.6,208a7.49,7.49,0,0,0-7.5-7.5,7.12,7.12,0,0,0-1.23.11c0-.65.05-1.29.07-1.93.17-5.16.33-10,.62-14.21a55.71,55.71,0,0,1,15.17-35,46.59,46.59,0,0,1,67,0,55.7,55.7,0,0,1,15.16,35c.3,4.18.46,9.05.63,14.2,0,.45,0,.9,0,1.34-8.16-12.57-20.76-21.84-37-27.07A94.37,94.37,0,0,0,63,168.37a7.54,7.54,0,0,0-5.19,2.29l-13.53,14a7.5,7.5,0,0,0,10.8,10.41l11.26-11.68c9.69.48,40.89,4.1,53,30.82A40.51,40.51,0,0,1,79.22,248.56ZM111,262.72v-9a55.37,55.37,0,0,0,19.8-24.45,82.82,82.82,0,0,0,4.27,17.92C132.08,250.88,125,257.67,111,262.72Zm72-121.57V122.47a7.68,7.68,0,0,0-.78-3.33A72.08,72.08,0,0,1,175,87.69v-16A56.65,56.65,0,0,1,231.65,15H336V87.69a72.08,72.08,0,0,1-7.22,31.45,7.68,7.68,0,0,0-.78,3.33v21.42a71.8,71.8,0,0,1-22.93,52.9,74.9,74.9,0,0,1-5.74,4.86l-.13.1a71.9,71.9,0,0,1-48.54,14.48C212.72,213.77,183,180.79,183,141.15ZM225.18,292a.49.49,0,0,1-.42.14.45.45,0,0,1-.38-.22l-23.33-35,7.51-7.89,35.38,24.19Zm30.32-29L215,235.27v-14a84.15,84.15,0,0,0,34.69,10q3,.19,5.89.2A86.6,86.6,0,0,0,296,221.61v13.66Zm31.4,28.93a.5.5,0,0,1-.38.23.46.46,0,0,1-.42-.15l-18.77-18.77L302.72,249l7.51,7.89Zm136.6-6.37-17-17a21,21,0,0,0,.46-4.44V261a52.49,52.49,0,0,0,14.8,2.62c.58,0,1.15,0,1.72,0A55.39,55.39,0,0,0,440,261.1v3a18.08,18.08,0,0,0,.54,4.36Zm28.1-48.35a40.18,40.18,0,0,1-29.35,11.32C400.61,247.83,383,228.77,383,206V191.23a5.79,5.79,0,0,0-.6-2.55L377,177.8a18.72,18.72,0,0,1-2-8.37v-9.56A24.86,24.86,0,0,1,399.87,135H472v31.17a32.52,32.52,0,0,1-3.43,14.55l-3.78,7.58a7.5,7.5,0,0,0-.79,3.35v15.57A41.47,41.47,0,0,1,451.6,237.16Z"/><path class="cls-1" d="M464,320.43V368a7.68,7.68,0,0,0,6.56,7.73,7.5,7.5,0,0,0,8.44-7.44V320.21a7.51,7.51,0,0,0-9.16-7.32A7.64,7.64,0,0,0,464,320.43Z"/><path class="cls-1" d="M32,330.35V368a7.68,7.68,0,0,0,6.56,7.73A7.5,7.5,0,0,0,47,368.33v-38.2a7.5,7.5,0,0,0-9.16-7.32A7.63,7.63,0,0,0,32,330.35Z"/><path class="cls-1" d="M317.07,90.37C288.71,62,229.36,67.43,205.15,71.08A15.4,15.4,0,0,0,192,86.42v17a7.68,7.68,0,0,0,6.56,7.73A7.5,7.5,0,0,0,207,103.7V86.42a.49.49,0,0,1,.39-.51c9.67-1.46,28.85-3.7,48.73-2.38,23.3,1.55,40.2,7.38,50.23,17.34a7.65,7.65,0,0,0,9.93.8A7.51,7.51,0,0,0,317.07,90.37Z"/><path class="cls-1" d="M160,336.47V368a7.68,7.68,0,0,0,6.56,7.73,7.5,7.5,0,0,0,8.44-7.44V336.25a7.51,7.51,0,0,0-9.16-7.32A7.64,7.64,0,0,0,160,336.47Z"/><path class="cls-1" d="M336,336.47V368a7.68,7.68,0,0,0,6.56,7.73,7.5,7.5,0,0,0,8.44-7.44V336.25a7.51,7.51,0,0,0-9.16-7.32A7.64,7.64,0,0,0,336,336.47Z"/></g></g></svg>